G04 #@! TF.GenerationSoftware,KiCad,Pcbnew,(6.0.5)*
G04 #@! TF.CreationDate,2023-05-02T23:05:13-04:00*
G04 #@! TF.ProjectId,MC_Telem,4d435f54-656c-4656-9d2e-6b696361645f,rev?*
G04 #@! TF.SameCoordinates,Original*
G04 #@! TF.FileFunction,Soldermask,Bot*
G04 #@! TF.FilePolarity,Negative*
%FSLAX46Y46*%
G04 Gerber Fmt 4.6, Leading zero omitted, Abs format (unit mm)*
G04 Created by KiCad (PCBNEW (6.0.5)) date 2023-05-02 23:05:13*
%MOMM*%
%LPD*%
G01*
G04 APERTURE LIST*
G04 Aperture macros list*
%AMRoundRect*
0 Rectangle with rounded corners*
0 $1 Rounding radius*
0 $2 $3 $4 $5 $6 $7 $8 $9 X,Y pos of 4 corners*
0 Add a 4 corners polygon primitive as box body*
4,1,4,$2,$3,$4,$5,$6,$7,$8,$9,$2,$3,0*
0 Add four circle primitives for the rounded corners*
1,1,$1+$1,$2,$3*
1,1,$1+$1,$4,$5*
1,1,$1+$1,$6,$7*
1,1,$1+$1,$8,$9*
0 Add four rect primitives between the rounded corners*
20,1,$1+$1,$2,$3,$4,$5,0*
20,1,$1+$1,$4,$5,$6,$7,0*
20,1,$1+$1,$6,$7,$8,$9,0*
20,1,$1+$1,$8,$9,$2,$3,0*%
G04 Aperture macros list end*
%ADD10C,1.610000*%
%ADD11C,1.410000*%
%ADD12RoundRect,0.051000X-1.125000X1.125000X-1.125000X-1.125000X1.125000X-1.125000X1.125000X1.125000X0*%
%ADD13C,2.352000*%
%ADD14C,4.102000*%
%ADD15RoundRect,0.051000X1.125000X1.125000X-1.125000X1.125000X-1.125000X-1.125000X1.125000X-1.125000X0*%
%ADD16RoundRect,0.051000X1.125000X-1.125000X1.125000X1.125000X-1.125000X1.125000X-1.125000X-1.125000X0*%
%ADD17C,3.302000*%
%ADD18RoundRect,0.051000X-0.850000X-0.850000X0.850000X-0.850000X0.850000X0.850000X-0.850000X0.850000X0*%
%ADD19O,1.802000X1.802000*%
%ADD20C,2.802000*%
%ADD21RoundRect,0.432000X0.381000X-0.381000X0.381000X0.381000X-0.381000X0.381000X-0.381000X-0.381000X0*%
%ADD22C,1.626000*%
%ADD23RoundRect,0.051000X-0.800000X-0.800000X0.800000X-0.800000X0.800000X0.800000X-0.800000X0.800000X0*%
%ADD24C,1.702000*%
%ADD25RoundRect,0.300999X-1.025001X1.025001X-1.025001X-1.025001X1.025001X-1.025001X1.025001X1.025001X0*%
%ADD26C,2.652000*%
G04 APERTURE END LIST*
D10*
X89853000Y-67691000D03*
X97853000Y-67691000D03*
D11*
X91853000Y-67691000D03*
X93853000Y-67691000D03*
X95853000Y-67691000D03*
D12*
X82922500Y-81110000D03*
D13*
X82922500Y-84610000D03*
X82922500Y-88110000D03*
X82922500Y-91610000D03*
X79422500Y-81110000D03*
X79422500Y-84610000D03*
X79422500Y-88110000D03*
X79422500Y-91610000D03*
D14*
X80462500Y-74110000D03*
X80462500Y-98610000D03*
D15*
X130726000Y-68466500D03*
D13*
X127226000Y-68466500D03*
X123726000Y-68466500D03*
X120226000Y-68466500D03*
X130726000Y-64966500D03*
X127226000Y-64966500D03*
X123726000Y-64966500D03*
X120226000Y-64966500D03*
D14*
X137726000Y-66006500D03*
X113226000Y-66006500D03*
D16*
X167720000Y-91610000D03*
D13*
X167720000Y-88110000D03*
X167720000Y-84610000D03*
X167720000Y-81110000D03*
X171220000Y-91610000D03*
X171220000Y-88110000D03*
X171220000Y-84610000D03*
X171220000Y-81110000D03*
D14*
X170180000Y-98610000D03*
X170180000Y-74110000D03*
D17*
X80000000Y-65000000D03*
X170000000Y-65000000D03*
X170000000Y-155000000D03*
D18*
X120421000Y-83469000D03*
D19*
X120421000Y-86009000D03*
X120421000Y-88549000D03*
X120421000Y-91089000D03*
X120421000Y-93629000D03*
D20*
X81820000Y-118989800D03*
X81820000Y-144989800D03*
X43620000Y-131989800D03*
D21*
X82280000Y-140949800D03*
D22*
X79740000Y-140949800D03*
X82280000Y-138409800D03*
X79740000Y-138409800D03*
X82280000Y-135869800D03*
X79740000Y-135869800D03*
X82280000Y-133329800D03*
X79740000Y-133329800D03*
X82280000Y-130789800D03*
X79740000Y-130789800D03*
X82280000Y-128249800D03*
X79740000Y-128249800D03*
X82280000Y-125709800D03*
X79740000Y-125709800D03*
X82280000Y-123169800D03*
X79740000Y-123169800D03*
D17*
X80000000Y-155000000D03*
D14*
X99030000Y-150920000D03*
X162530000Y-150920000D03*
D23*
X105850000Y-149500000D03*
D24*
X108620000Y-149500000D03*
X111390000Y-149500000D03*
X114160000Y-149500000D03*
X116930000Y-149500000D03*
X119700000Y-149500000D03*
X122470000Y-149500000D03*
X125240000Y-149500000D03*
X128010000Y-149500000D03*
X130780000Y-149500000D03*
X133550000Y-149500000D03*
X136320000Y-149500000D03*
X139090000Y-149500000D03*
X141860000Y-149500000D03*
X144630000Y-149500000D03*
X147400000Y-149500000D03*
X150170000Y-149500000D03*
X152940000Y-149500000D03*
X155710000Y-149500000D03*
X107235000Y-152340000D03*
X110005000Y-152340000D03*
X112775000Y-152340000D03*
X115545000Y-152340000D03*
X118315000Y-152340000D03*
X121085000Y-152340000D03*
X123855000Y-152340000D03*
X126625000Y-152340000D03*
X129395000Y-152340000D03*
X132165000Y-152340000D03*
X134935000Y-152340000D03*
X137705000Y-152340000D03*
X140475000Y-152340000D03*
X143245000Y-152340000D03*
X146015000Y-152340000D03*
X148785000Y-152340000D03*
X151555000Y-152340000D03*
X154325000Y-152340000D03*
D25*
X171475000Y-124525000D03*
D26*
X171475000Y-129325000D03*
X171475000Y-134125000D03*
X171475000Y-138925000D03*
X171475000Y-143725000D03*
M02*
