M48
; DRILL file {KiCad (6.0.5)} date Tue May  2 23:05:35 2023
; FORMAT={-:-/ absolute / inch / decimal}
; #@! TF.CreationDate,2023-05-02T23:05:35-04:00
; #@! TF.GenerationSoftware,Kicad,Pcbnew,(6.0.5)
; #@! TF.FileFunction,Plated,1,2,PTH
FMAT,2
INCH
; #@! TA.AperFunction,Plated,PTH,ViaDrill
T1C0.0079
; #@! TA.AperFunction,Plated,PTH,ViaDrill
T2C0.0118
; #@! TA.AperFunction,Plated,PTH,ViaDrill
T3C0.0157
; #@! TA.AperFunction,Plated,PTH,ComponentDrill
T4C0.0300
; #@! TA.AperFunction,Plated,PTH,ComponentDrill
T5C0.0315
; #@! TA.AperFunction,Plated,PTH,ComponentDrill
T6C0.0394
; #@! TA.AperFunction,Plated,PTH,ComponentDrill
T7C0.0591
; #@! TA.AperFunction,Plated,PTH,ComponentDrill
T8C0.0610
; #@! TA.AperFunction,Plated,PTH,ComponentDrill
T9C0.1260
%
G90
G05
T1
X4.3298Y-5.245
X4.3406Y-5.3612
X4.4272Y-5.5118
X4.4843Y-5.3041
X4.4941Y-5.3612
X4.5128Y-5.5069
X5.4154Y-5.6575
T2
X3.0886Y-4.2638
X3.0965Y-4.4606
X3.1299Y-4.2205
X3.1299Y-4.3071
X3.1398Y-4.4134
X3.1398Y-4.5059
X3.69Y-3.94
X3.72Y-3.94
X3.7807Y-3.824
X3.7811Y-3.774
X3.9212Y-4.59
X3.9508Y-4.2953
X3.9862Y-4.2559
X4.0122Y-3.774
X4.025Y-4.2953
X4.084Y-4.489
X4.0925Y-4.5866
X4.128Y-4.3504
X4.128Y-4.687
X4.148Y-4.853
X4.19Y-3.705
X4.374Y-4.8
X4.4039Y-4.826
X4.585Y-4.371
X4.6535Y-4.6142
X4.95Y-4.119
X4.9823Y-5.5797
X4.9843Y-5.0591
X5.1028Y-4.319
X5.245Y-3.7
X5.325Y-3.32
X5.325Y-3.35
X5.325Y-3.38
X5.381Y-5.586
X5.467Y-5.426
X5.506Y-5.586
X5.605Y-3.41
X5.635Y-3.41
X5.64Y-5.595
X5.665Y-3.41
X5.665Y-3.44
X5.715Y-3.41
X5.745Y-3.41
X5.775Y-3.38
X5.775Y-3.41
X5.865Y-4.05
X5.885Y-4.44
X5.97Y-3.18
X6.06Y-3.18
X6.065Y-3.425
X6.065Y-3.455
X6.065Y-3.485
X6.095Y-3.425
X6.125Y-3.425
X6.145Y-3.18
X6.2102Y-2.8482
X6.2102Y-2.9328
X6.2574Y-2.8895
X6.63Y-4.285
X6.63Y-4.315
X6.63Y-4.345
X6.6634Y-4.374
T3
X4.2965Y-4.8219
X4.311Y-3.4744
X4.4163Y-4.3907
X4.5049Y-5.4075
X5.1024Y-4.0591
X5.1909Y-4.1181
T4
X3.1394Y-4.8492
X3.1394Y-4.9492
X3.1394Y-5.0492
X3.1394Y-5.1492
X3.1394Y-5.2492
X3.1394Y-5.3492
X3.1394Y-5.4492
X3.1394Y-5.5492
X3.2394Y-4.8492
X3.2394Y-4.9492
X3.2394Y-5.0492
X3.2394Y-5.1492
X3.2394Y-5.2492
X3.2394Y-5.3492
X3.2394Y-5.4492
X3.2394Y-5.5492
T5
X3.6163Y-2.665
X3.695Y-2.665
X3.7737Y-2.665
T6
X3.5375Y-2.665
X3.8525Y-2.665
X4.1673Y-5.8858
X4.2219Y-5.9976
X4.2764Y-5.8858
X4.3309Y-5.9976
X4.3854Y-5.8858
X4.44Y-5.9976
X4.4945Y-5.8858
X4.549Y-5.9976
X4.6035Y-5.8858
X4.6581Y-5.9976
X4.7126Y-5.8858
X4.741Y-3.2862
X4.741Y-3.3862
X4.741Y-3.4862
X4.741Y-3.5862
X4.741Y-3.6862
X4.7671Y-5.9976
X4.8217Y-5.8858
X4.8762Y-5.9976
X4.9307Y-5.8858
X4.9852Y-5.9976
X5.0398Y-5.8858
X5.0943Y-5.9976
X5.1488Y-5.8858
X5.2033Y-5.9976
X5.2579Y-5.8858
X5.3124Y-5.9976
X5.3669Y-5.8858
X5.4215Y-5.9976
X5.476Y-5.8858
X5.5305Y-5.9976
X5.585Y-5.8858
X5.6396Y-5.9976
X5.6941Y-5.8858
X5.7486Y-5.9976
X5.8031Y-5.8858
X5.8577Y-5.9976
X5.9122Y-5.8858
X5.9667Y-5.9976
X6.0213Y-5.8858
X6.0758Y-5.9976
X6.1303Y-5.8858
T7
X3.1269Y-3.1933
X3.1269Y-3.3311
X3.1269Y-3.4689
X3.1269Y-3.6067
X3.2647Y-3.1933
X3.2647Y-3.3311
X3.2647Y-3.4689
X3.2647Y-3.6067
X4.7333Y-2.5577
X4.7333Y-2.6955
X4.8711Y-2.5577
X4.8711Y-2.6955
X5.0089Y-2.5577
X5.0089Y-2.6955
X5.1467Y-2.5577
X5.1467Y-2.6955
X6.6031Y-3.1933
X6.6031Y-3.3311
X6.6031Y-3.4689
X6.6031Y-3.6067
X6.7409Y-3.1933
X6.7409Y-3.3311
X6.7409Y-3.4689
X6.7409Y-3.6067
T8
X6.751Y-4.9026
X6.751Y-5.0915
X6.751Y-5.2805
X6.751Y-5.4695
X6.751Y-5.6585
T9
X3.8988Y-5.9417
X6.3988Y-5.9417
T0
M30
