G04 #@! TF.GenerationSoftware,KiCad,Pcbnew,(6.0.5)*
G04 #@! TF.CreationDate,2023-05-02T23:05:13-04:00*
G04 #@! TF.ProjectId,MC_Telem,4d435f54-656c-4656-9d2e-6b696361645f,rev?*
G04 #@! TF.SameCoordinates,Original*
G04 #@! TF.FileFunction,Legend,Top*
G04 #@! TF.FilePolarity,Positive*
%FSLAX46Y46*%
G04 Gerber Fmt 4.6, Leading zero omitted, Abs format (unit mm)*
G04 Created by KiCad (PCBNEW (6.0.5)) date 2023-05-02 23:05:13*
%MOMM*%
%LPD*%
G01*
G04 APERTURE LIST*
%ADD10C,0.195000*%
%ADD11C,0.150000*%
%ADD12C,0.300000*%
%ADD13C,0.254000*%
%ADD14C,0.098425*%
%ADD15C,0.200000*%
%ADD16C,0.127000*%
%ADD17C,0.400000*%
%ADD18C,0.120000*%
%ADD19C,0.100000*%
%ADD20C,0.152400*%
G04 APERTURE END LIST*
D10*
X117414102Y-76019412D02*
G75*
G03*
X117164267Y-75808479I-1862602J-1952688D01*
G01*
X122227236Y-76992262D02*
G75*
G03*
X122265651Y-77199817I779064J36862D01*
G01*
X91248840Y-77844721D02*
G75*
G03*
X91299984Y-77936290I160760J29721D01*
G01*
X113844207Y-76017649D02*
G75*
G03*
X113464264Y-76506964I1597193J-1632351D01*
G01*
X113154270Y-77846624D02*
X113159461Y-78055753D01*
X105648328Y-70798052D02*
G75*
G03*
X105638338Y-70850838I140072J-53848D01*
G01*
X100919184Y-72159437D02*
G75*
G03*
X100614543Y-72192061I116J-1439763D01*
G01*
X120012999Y-77549444D02*
X120152943Y-77264455D01*
X94532665Y-74812729D02*
G75*
G03*
X94532550Y-74729531I-50265J41529D01*
G01*
X106256151Y-79304682D02*
G75*
G03*
X106411307Y-79402677I357549J394282D01*
G01*
X108992574Y-73402632D02*
X108983833Y-72732193D01*
X108569721Y-73339592D02*
G75*
G03*
X108535406Y-73318343I-34021J-16608D01*
G01*
X91161774Y-71262537D02*
X91161774Y-72621036D01*
X101208765Y-76775072D02*
G75*
G03*
X101031419Y-77050130I921935J-789128D01*
G01*
X106531064Y-77479928D02*
X106141513Y-77545027D01*
X107568007Y-76270196D02*
G75*
G03*
X107320617Y-76213534I-381007J-1095104D01*
G01*
X107187871Y-78118485D02*
X107416844Y-78075779D01*
X99739667Y-80716191D02*
G75*
G03*
X99799492Y-80957746I2464133J482091D01*
G01*
X105890122Y-77596715D02*
G75*
G03*
X105697217Y-77651591I450378J-1949685D01*
G01*
X107995288Y-72150504D02*
G75*
G03*
X107610417Y-72179062I-88988J-1408396D01*
G01*
X94510382Y-82081439D02*
X94668688Y-81918109D01*
X123007152Y-77909056D02*
X123248718Y-77987388D01*
X108786674Y-74757391D02*
G75*
G03*
X108939154Y-74825477I263126J384491D01*
G01*
X88993873Y-70788599D02*
X87566709Y-70788599D01*
X108567512Y-73865307D02*
G75*
G03*
X108596334Y-73550223I-1708112J315107D01*
G01*
X98888454Y-77842447D02*
X98888454Y-76484335D01*
X103191076Y-71933276D02*
G75*
G03*
X102925518Y-72115999I742424J-1363324D01*
G01*
X102038077Y-76447320D02*
X102226926Y-76460341D01*
X102038077Y-76447318D02*
G75*
G03*
X101755879Y-76453490I-90177J-2331082D01*
G01*
X108261024Y-74731508D02*
X108396327Y-74619464D01*
X107877595Y-74899703D02*
G75*
G03*
X108021161Y-74860754I-250795J1208503D01*
G01*
X115238841Y-75370398D02*
G75*
G03*
X114924914Y-75422377I194659J-2149602D01*
G01*
X106950647Y-78165018D02*
X107187871Y-78118485D01*
X93849089Y-74654423D02*
X93048162Y-74651939D01*
X109438427Y-80223737D02*
X109438350Y-80223471D01*
X104805052Y-79252686D02*
G75*
G03*
X104829955Y-79406308I967948J78086D01*
G01*
X115626339Y-76335998D02*
X115782082Y-76342045D01*
X124984126Y-78498793D02*
G75*
G03*
X124604646Y-78345495I-861526J-1586307D01*
G01*
X98888454Y-71262884D02*
X98680021Y-71050506D01*
X119938889Y-75976866D02*
X119938704Y-75543479D01*
X99594798Y-77483563D02*
X99585348Y-77885330D01*
X107029734Y-80285351D02*
G75*
G03*
X107755496Y-79975625I-446934J2052451D01*
G01*
X108447292Y-75529250D02*
G75*
G03*
X108182528Y-75442241I-589292J-1346850D01*
G01*
X98680021Y-78777186D02*
X98471589Y-78564809D01*
X100068376Y-73883197D02*
G75*
G03*
X99963576Y-73868828I-187676J-979503D01*
G01*
X101790338Y-72762305D02*
G75*
G03*
X101900948Y-72760195I38862J863205D01*
G01*
X108277300Y-73048714D02*
X107840213Y-73120509D01*
X121508607Y-76603132D02*
G75*
G03*
X121077897Y-76608247I-195607J-1665168D01*
G01*
X95429518Y-81916507D02*
X95589376Y-82081439D01*
X101611261Y-80184929D02*
G75*
G03*
X102338871Y-80052508I-1861J2075429D01*
G01*
X101620494Y-72553208D02*
G75*
G03*
X101509656Y-72373754I-708094J-313392D01*
G01*
X122341582Y-79493124D02*
G75*
G03*
X122595986Y-79794563I1382518J908724D01*
G01*
X103872797Y-74923438D02*
G75*
G03*
X104176647Y-74881028I-71697J1623338D01*
G01*
X107263456Y-77368976D02*
G75*
G03*
X107618212Y-77284446I-313856J2103876D01*
G01*
X105052736Y-72515577D02*
G75*
G03*
X104738610Y-72119401I-1253436J-671223D01*
G01*
X95639578Y-78564809D02*
X95454476Y-78754371D01*
X101574937Y-74832860D02*
G75*
G03*
X101938571Y-74602618I-387237J1013860D01*
G01*
X110742886Y-72323134D02*
G75*
G03*
X110613826Y-72377314I452114J-1257766D01*
G01*
X98521640Y-82081439D02*
X98705047Y-81893613D01*
X110478474Y-75493949D02*
X110082234Y-75493949D01*
X110487214Y-77933301D02*
X110504026Y-79070190D01*
X106969164Y-73955955D02*
G75*
G03*
X106985212Y-74173882I581336J-66745D01*
G01*
X107416844Y-78075779D02*
X107622561Y-78032429D01*
X100468358Y-72932526D02*
G75*
G03*
X100690860Y-73025962I549342J996526D01*
G01*
X119294814Y-75543479D02*
X118650924Y-75543479D01*
X113197771Y-78472056D02*
G75*
G03*
X113225043Y-78607830I1109129J152156D01*
G01*
X101860495Y-73411062D02*
G75*
G03*
X101680025Y-73309003I-597595J-846138D01*
G01*
X98888454Y-76484335D02*
X98888454Y-75126224D01*
X100122854Y-73908707D02*
G75*
G03*
X100068377Y-73883193I-77654J-94893D01*
G01*
X106045539Y-72794564D02*
X106045539Y-70763834D01*
X107939043Y-77937160D02*
G75*
G03*
X107849199Y-77969829I44457J-262140D01*
G01*
X108090623Y-74458635D02*
G75*
G03*
X108323761Y-74301287I-536523J1046335D01*
G01*
X106624539Y-79458582D02*
G75*
G03*
X106912314Y-79476233I287761J2336882D01*
G01*
X108563665Y-72876325D02*
G75*
G03*
X108596334Y-72708343I-415765J168025D01*
G01*
X115883838Y-80328359D02*
G75*
G03*
X116642482Y-80162808I-243538J2937059D01*
G01*
X108031578Y-79807909D02*
X108044071Y-79860470D01*
X91534038Y-78119730D02*
G75*
G03*
X91529746Y-78162901I25862J-24370D01*
G01*
X100339560Y-72827443D02*
G75*
G03*
X100468354Y-72932534I352340J300343D01*
G01*
X102022817Y-81238339D02*
G75*
G03*
X102296635Y-81222761I7483J2282739D01*
G01*
X124880665Y-79383288D02*
G75*
G03*
X125142778Y-79180315I-314365J676688D01*
G01*
X87149844Y-76459784D02*
X87149844Y-77842874D01*
X110504021Y-79070190D02*
G75*
G03*
X110538706Y-79485762I3275979J64190D01*
G01*
X100181015Y-74047226D02*
G75*
G03*
X100155835Y-73955837I-675215J-136874D01*
G01*
X95269516Y-72621074D02*
X95269659Y-74024895D01*
X121205230Y-75424316D02*
G75*
G03*
X121069243Y-75451831I234570J-1509084D01*
G01*
X108001381Y-78064410D02*
X107984464Y-78338835D01*
X101574539Y-79132047D02*
G75*
G03*
X101895484Y-79206058I377161J902647D01*
G01*
X121760461Y-76027009D02*
X121746549Y-75419654D01*
X105634511Y-71425916D02*
X105633168Y-72080054D01*
X92992805Y-76411834D02*
X93897391Y-75502495D01*
X105250208Y-73563761D02*
G75*
G03*
X105230033Y-73018531I-1824908J205461D01*
G01*
X110538693Y-79485764D02*
G75*
G03*
X110620354Y-79727279I708407J104964D01*
G01*
X112781619Y-80224064D02*
X112781619Y-79737766D01*
X112806384Y-76335959D02*
X112806384Y-75914954D01*
X108478501Y-71888734D02*
G75*
G03*
X108156539Y-71808481I-609601J-1759666D01*
G01*
X101031417Y-77050129D02*
G75*
G03*
X100920860Y-77379322I1387583J-649171D01*
G01*
X110419597Y-72503617D02*
G75*
G03*
X110253121Y-72705426I709903J-755183D01*
G01*
X90815064Y-78931623D02*
X90627238Y-78748216D01*
X125571616Y-80142652D02*
G75*
G03*
X125866432Y-79990458I-469516J1271152D01*
G01*
X110072252Y-72157633D02*
X110057469Y-71903024D01*
X104738607Y-72119404D02*
G75*
G03*
X104467826Y-71937497I-828907J-941396D01*
G01*
X91211304Y-75076694D02*
X91211304Y-76466365D01*
X104796891Y-78588763D02*
G75*
G03*
X104784625Y-78742401I938509J-152237D01*
G01*
X94509710Y-78218099D02*
X94693117Y-78030273D01*
X107276289Y-72326909D02*
G75*
G03*
X107178060Y-72450975I297911J-336791D01*
G01*
X101708899Y-74263092D02*
G75*
G03*
X101761194Y-74057579I-377199J205392D01*
G01*
X114178010Y-79942717D02*
G75*
G03*
X114967031Y-80269501I1283890J1984017D01*
G01*
X106504356Y-75393391D02*
G75*
G03*
X106109042Y-75493482I534644J-2942309D01*
G01*
X108590705Y-73415503D02*
X108596334Y-73550223D01*
X100859230Y-80054436D02*
G75*
G03*
X101611261Y-80184924I749970J2089936D01*
G01*
X101730838Y-72741210D02*
G75*
G03*
X101790338Y-72762299I64362J87110D01*
G01*
X110883847Y-72279463D02*
G75*
G03*
X110742886Y-72323133I417653J-1597437D01*
G01*
X106045539Y-70763834D02*
X105859403Y-70748438D01*
X101007313Y-78510793D02*
G75*
G03*
X101140883Y-78784793I1074187J354093D01*
G01*
X110783322Y-79933482D02*
G75*
G03*
X110993255Y-80090343I916878J1008182D01*
G01*
X109261837Y-74528827D02*
G75*
G03*
X109215459Y-74512231I-71237J-125973D01*
G01*
X113464264Y-76506964D02*
G75*
G03*
X113225043Y-77085418I2057636J-1189636D01*
G01*
X99585348Y-77885330D02*
X99606198Y-78288620D01*
X103042491Y-72577219D02*
G75*
G03*
X102848254Y-73054739I1202709J-767481D01*
G01*
X116041447Y-76391965D02*
G75*
G03*
X115918784Y-76360440I-316047J-975335D01*
G01*
X98888454Y-72620995D02*
X98888454Y-71262884D01*
X102877076Y-75951803D02*
G75*
G03*
X102646390Y-75740655I-1198576J-1077897D01*
G01*
X122230984Y-76713540D02*
G75*
G03*
X122227249Y-76992261I2296616J-170160D01*
G01*
X99822175Y-73876792D02*
G75*
G03*
X99752740Y-73932084I18925J-95008D01*
G01*
X91611405Y-77768890D02*
X91995451Y-77405741D01*
X102352444Y-82097084D02*
G75*
G03*
X102743000Y-82042000I-131544J2344784D01*
G01*
X100033021Y-72143071D02*
G75*
G03*
X99948712Y-72242030I807479J-773329D01*
G01*
X99801640Y-74229652D02*
G75*
G03*
X99904402Y-74420149I780660J298152D01*
G01*
X117271725Y-79810089D02*
G75*
G03*
X117741188Y-79282785I-1314325J1642789D01*
G01*
X122353793Y-77386788D02*
G75*
G03*
X122491768Y-77566375I1033707J651388D01*
G01*
X94639168Y-78748216D02*
X94451342Y-78564809D01*
X106811739Y-75364198D02*
G75*
G03*
X106504355Y-75393384I17361J-1816102D01*
G01*
X107985993Y-77964404D02*
G75*
G03*
X107939043Y-77937158I-39793J-14496D01*
G01*
X87387200Y-81898032D02*
X87575026Y-82081439D01*
X94876524Y-77842447D02*
X94876524Y-76477755D01*
X102803091Y-78820399D02*
G75*
G03*
X103052336Y-78304670I-920791J763099D01*
G01*
X106985204Y-74173884D02*
G75*
G03*
X107079963Y-74370067I561396J150184D01*
G01*
X92357087Y-78215166D02*
X93036785Y-78218099D01*
X106109042Y-75493481D02*
G75*
G03*
X105751685Y-75642807I757358J-2314719D01*
G01*
X106667560Y-74530001D02*
G75*
G03*
X106861999Y-74731626I543540J329601D01*
G01*
X101019909Y-74552874D02*
G75*
G03*
X101330129Y-74520239I91J1489874D01*
G01*
X107263456Y-77368973D02*
X106531064Y-77479928D01*
X95454476Y-71027691D02*
X95269373Y-71217253D01*
X105231014Y-76048840D02*
G75*
G03*
X105120604Y-76214856I986286J-775660D01*
G01*
X109710759Y-71903024D02*
X109710759Y-73364159D01*
X95589376Y-74354759D02*
X97055508Y-74354759D01*
X102675348Y-81076320D02*
G75*
G03*
X102836543Y-80926216I-664048J874720D01*
G01*
X104829951Y-79406309D02*
G75*
G03*
X104875595Y-79533356I631649J155209D01*
G01*
X107416314Y-72239490D02*
G75*
G03*
X107276296Y-72326917I191486J-462510D01*
G01*
X123386726Y-78895897D02*
G75*
G03*
X123486664Y-79091455I726974J248197D01*
G01*
X93036785Y-78218099D02*
X94509710Y-78218099D01*
X91211304Y-80327543D02*
X91211304Y-81714625D01*
X112311084Y-75493949D02*
X111815784Y-75493949D01*
X113225042Y-77085418D02*
G75*
G03*
X113197774Y-77221192I1080758J-287682D01*
G01*
X91395180Y-71025568D02*
X91161774Y-71262537D01*
X87358277Y-78055252D02*
X87566709Y-78267629D01*
X94876524Y-71213354D02*
X94668091Y-71000976D01*
X107714028Y-79175975D02*
G75*
G03*
X107829539Y-79026722I-693028J655675D01*
G01*
X114743735Y-78940296D02*
G75*
G03*
X115005759Y-79196317I832665J590096D01*
G01*
X89007219Y-78267629D02*
X90447729Y-78267629D01*
X107073877Y-72737494D02*
X107110380Y-72621410D01*
X124272579Y-76216801D02*
G75*
G03*
X123906121Y-76254182I5421J-1868099D01*
G01*
X94826994Y-81754778D02*
X94826994Y-80343201D01*
X123547483Y-76550072D02*
G75*
G03*
X123561791Y-76781658I419317J-90328D01*
G01*
X90656161Y-74864316D02*
X90447729Y-74651939D01*
X116311580Y-75420033D02*
G75*
G03*
X115994680Y-75369147I-509580J-2161267D01*
G01*
X119938704Y-75543479D02*
X119294814Y-75543479D01*
X107321603Y-73581207D02*
G75*
G03*
X107151009Y-73664433I296297J-823793D01*
G01*
X123488103Y-80240532D02*
G75*
G03*
X124189028Y-80336905I878497J3792232D01*
G01*
X99891362Y-79216699D02*
G75*
G03*
X100056713Y-79482558I2155238J1156099D01*
G01*
X107899456Y-76525789D02*
G75*
G03*
X107764454Y-76376162I-472956J-291011D01*
G01*
X107957396Y-76959394D02*
G75*
G03*
X107968073Y-76710262I-597296J150394D01*
G01*
X110160166Y-72925972D02*
G75*
G03*
X110111576Y-73256676I1834934J-438528D01*
G01*
X113582962Y-79371945D02*
G75*
G03*
X114178010Y-79942717I1779138J1259245D01*
G01*
X105426927Y-77765695D02*
G75*
G03*
X105208945Y-77907027I571173J-1119705D01*
G01*
X114801655Y-76659671D02*
G75*
G03*
X114571139Y-77067364I826145J-736129D01*
G01*
X90864594Y-75076694D02*
X90656161Y-74864316D01*
X106554066Y-73838699D02*
G75*
G03*
X106536113Y-74182221I724634J-210101D01*
G01*
X98888454Y-80347675D02*
X98888454Y-78989564D01*
X112308844Y-76335959D02*
X112806384Y-76335959D01*
X90421037Y-70788599D02*
X88993873Y-70788599D01*
X107183958Y-79461586D02*
G75*
G03*
X107381972Y-79414566I-87558J809186D01*
G01*
X107622561Y-78032429D02*
X107793643Y-77992303D01*
X107021130Y-73309659D02*
G75*
G03*
X106722833Y-73537295I476170J-933241D01*
G01*
X101909831Y-72216194D02*
G75*
G03*
X101566019Y-71929008I-834131J-649206D01*
G01*
X94876524Y-76477755D02*
X94874222Y-75652452D01*
X104336754Y-78009573D02*
X104336754Y-75593009D01*
X107657833Y-74551046D02*
G75*
G03*
X107903976Y-74522763I-69133J1686846D01*
G01*
X105208947Y-77907029D02*
G75*
G03*
X105037225Y-78080549I686453J-851071D01*
G01*
X103373977Y-74461336D02*
G75*
G03*
X103517888Y-74525773I286723J447436D01*
G01*
X107336163Y-73212822D02*
X107138064Y-73263752D01*
X109307960Y-74763542D02*
G75*
G03*
X109314519Y-74677382I-561060J86042D01*
G01*
X108520120Y-72437107D02*
G75*
G03*
X108313082Y-72241175I-464420J-283393D01*
G01*
X102606214Y-74207751D02*
G75*
G03*
X102805325Y-74475331I1584586J971251D01*
G01*
X91576402Y-78190498D02*
X91906197Y-78204966D01*
X119997095Y-78896431D02*
X120012999Y-77549444D01*
X98705047Y-74166933D02*
X98888454Y-73979107D01*
X110500307Y-72016850D02*
X110389328Y-72103532D01*
X107157732Y-74870479D02*
G75*
G03*
X107511870Y-74930271I406868J1331179D01*
G01*
X102550548Y-79039920D02*
G75*
G03*
X102803085Y-78820394I-540348J876620D01*
G01*
X110620351Y-79727281D02*
G75*
G03*
X110783330Y-79933473I705049J389781D01*
G01*
X121342779Y-75409286D02*
G75*
G03*
X121205229Y-75424311I96621J-1521714D01*
G01*
X104730684Y-73929003D02*
G75*
G03*
X104818783Y-73266889I-1687884J561503D01*
G01*
X99904404Y-74420147D02*
G75*
G03*
X100064601Y-74604410I1088596J784647D01*
G01*
X122595980Y-79794570D02*
G75*
G03*
X122910246Y-80021023I1051220J1127570D01*
G01*
X101210396Y-75488967D02*
G75*
G03*
X101067774Y-75520535I219604J-1330133D01*
G01*
X95429518Y-74189827D02*
X95589376Y-74354759D01*
X101900948Y-72760195D02*
X102010246Y-72747070D01*
X123820351Y-78143088D02*
X124604646Y-78345495D01*
X123512578Y-75421431D02*
G75*
G03*
X123114139Y-75543187I534022J-2460369D01*
G01*
X91396537Y-77941777D02*
G75*
G03*
X91611405Y-77768890I-1447037J2018377D01*
G01*
X104176648Y-74881031D02*
G75*
G03*
X104450368Y-74782929I-303248J1277031D01*
G01*
X109113714Y-74840051D02*
X109233587Y-74827133D01*
X97055583Y-70838129D02*
X95639578Y-70838129D01*
X126044911Y-77748210D02*
G75*
G03*
X125748903Y-77589526I-878111J-1282590D01*
G01*
X123654772Y-76921388D02*
G75*
G03*
X123825919Y-77036478I495328J551788D01*
G01*
X126144878Y-79758795D02*
G75*
G03*
X126367843Y-79486170I-1293278J1285195D01*
G01*
X102590413Y-76594026D02*
G75*
G03*
X102471704Y-76526159I-579213J-875374D01*
G01*
X107413252Y-74543035D02*
G75*
G03*
X107657833Y-74551050I176648J1654835D01*
G01*
X94785946Y-75031091D02*
X94749710Y-74999692D01*
X106944026Y-76213510D02*
G75*
G03*
X106630062Y-76306813I108974J-941590D01*
G01*
X105636337Y-72844176D02*
X105649299Y-74825294D01*
X91945850Y-77682255D02*
X91534065Y-78119756D01*
X126328547Y-76373360D02*
G75*
G03*
X126214184Y-76149916I-1024247J-383240D01*
G01*
X104330429Y-79720888D02*
X104336754Y-78009573D01*
X105023552Y-76415672D02*
G75*
G03*
X104954406Y-76614126I1681148J-697028D01*
G01*
X109294520Y-78061268D02*
X109264989Y-76245182D01*
X99841775Y-72560676D02*
G75*
G03*
X99876227Y-72891078I833125J-80124D01*
G01*
X95639578Y-74701469D02*
X95454476Y-74891031D01*
X98680021Y-74913846D02*
X98471589Y-74701469D01*
X102898125Y-79675948D02*
X103098504Y-79458562D01*
X94876524Y-72596444D02*
X94876524Y-71213354D01*
X110788095Y-71875576D02*
G75*
G03*
X110701359Y-71902040I226105J-896424D01*
G01*
X115594789Y-79357289D02*
X115390020Y-79351501D01*
X94659475Y-74955166D02*
X94195526Y-75413036D01*
X91578118Y-78564809D02*
X91394711Y-78752635D01*
X114341638Y-75648616D02*
G75*
G03*
X113844212Y-76017654I1099062J-2001184D01*
G01*
X101326845Y-78986191D02*
G75*
G03*
X101574542Y-79132040I654855J828891D01*
G01*
X111815784Y-75493949D02*
X111815784Y-74775764D01*
X87149844Y-71213354D02*
X87149844Y-72596444D01*
X121746549Y-75419654D02*
X121474134Y-75407947D01*
X122519924Y-75950646D02*
G75*
G03*
X122337803Y-76225676I872476J-775554D01*
G01*
X101204798Y-80949832D02*
G75*
G03*
X101407319Y-81109180I547002J486832D01*
G01*
X90439412Y-78564809D02*
X89002800Y-78564809D01*
X125213649Y-76827669D02*
X125820392Y-76829464D01*
X122174720Y-79153776D02*
G75*
G03*
X122341592Y-79493118I1438680J496776D01*
G01*
X100573047Y-75743803D02*
G75*
G03*
X100152050Y-76109977I1087653J-1675597D01*
G01*
X97055583Y-78564809D02*
X95639578Y-78564809D01*
X113159461Y-77637495D02*
X113154270Y-77846624D01*
X125592258Y-75594497D02*
G75*
G03*
X125172782Y-75446912I-794658J-1588703D01*
G01*
X91211304Y-78940461D02*
X91211304Y-80327543D01*
X101720029Y-73875855D02*
G75*
G03*
X101605807Y-73744077I-296429J-141545D01*
G01*
X126286117Y-76824343D02*
G75*
G03*
X126401787Y-76778396I-4717J180443D01*
G01*
X109310669Y-78847618D02*
X109294520Y-78061268D01*
X109685994Y-75493949D02*
X109685994Y-75914954D01*
X118104914Y-77846624D02*
G75*
G03*
X118064149Y-77277990I-3987414J-76D01*
G01*
X123825921Y-77036473D02*
G75*
G03*
X124100544Y-77141641I743779J1531073D01*
G01*
X108611232Y-74443557D02*
G75*
G03*
X108558544Y-74475766I68068J-170543D01*
G01*
X109233584Y-74827113D02*
G75*
G03*
X109284091Y-74805117I-14384J102013D01*
G01*
X89007219Y-74651939D02*
X87566709Y-74651939D01*
X87358277Y-71000976D02*
X87149844Y-71213354D01*
X122265646Y-77199819D02*
G75*
G03*
X122353789Y-77386791I808154J266719D01*
G01*
X105751682Y-75642802D02*
G75*
G03*
X105452361Y-75831358I935118J-1816298D01*
G01*
X112781619Y-79251468D02*
X112399443Y-79242466D01*
X106912314Y-79476234D02*
G75*
G03*
X107183957Y-79461575I186J2520834D01*
G01*
X95454476Y-78754371D02*
X95269373Y-78943933D01*
X109710759Y-73364159D02*
X109710759Y-74825294D01*
X110613823Y-72377308D02*
G75*
G03*
X110503511Y-72438580I480877J-995692D01*
G01*
X107940555Y-79853750D02*
X108015776Y-79805849D01*
X126430229Y-76678284D02*
X126328548Y-76373359D01*
X100368603Y-73332776D02*
G75*
G03*
X100940688Y-73510365I2021497J5501776D01*
G01*
X106985752Y-72812822D02*
G75*
G03*
X107038721Y-72788966I-12652J98822D01*
G01*
X110057469Y-74825294D02*
X110083632Y-73908989D01*
X126040669Y-75932125D02*
G75*
G03*
X125826895Y-75740389I-1268069J-1198775D01*
G01*
X94826994Y-78931623D02*
X94639168Y-78748216D01*
X110884930Y-71855036D02*
X110788095Y-71875576D01*
X114458592Y-77646665D02*
G75*
G03*
X114462070Y-78145365I2786008J-229935D01*
G01*
X110993251Y-80090350D02*
G75*
G03*
X111198461Y-80174264I367749J606450D01*
G01*
X104931114Y-76930319D02*
X105567164Y-76930319D01*
X101020696Y-80595539D02*
X100375580Y-80595539D01*
X105714949Y-70753844D02*
G75*
G03*
X105671054Y-70771323I36751J-156156D01*
G01*
X110701357Y-71902035D02*
G75*
G03*
X110610674Y-71944789I179543J-498365D01*
G01*
X101013174Y-74919360D02*
G75*
G03*
X101331749Y-74894785I-56474J2809260D01*
G01*
X93048162Y-74651939D02*
X91628169Y-74651939D01*
X103043863Y-74697649D02*
G75*
G03*
X103286125Y-74834299I587537J758549D01*
G01*
X90447729Y-74651939D02*
X89007219Y-74651939D01*
X89011638Y-82081439D02*
X90448250Y-82081439D01*
X115594789Y-79357304D02*
G75*
G03*
X116129724Y-79264231I-89J1584304D01*
G01*
X101372145Y-75468706D02*
X101210396Y-75488967D01*
X101681005Y-81205618D02*
G75*
G03*
X102022817Y-81238341I347795J1831318D01*
G01*
X93048669Y-82081439D02*
X94510382Y-82081439D01*
X101067772Y-75520528D02*
G75*
G03*
X100573038Y-75743790I481828J-1727472D01*
G01*
X91628169Y-74651939D02*
X91419737Y-74864316D01*
X109264989Y-76245182D02*
X109114470Y-76030538D01*
X106884085Y-72819323D02*
G75*
G03*
X106985752Y-72812824I15J798223D01*
G01*
X113225042Y-78607830D02*
G75*
G03*
X113582961Y-79371946I2303358J613030D01*
G01*
X106523119Y-78274938D02*
X106719822Y-78219838D01*
X126290775Y-77963094D02*
G75*
G03*
X126044913Y-77748208I-1030375J-930806D01*
G01*
X122118029Y-78815852D02*
G75*
G03*
X122174727Y-79153773I1036271J152D01*
G01*
X108182527Y-75442243D02*
G75*
G03*
X107860624Y-75395011I-467227J-2063757D01*
G01*
X87149844Y-73979534D02*
X87358277Y-74191912D01*
X106193998Y-80331456D02*
G75*
G03*
X107029731Y-80285338I274302J2624656D01*
G01*
X108001362Y-78064409D02*
G75*
G03*
X107986013Y-77964397I-256562J11809D01*
G01*
X109094861Y-74445232D02*
G75*
G03*
X109215459Y-74512231I156539J139732D01*
G01*
X123906125Y-76254203D02*
G75*
G03*
X123660091Y-76368783I115475J-569397D01*
G01*
X123639858Y-79255696D02*
G75*
G03*
X123838249Y-79379345I578242J706796D01*
G01*
X91370207Y-74191912D02*
X91578639Y-74404289D01*
X126496233Y-79212092D02*
G75*
G03*
X126568357Y-78845906I-1930833J570492D01*
G01*
X108645864Y-74519929D02*
G75*
G03*
X108682946Y-74649248I244136J29D01*
G01*
X105108013Y-74082347D02*
G75*
G03*
X105250197Y-73563760I-1583513J712947D01*
G01*
X104149237Y-71823201D02*
G75*
G03*
X103807852Y-71784578I-337737J-1457199D01*
G01*
X120042999Y-76236899D02*
X119939074Y-76410254D01*
X116501035Y-78996918D02*
G75*
G03*
X116716119Y-78532408I-868335J684118D01*
G01*
X94459659Y-74404289D02*
X94668091Y-74191912D01*
X100375580Y-80595539D02*
X99890192Y-80599875D01*
X108313088Y-72241164D02*
G75*
G03*
X107995288Y-72150508I-366588J-682736D01*
G01*
X93074345Y-76528411D02*
X92441039Y-77167947D01*
X110478474Y-74057579D02*
X110478474Y-74775764D01*
X125748904Y-77589523D02*
G75*
G03*
X125308009Y-77443744I-1351004J-3346377D01*
G01*
X106536098Y-74182224D02*
G75*
G03*
X106667560Y-74530001I1000402J179424D01*
G01*
X125308009Y-77443744D02*
X124532725Y-77253346D01*
X111172769Y-71879335D02*
G75*
G03*
X111132451Y-71854490I-55769J-45365D01*
G01*
X87358277Y-74191912D02*
X87566709Y-74404289D01*
X108998476Y-74042101D02*
X108992574Y-73402632D01*
X90656161Y-74191912D02*
X90864594Y-73979534D01*
X106722830Y-73537293D02*
G75*
G03*
X106554076Y-73838702I564870J-514207D01*
G01*
X110057469Y-71903024D02*
X109884114Y-71903024D01*
X101566027Y-71928993D02*
G75*
G03*
X101098728Y-71789205I-594027J-1134807D01*
G01*
X99861727Y-72431961D02*
G75*
G03*
X99841774Y-72560676I1100073J-236439D01*
G01*
X102098216Y-75504812D02*
G75*
G03*
X101737653Y-75463076I-483616J-2599688D01*
G01*
X94459659Y-70788599D02*
X93044122Y-70788599D01*
X122780508Y-75721082D02*
G75*
G03*
X122519924Y-75950646I806992J-1178718D01*
G01*
X108682956Y-74649242D02*
G75*
G03*
X108786679Y-74757384I310544J194042D01*
G01*
X106756904Y-72802357D02*
G75*
G03*
X106884085Y-72819329I127196J468157D01*
G01*
X101331748Y-74894780D02*
G75*
G03*
X101574935Y-74832855I-145348J1079280D01*
G01*
X102646381Y-75740667D02*
G75*
G03*
X102393780Y-75594488I-735681J-979933D01*
G01*
X124915673Y-80305370D02*
G75*
G03*
X125571618Y-80142658I-403973J3032070D01*
G01*
X124621852Y-75364817D02*
G75*
G03*
X124037856Y-75353393I-381852J-4587783D01*
G01*
X120664340Y-75617400D02*
G75*
G03*
X120426362Y-75779921I748760J-1351900D01*
G01*
X108769929Y-80209003D02*
X109026292Y-80214755D01*
X122118007Y-78688634D02*
X122118015Y-78815852D01*
X110503506Y-72438573D02*
G75*
G03*
X110419594Y-72503613I297694J-470727D01*
G01*
X103214973Y-74341664D02*
G75*
G03*
X103373985Y-74461323I872727J994264D01*
G01*
X91225190Y-77650974D02*
G75*
G03*
X91248870Y-77844716I1588010J95774D01*
G01*
X94668688Y-81918109D02*
X94826994Y-81754778D01*
X111155896Y-72185916D02*
G75*
G03*
X111187566Y-72131814I-56196J69216D01*
G01*
X117940762Y-76799374D02*
G75*
G03*
X117726449Y-76387539I-1838262J-694926D01*
G01*
X100597239Y-71827539D02*
X100414420Y-71883044D01*
X104875595Y-79533356D02*
G75*
G03*
X104957658Y-79683251I1476905J711156D01*
G01*
X104302903Y-74454298D02*
G75*
G03*
X104401136Y-74390443I-374103J682998D01*
G01*
X104667041Y-74655343D02*
G75*
G03*
X104839102Y-74506496I-628541J900443D01*
G01*
X118875215Y-80263100D02*
X119087921Y-80262801D01*
X125172783Y-75446907D02*
G75*
G03*
X124621852Y-75364818I-906583J-4194593D01*
G01*
X126367846Y-79486172D02*
G75*
G03*
X126496234Y-79212092I-838246J559772D01*
G01*
X103838734Y-81462065D02*
G75*
G03*
X104068923Y-81182638I-987434J1047965D01*
G01*
X106630062Y-76306813D02*
G75*
G03*
X106398397Y-76487730I328938J-659987D01*
G01*
X116903447Y-75641569D02*
G75*
G03*
X116622269Y-75513837I-1031647J-1897631D01*
G01*
X120942569Y-75490616D02*
G75*
G03*
X120664340Y-75617400I669131J-1837084D01*
G01*
X108637059Y-74456266D02*
G75*
G03*
X108611235Y-74443565I-18659J-5334D01*
G01*
X122910248Y-80021019D02*
G75*
G03*
X123488104Y-80240527I1093852J2009219D01*
G01*
X87199374Y-78940461D02*
X87199374Y-80327543D01*
X124189028Y-80336897D02*
G75*
G03*
X124915672Y-80305365I186772J4084297D01*
G01*
X126568345Y-78845905D02*
G75*
G03*
X126558197Y-78515117I-1246645J127305D01*
G01*
X99948711Y-72242029D02*
G75*
G03*
X99894849Y-72332203I384389J-290771D01*
G01*
X111825927Y-77696343D02*
X111811304Y-76335959D01*
X100881697Y-77749515D02*
G75*
G03*
X100915900Y-78145820I2306303J-585D01*
G01*
X107854764Y-79909477D02*
X107940555Y-79853750D01*
X121474134Y-75407942D02*
G75*
G03*
X121342779Y-75409285I-53034J-1237158D01*
G01*
X107575242Y-73509854D02*
X107960031Y-73439640D01*
X99890192Y-80599880D02*
G75*
G03*
X99775143Y-80634154I4108J-224020D01*
G01*
X106713937Y-72498169D02*
G75*
G03*
X106675438Y-72655057I983163J-324431D01*
G01*
X101072460Y-80731651D02*
G75*
G03*
X101204801Y-80949829I659240J250651D01*
G01*
X94749710Y-74999692D02*
X94715762Y-74973198D01*
X100915902Y-78145820D02*
G75*
G03*
X101007308Y-78510795I2542098J442720D01*
G01*
X100276741Y-71945166D02*
G75*
G03*
X100157542Y-72027024I385959J-689734D01*
G01*
X116154807Y-76437516D02*
G75*
G03*
X116041448Y-76391962I-387307J-799984D01*
G01*
X106098950Y-78681473D02*
G75*
G03*
X106074178Y-78921854I565350J-179727D01*
G01*
X104298211Y-80423846D02*
X104330429Y-79720888D01*
X108860904Y-72196386D02*
G75*
G03*
X108703575Y-72016568I-664104J-422314D01*
G01*
X101170756Y-72182175D02*
G75*
G03*
X100919184Y-72159440I-251556J-1380325D01*
G01*
X118656936Y-79549708D02*
X118662989Y-80232814D01*
X107618212Y-77284447D02*
G75*
G03*
X107845169Y-77149711I-193612J584647D01*
G01*
X100157546Y-72027029D02*
G75*
G03*
X100033025Y-72143075I959654J-1154571D01*
G01*
X99606192Y-78288621D02*
G75*
G03*
X99658139Y-78609729I2280208J204121D01*
G01*
X94668091Y-71000976D02*
X94459659Y-70788599D01*
X115005759Y-79196317D02*
G75*
G03*
X115151255Y-79285383I1089141J1615817D01*
G01*
X107039451Y-73770700D02*
G75*
G03*
X106969157Y-73955954I330049J-231200D01*
G01*
X87199374Y-80327543D02*
X87199374Y-81714625D01*
X99752738Y-73932083D02*
G75*
G03*
X99742744Y-74039807I152962J-68517D01*
G01*
X104656900Y-72636424D02*
G75*
G03*
X104280598Y-72262211I-713500J-341176D01*
G01*
X99833174Y-76595512D02*
G75*
G03*
X99637856Y-77168024I2304826J-1105888D01*
G01*
X100940688Y-73510365D02*
X101378251Y-73635059D01*
X104839101Y-74506495D02*
G75*
G03*
X104981250Y-74320931I-853701J801195D01*
G01*
X99742749Y-74039806D02*
G75*
G03*
X99801637Y-74229653I1508651J363906D01*
G01*
X123838253Y-79379337D02*
G75*
G03*
X124070801Y-79455590I455247J995637D01*
G01*
X113175059Y-78274539D02*
X113197774Y-78472056D01*
X106145433Y-79160792D02*
G75*
G03*
X106256151Y-79304682I453867J234692D01*
G01*
X125170093Y-78674048D02*
G75*
G03*
X124984126Y-78498793I-424593J-264252D01*
G01*
X122720124Y-78697779D02*
X122118007Y-78688634D01*
X102338869Y-80052502D02*
G75*
G03*
X102898125Y-79675948I-512069J1364102D01*
G01*
X108142606Y-74807942D02*
G75*
G03*
X108261024Y-74731508I-429806J795842D01*
G01*
X109438350Y-80223471D02*
X109421582Y-80172679D01*
X125238431Y-78913273D02*
G75*
G03*
X125170067Y-78674064I-451731J273D01*
G01*
X110977110Y-71842749D02*
X110884930Y-71855036D01*
X101048718Y-73121122D02*
X100690860Y-73025962D01*
X124581882Y-76238983D02*
G75*
G03*
X124272579Y-76216809I-303182J-2060717D01*
G01*
X98471589Y-74701469D02*
X97055583Y-74701469D01*
X90447729Y-78267629D02*
X90656161Y-78055252D01*
X100443365Y-74425400D02*
G75*
G03*
X100692822Y-74521366I395935J657000D01*
G01*
X116441320Y-76642919D02*
G75*
G03*
X116154809Y-76437512I-737220J-725781D01*
G01*
X115918785Y-76360436D02*
G75*
G03*
X115782082Y-76342045I-232285J-1209364D01*
G01*
X99799480Y-80957749D02*
G75*
G03*
X99957593Y-81289083I1154320J347449D01*
G01*
X101509639Y-72373768D02*
G75*
G03*
X101363615Y-72251700I-400339J-330532D01*
G01*
X93019149Y-74404289D02*
X94459659Y-74404289D01*
X89002800Y-78564809D02*
X87566188Y-78564809D01*
X121069244Y-75451834D02*
G75*
G03*
X120942571Y-75490622I309156J-1235866D01*
G01*
X115616305Y-75353020D02*
G75*
G03*
X115238841Y-75370401I7195J-4263780D01*
G01*
X117726447Y-76387540D02*
G75*
G03*
X117414104Y-76019410I-1895947J-1292060D01*
G01*
X94230190Y-74665560D02*
X93849089Y-74654423D01*
X87566709Y-74404289D02*
X89007219Y-74404289D01*
X110610674Y-71944789D02*
X110500307Y-72016850D01*
X94686730Y-74952894D02*
G75*
G03*
X94674214Y-74949119I-12530J-18906D01*
G01*
X99876229Y-72891077D02*
G75*
G03*
X100038500Y-73138298I515771J161677D01*
G01*
X109354466Y-79909894D02*
G75*
G03*
X109381197Y-80050382I547534J31394D01*
G01*
X98888454Y-81705787D02*
X98888454Y-80347675D01*
X100454559Y-74855331D02*
G75*
G03*
X100695198Y-74907638I336641J969031D01*
G01*
X114559180Y-78584028D02*
G75*
G03*
X114743717Y-78940309I1370320J483828D01*
G01*
X109026292Y-80214755D02*
X109242090Y-80219544D01*
X107511870Y-74930266D02*
G75*
G03*
X107877595Y-74899704I57530J1515066D01*
G01*
X100414419Y-71883040D02*
G75*
G03*
X100276744Y-71945171I291781J-830160D01*
G01*
X122268715Y-76434776D02*
G75*
G03*
X122230985Y-76713540I2274785J-449824D01*
G01*
X102872108Y-73776286D02*
G75*
G03*
X103008678Y-74093288I1288492J367186D01*
G01*
X107481909Y-71825513D02*
G75*
G03*
X107222676Y-71921368I283691J-1165687D01*
G01*
X102412151Y-73260225D02*
G75*
G03*
X102420723Y-73628524I2787249J-119375D01*
G01*
X103098504Y-75593009D02*
X103098504Y-75895546D01*
X125142751Y-79180292D02*
G75*
G03*
X125238414Y-78913273I-324751J266992D01*
G01*
X103008683Y-74093285D02*
G75*
G03*
X103214976Y-74341661I886917J526785D01*
G01*
X117164265Y-75808481D02*
G75*
G03*
X116903444Y-75641575I-1299665J-1743719D01*
G01*
X100216386Y-81580313D02*
G75*
G03*
X100566156Y-81819254I1194114J1372513D01*
G01*
X99752714Y-78915031D02*
G75*
G03*
X99891366Y-79216697I2520186J975631D01*
G01*
X87149844Y-77842874D02*
X87358277Y-78055252D01*
X104818803Y-73266888D02*
G75*
G03*
X104656922Y-72636414I-1679503J-95212D01*
G01*
X111815784Y-74775764D02*
X111815784Y-74057579D01*
X94451342Y-78564809D02*
X93014730Y-78564809D01*
X102699619Y-72352936D02*
G75*
G03*
X102538051Y-72621209I1060481J-821464D01*
G01*
X111844407Y-78786925D02*
G75*
G03*
X111898782Y-79070831I874493J20325D01*
G01*
X104068914Y-81182632D02*
G75*
G03*
X104221524Y-80841766I-1114414J703532D01*
G01*
X100038495Y-73138303D02*
G75*
G03*
X100368602Y-73332777I698705J808603D01*
G01*
X102848260Y-73054740D02*
G75*
G03*
X102816558Y-73419569I1522140J-316060D01*
G01*
X109884114Y-74825294D02*
X110057469Y-74825294D01*
X98471589Y-78564809D02*
X97055583Y-78564809D01*
X101849690Y-82104542D02*
X102352444Y-82097087D01*
X113159461Y-78055753D02*
X113175059Y-78274539D01*
X90642816Y-70993027D02*
X90421037Y-70788599D01*
X91211304Y-76466365D02*
X91213626Y-77299703D01*
X90815064Y-80318705D02*
X90815064Y-78931623D01*
X102070504Y-72684605D02*
G75*
G03*
X102065714Y-72596444I-710604J5605D01*
G01*
X102471704Y-76526159D02*
G75*
G03*
X102359751Y-76484416I-269404J-551541D01*
G01*
X115151259Y-79285377D02*
G75*
G03*
X115262908Y-79330773I244841J442177D01*
G01*
X100152053Y-76109980D02*
G75*
G03*
X99833172Y-76595511I1645847J-1428420D01*
G01*
X120692457Y-76726329D02*
G75*
G03*
X120377867Y-76950447I515443J-1056371D01*
G01*
X102153894Y-74262773D02*
G75*
G03*
X102176575Y-73884076I-691994J231473D01*
G01*
X109242090Y-80219544D02*
X109438323Y-80223869D01*
X104905095Y-78290523D02*
G75*
G03*
X104832370Y-78457428I1855705J-907877D01*
G01*
X101605807Y-73744076D02*
G75*
G03*
X101378251Y-73635059I-497007J-745424D01*
G01*
X107038723Y-72788968D02*
G75*
G03*
X107073877Y-72737494I-82623J94168D01*
G01*
X119981191Y-80243418D02*
X119997095Y-78896431D01*
X94693117Y-78030273D02*
X94876524Y-77842447D01*
X107755496Y-79975625D02*
X107854764Y-79909477D01*
X108326528Y-73375942D02*
X108471994Y-73347225D01*
X94876524Y-73979534D02*
X94876524Y-72596444D01*
X120377864Y-76950444D02*
G75*
G03*
X120152943Y-77264455I829836J-831956D01*
G01*
X103098504Y-75895546D02*
X103098504Y-76198083D01*
X109292406Y-74558644D02*
G75*
G03*
X109261833Y-74528834I-71606J-42856D01*
G01*
X116637223Y-76929862D02*
G75*
G03*
X116441318Y-76642921I-892123J-398738D01*
G01*
X107793640Y-77992290D02*
G75*
G03*
X107849199Y-77969829I-49540J202490D01*
G01*
X102420731Y-73628523D02*
G75*
G03*
X102481821Y-73934617I1446369J129523D01*
G01*
X118671372Y-80252974D02*
G75*
G03*
X118690511Y-80261076I19528J19474D01*
G01*
X125114589Y-76618962D02*
X125213649Y-76827669D01*
X95589376Y-78218099D02*
X97055508Y-78218099D01*
X108396327Y-74619464D02*
X108558544Y-74475766D01*
X101330127Y-74520230D02*
G75*
G03*
X101564383Y-74421377I-140327J659530D01*
G01*
X95589376Y-82081439D02*
X97055508Y-82081439D01*
X105697217Y-77651591D02*
G75*
G03*
X105426928Y-77765697I653483J-1925109D01*
G01*
X114571143Y-77067365D02*
G75*
G03*
X114458596Y-77646665I2577457J-801335D01*
G01*
X110295137Y-72192782D02*
X110087035Y-72412242D01*
X98888454Y-78989564D02*
X98680021Y-78777186D01*
X114924915Y-75422379D02*
G75*
G03*
X114341634Y-75648608I559085J-2306521D01*
G01*
X125826897Y-75740387D02*
G75*
G03*
X125592255Y-75594503I-903597J-1191713D01*
G01*
X106826720Y-72268324D02*
G75*
G03*
X106713935Y-72498168I775180J-522976D01*
G01*
X87149844Y-75076694D02*
X87149844Y-76459784D01*
X102927690Y-76997340D02*
G75*
G03*
X102590411Y-76594029I-844990J-363960D01*
G01*
X108157013Y-73406986D02*
X108326528Y-73375942D01*
X108044071Y-79860470D02*
X108057145Y-79923569D01*
X104085474Y-74526422D02*
G75*
G03*
X104202191Y-74498076I-116874J735722D01*
G01*
X116716115Y-78532407D02*
G75*
G03*
X116784945Y-77846624I-3382215J685807D01*
G01*
X87575026Y-82081439D02*
X89011638Y-82081439D01*
X108070096Y-79998501D02*
X108101348Y-80193942D01*
X101684941Y-72687529D02*
G75*
G03*
X101730829Y-72741223I138759J72129D01*
G01*
X112044085Y-79198229D02*
G75*
G03*
X112399443Y-79242466I397615J1744629D01*
G01*
X111898829Y-79070814D02*
G75*
G03*
X112044084Y-79198234I190371J70514D01*
G01*
X126464740Y-78220994D02*
G75*
G03*
X126290773Y-77963096I-993440J-482506D01*
G01*
X106411311Y-79402666D02*
G75*
G03*
X106624539Y-79458579I314089J763266D01*
G01*
X112806384Y-75493949D02*
X112311084Y-75493949D01*
X105567164Y-76930319D02*
X106203214Y-76930319D01*
X94195526Y-75413036D02*
X93681186Y-75922869D01*
X100283813Y-72699480D02*
G75*
G03*
X100339553Y-72827449I238087J27580D01*
G01*
X97055508Y-78218099D02*
X98521640Y-78218099D01*
X93014730Y-78564809D02*
X91578118Y-78564809D01*
X118662964Y-80232814D02*
G75*
G03*
X118671390Y-80252956I29036J314D01*
G01*
X100231366Y-79678413D02*
G75*
G03*
X100859229Y-80054438I1265534J1400913D01*
G01*
X101140886Y-78784791D02*
G75*
G03*
X101326842Y-78986195I729814J487291D01*
G01*
X105638338Y-70850838D02*
X105634511Y-71425916D01*
X104221524Y-80841766D02*
G75*
G03*
X104298211Y-80423846I-2103424J601966D01*
G01*
X124532725Y-77253346D02*
X124100544Y-77141641D01*
X113175059Y-77418709D02*
X113159461Y-77637495D01*
X100301574Y-72463341D02*
G75*
G03*
X100283809Y-72699480I602426J-164059D01*
G01*
X102742998Y-82041992D02*
G75*
G03*
X103143998Y-81912115I-526698J2310192D01*
G01*
X91211304Y-81714625D02*
X91399130Y-81898032D01*
X114462072Y-78145365D02*
G75*
G03*
X114559171Y-78584031I1844328J178165D01*
G01*
X119939074Y-76410254D02*
X119938889Y-75976866D01*
X95269373Y-71217253D02*
X95269516Y-72621074D01*
X124037856Y-75353387D02*
G75*
G03*
X123512578Y-75421433I136844J-3117813D01*
G01*
X107840213Y-73120509D02*
X107576513Y-73163311D01*
X111811304Y-76335959D02*
X112308844Y-76335959D01*
X118084129Y-78274539D02*
X118099727Y-78055753D01*
X102296635Y-81222762D02*
G75*
G03*
X102504036Y-81171656I-99835J851562D01*
G01*
X110389328Y-72103532D02*
G75*
G03*
X110295137Y-72192782I785072J-922868D01*
G01*
X94838226Y-75123295D02*
G75*
G03*
X94785946Y-75031091I-165126J-32705D01*
G01*
X109685994Y-75914954D02*
X109685994Y-76335959D01*
X98471589Y-70838129D02*
X97055583Y-70838129D01*
X106690955Y-72749572D02*
G75*
G03*
X106756906Y-72802351I93845J49672D01*
G01*
X104957656Y-79683253D02*
G75*
G03*
X105442342Y-80119009I984444J607553D01*
G01*
X103098504Y-79458562D02*
X103098228Y-79915608D01*
X108590691Y-73415504D02*
G75*
G03*
X108569748Y-73339579I-211891J-17596D01*
G01*
X109314518Y-74677382D02*
G75*
G03*
X109309329Y-74606079I-490018J182D01*
G01*
X95269516Y-76484414D02*
X95269659Y-77888235D01*
X108945807Y-72405339D02*
G75*
G03*
X108860906Y-72196384I-615007J-128161D01*
G01*
X101384366Y-76601426D02*
G75*
G03*
X101208778Y-76775083I956934J-1143174D01*
G01*
X123531182Y-78069170D02*
X123820351Y-78143088D01*
X102234796Y-79173582D02*
G75*
G03*
X102550551Y-79039924I-278396J1097482D01*
G01*
X107829531Y-79026717D02*
G75*
G03*
X107903515Y-78867951I-601931J377117D01*
G01*
X116622269Y-75513837D02*
G75*
G03*
X116311580Y-75420033I-914369J-2467063D01*
G01*
X104932202Y-76769347D02*
X104931114Y-76930319D01*
X103143998Y-81912115D02*
G75*
G03*
X103519973Y-81712217I-966698J2271715D01*
G01*
X106045539Y-74825294D02*
X106045539Y-72794564D01*
X102065727Y-72596442D02*
G75*
G03*
X101909833Y-72216193I-758427J-88858D01*
G01*
X100155839Y-73955836D02*
G75*
G03*
X100122850Y-73908712I-100239J-35064D01*
G01*
X103379085Y-72261119D02*
G75*
G03*
X103042501Y-72577225I454115J-820781D01*
G01*
X111191928Y-71926167D02*
G75*
G03*
X111172767Y-71879337I-86928J-8233D01*
G01*
X106412979Y-78319217D02*
G75*
G03*
X106217382Y-78471517I298321J-584883D01*
G01*
X102359750Y-76484421D02*
G75*
G03*
X102226926Y-76460341I-216050J-813379D01*
G01*
X100992804Y-81995801D02*
G75*
G03*
X101354629Y-82071111I568796J1825901D01*
G01*
X94304724Y-75074578D02*
X94532620Y-74812692D01*
X107903976Y-74522764D02*
G75*
G03*
X108090625Y-74458639I-129476J680564D01*
G01*
X125866437Y-79990466D02*
G75*
G03*
X126144877Y-79758794I-1080737J1582066D01*
G01*
X91399130Y-81898032D02*
X91586956Y-82081439D01*
X105859403Y-70748438D02*
G75*
G03*
X105778028Y-70745884I-65603J-792562D01*
G01*
X108101348Y-80193942D02*
X108769929Y-80209003D01*
X103044005Y-80542976D02*
G75*
G03*
X103085596Y-80286045I-1358105J351676D01*
G01*
X94452620Y-74685584D02*
X94230190Y-74665560D01*
X98888454Y-75126224D02*
X98680021Y-74913846D01*
X104954413Y-76614128D02*
G75*
G03*
X104932202Y-76769347I558187J-159072D01*
G01*
X93681186Y-75922869D02*
X93074345Y-76528411D01*
X99894842Y-72332200D02*
G75*
G03*
X99861724Y-72431960I440158J-201500D01*
G01*
X101895485Y-79206048D02*
G75*
G03*
X102234794Y-79173574I64415J1115848D01*
G01*
X102176583Y-73884074D02*
G75*
G03*
X102006540Y-73542457I-730583J-150526D01*
G01*
X87566709Y-70788599D02*
X87358277Y-71000976D01*
X98888454Y-73979107D02*
X98888454Y-72620995D01*
X115626339Y-76335990D02*
G75*
G03*
X115154233Y-76419876I261J-1371910D01*
G01*
X111147129Y-74057579D02*
X110478474Y-74057579D01*
X111048069Y-71842130D02*
G75*
G03*
X110977110Y-71842749I-31869J-414270D01*
G01*
X91906197Y-78204966D02*
X92357087Y-78215166D01*
X108471992Y-73347216D02*
G75*
G03*
X108491803Y-73336610I-7392J37616D01*
G01*
X95269373Y-75080593D02*
X95269516Y-76484414D01*
X103807852Y-71784587D02*
G75*
G03*
X103469979Y-71825513I3448J-1443613D01*
G01*
X122668066Y-77725393D02*
G75*
G03*
X122870188Y-77851293I814734J1082793D01*
G01*
X101428678Y-73218798D02*
X101048718Y-73121122D01*
X100064601Y-74604410D02*
G75*
G03*
X100256609Y-74757615I939399J980410D01*
G01*
X91419737Y-74864316D02*
X91211304Y-75076694D01*
X108596333Y-72708343D02*
G75*
G03*
X108520123Y-72437105I-520633J43D01*
G01*
X123114138Y-75543184D02*
G75*
G03*
X122780508Y-75721083I635562J-1593716D01*
G01*
X87149844Y-72596444D02*
X87149844Y-73979534D01*
X110883847Y-72279462D02*
X111084888Y-72223337D01*
X91394711Y-78752635D02*
X91211304Y-78940461D01*
X101761182Y-74057579D02*
G75*
G03*
X101720022Y-73875858I-421382J79D01*
G01*
X103566651Y-74907944D02*
G75*
G03*
X103872797Y-74923434I234649J1604544D01*
G01*
X107860624Y-75395011D02*
X107335565Y-75369303D01*
X90815064Y-81705787D02*
X90815064Y-80318705D01*
X107803868Y-71784088D02*
G75*
G03*
X107481909Y-71825513I25032J-1466412D01*
G01*
X106141513Y-77545027D02*
X105890122Y-77596716D01*
X102805324Y-74475332D02*
G75*
G03*
X103043874Y-74697635I1335376J1193832D01*
G01*
X119336523Y-80258506D02*
X119981191Y-80243418D01*
X105847419Y-74825294D02*
X106045539Y-74825294D01*
X108471417Y-72979793D02*
G75*
G03*
X108563656Y-72876321I-98317J180493D01*
G01*
X109685994Y-76335959D02*
X110078592Y-76335959D01*
X95639578Y-70838129D02*
X95454476Y-71027691D01*
X109114469Y-76030539D02*
G75*
G03*
X108947124Y-75844501I-848169J-594661D01*
G01*
X94826994Y-80343201D02*
X94826994Y-78931623D01*
X87566709Y-74651939D02*
X87358277Y-74864316D01*
X107576513Y-73163311D02*
X107336163Y-73212822D01*
X94674214Y-74949143D02*
G75*
G03*
X94659475Y-74955166I86J-21257D01*
G01*
X104784625Y-78742401D02*
X104789916Y-79000534D01*
X111844421Y-78786925D02*
X111825927Y-77696343D01*
X99658146Y-78609727D02*
G75*
G03*
X99752714Y-78915031I2257054J531827D01*
G01*
X126558203Y-78515116D02*
G75*
G03*
X126464747Y-78220990I-1056503J-173784D01*
G01*
X108021161Y-74860754D02*
G75*
G03*
X108142603Y-74807937I-248961J738454D01*
G01*
X123561780Y-76781662D02*
G75*
G03*
X123654777Y-76921382I318320J111062D01*
G01*
X105037225Y-78080549D02*
G75*
G03*
X104905095Y-78290523I915175J-722451D01*
G01*
X109354458Y-79909894D02*
X109331244Y-79449354D01*
X122337800Y-76225675D02*
G75*
G03*
X122268717Y-76434776I804100J-381625D01*
G01*
X91161774Y-72621036D02*
X91161774Y-73979534D01*
X106398398Y-76487730D02*
G75*
G03*
X106259479Y-76742525I534102J-456470D01*
G01*
X107968090Y-76710259D02*
G75*
G03*
X107899439Y-76525800I-499890J-81041D01*
G01*
X118034142Y-78607829D02*
G75*
G03*
X118061414Y-78472056I-1082842J288129D01*
G01*
X125114594Y-76618960D02*
G75*
G03*
X124988175Y-76435333I-632094J-299840D01*
G01*
X95454476Y-74891031D02*
X95269373Y-75080593D01*
X111084889Y-72223339D02*
G75*
G03*
X111155883Y-72185900I-58489J196939D01*
G01*
X102006538Y-73542459D02*
G75*
G03*
X101860493Y-73411065I-629238J-552541D01*
G01*
X90864594Y-72588495D02*
X90864594Y-71197455D01*
X108025386Y-79803066D02*
G75*
G03*
X108015776Y-79805849I14J-18034D01*
G01*
X104401146Y-74390457D02*
G75*
G03*
X104730681Y-73929002I-583746J765257D01*
G01*
X120426365Y-75779925D02*
G75*
G03*
X120221744Y-75984542I995535J-1200175D01*
G01*
X107079948Y-74370078D02*
G75*
G03*
X107232875Y-74493706I316152J234678D01*
G01*
X97055583Y-74701469D02*
X95639578Y-74701469D01*
X95269516Y-80347754D02*
X95269659Y-81751575D01*
X100920855Y-77379321D02*
G75*
G03*
X100881704Y-77749515I1736145J-370779D01*
G01*
X98705047Y-78030273D02*
X98888454Y-77842447D01*
X107138062Y-73263746D02*
G75*
G03*
X107021127Y-73309653I175238J-618254D01*
G01*
X87358277Y-74864316D02*
X87149844Y-75076694D01*
X102481824Y-73934616D02*
G75*
G03*
X102606213Y-74207751I1171476J368616D01*
G01*
X105230031Y-73018531D02*
G75*
G03*
X105052739Y-72515575I-1720831J-323869D01*
G01*
X101620491Y-72553209D02*
X101684964Y-72687517D01*
X90627238Y-78748216D02*
X90439412Y-78564809D01*
X118650924Y-75543479D02*
X118650924Y-77887899D01*
X116749262Y-77322067D02*
G75*
G03*
X116637232Y-76929858I-1425362J-195033D01*
G01*
X111483040Y-80212646D02*
X112013904Y-80222903D01*
X106862000Y-74731624D02*
G75*
G03*
X107157728Y-74870492I631700J960924D01*
G01*
X110471190Y-76335959D02*
X110487214Y-77933301D01*
X123386720Y-78895899D02*
X123322242Y-78706925D01*
X105778028Y-70745891D02*
G75*
G03*
X105714946Y-70753832I5772J-300409D01*
G01*
X102393777Y-75594494D02*
G75*
G03*
X102098215Y-75504816I-551577J-1286006D01*
G01*
X104832363Y-78457425D02*
G75*
G03*
X104796894Y-78588763I617337J-237175D01*
G01*
X107984464Y-78338835D02*
X107950810Y-78659008D01*
X107903522Y-78867953D02*
G75*
G03*
X107950810Y-78659008I-1137022J367153D01*
G01*
X109421582Y-80172679D02*
X109403116Y-80116752D01*
X107575241Y-73509851D02*
G75*
G03*
X107321606Y-73581216I374459J-1817249D01*
G01*
X95269659Y-74024895D02*
X95429518Y-74189827D01*
X116129725Y-79264233D02*
G75*
G03*
X116501025Y-78996910I-279425J779633D01*
G01*
X91213626Y-77299703D02*
X91225192Y-77650974D01*
X108156538Y-71808485D02*
G75*
G03*
X107803868Y-71784097I-317538J-2029715D01*
G01*
X109284098Y-74805126D02*
G75*
G03*
X109307953Y-74763541I-41998J51726D01*
G01*
X94862580Y-75310589D02*
G75*
G03*
X94838215Y-75123297I-1410880J-88311D01*
G01*
X109027715Y-74310790D02*
G75*
G03*
X109094876Y-74445219I281385J56590D01*
G01*
X105442339Y-80119016D02*
G75*
G03*
X106193999Y-80331444I989361J2064716D01*
G01*
X107320618Y-76213526D02*
G75*
G03*
X106944024Y-76213497I-188418J-1622374D01*
G01*
X103286121Y-74834308D02*
G75*
G03*
X103566651Y-74907944I468779J1214708D01*
G01*
X91300016Y-77936254D02*
G75*
G03*
X91396538Y-77941778I51684J57054D01*
G01*
X107150999Y-73664417D02*
G75*
G03*
X107039451Y-73770700I208001J-329983D01*
G01*
X107381978Y-79414582D02*
G75*
G03*
X107547308Y-79324300I-234678J626282D01*
G01*
X101680026Y-73309001D02*
G75*
G03*
X101428678Y-73218798I-770826J-1752599D01*
G01*
X100181013Y-74047226D02*
G75*
G03*
X100273793Y-74265759I581987J118126D01*
G01*
X109438422Y-80223733D02*
G75*
G03*
X109438323Y-80223869I1178J-967D01*
G01*
X98521640Y-78218099D02*
X98705047Y-78030273D01*
X87566188Y-78564809D02*
X87382781Y-78752635D01*
X123486660Y-79091458D02*
G75*
G03*
X123639856Y-79255698I682840J483358D01*
G01*
X104789916Y-79000534D02*
X104805058Y-79252685D01*
X99963577Y-73868818D02*
G75*
G03*
X99822176Y-73876798I-42277J-507582D01*
G01*
X91161774Y-73979534D02*
X91370207Y-74191912D01*
X102925513Y-72115993D02*
G75*
G03*
X102699620Y-72352937I1038387J-1216107D01*
G01*
X111198459Y-80174274D02*
G75*
G03*
X111483040Y-80212646I339541J1443674D01*
G01*
X102053446Y-72725191D02*
G75*
G03*
X102070507Y-72684605I-40946J41091D01*
G01*
X106203214Y-76930319D02*
X106259479Y-76742525D01*
X118061414Y-78472056D02*
X118084129Y-78274539D01*
X104280606Y-72262194D02*
G75*
G03*
X103812243Y-72153182I-487906J-1035606D01*
G01*
X103098504Y-76198083D02*
X102877077Y-75951802D01*
X110083632Y-73908989D02*
X110111576Y-73256676D01*
X100256617Y-74757604D02*
G75*
G03*
X100454558Y-74855334I490683J744504D01*
G01*
X87566709Y-78267629D02*
X89007219Y-78267629D01*
X108645849Y-74519929D02*
G75*
G03*
X108637032Y-74456274I-233249J129D01*
G01*
X101407320Y-81109178D02*
G75*
G03*
X101681006Y-81205610I453280J849878D01*
G01*
X108998476Y-74042101D02*
G75*
G03*
X109027701Y-74310793I1506324J27901D01*
G01*
X91578639Y-74404289D02*
X93019149Y-74404289D01*
X117741189Y-79282786D02*
G75*
G03*
X118034145Y-78607830I-2095289J1310486D01*
G01*
X101564388Y-74421384D02*
G75*
G03*
X101708908Y-74263097I-248588J372084D01*
G01*
X102010247Y-72747078D02*
G75*
G03*
X102053434Y-72725178I-12447J78078D01*
G01*
X99775150Y-80634166D02*
G75*
G03*
X99739667Y-80716191I41950J-66834D01*
G01*
X107335565Y-75369303D02*
X106811739Y-75364194D01*
X110082234Y-75493949D02*
X109685994Y-75493949D01*
X108947123Y-75844502D02*
G75*
G03*
X108713291Y-75670342I-1244023J-1426198D01*
G01*
X110078592Y-76335959D02*
X110471190Y-76335959D01*
X87199374Y-81714625D02*
X87387200Y-81898032D01*
X107610417Y-72179061D02*
G75*
G03*
X107416309Y-72239478I236183J-1100839D01*
G01*
X109710759Y-74825294D02*
X109884114Y-74825294D01*
X104450366Y-74782925D02*
G75*
G03*
X104667040Y-74655341I-716166J1464025D01*
G01*
X108703566Y-72016579D02*
G75*
G03*
X108478498Y-71888743I-458066J-544421D01*
G01*
X109403116Y-80116752D02*
X109381197Y-80050382D01*
X103090459Y-77631926D02*
G75*
G03*
X102927710Y-76997331I-2101059J-200674D01*
G01*
X94668091Y-74191912D02*
X94876524Y-73979534D01*
X90448250Y-82081439D02*
X90631657Y-81893613D01*
X126401781Y-76778390D02*
G75*
G03*
X126430229Y-76678284I-65081J72590D01*
G01*
X98705047Y-81893613D02*
X98888454Y-81705787D01*
X100695198Y-74907635D02*
G75*
G03*
X101013174Y-74919359I261902J2785235D01*
G01*
X108535406Y-73318344D02*
G75*
G03*
X108491803Y-73336610I494J-62356D01*
G01*
X111815784Y-74057579D02*
X111147129Y-74057579D01*
X107547308Y-79324301D02*
G75*
G03*
X107714026Y-79175973I-777808J1042101D01*
G01*
X94715762Y-74973198D02*
X94686725Y-74952901D01*
X91586956Y-82081439D02*
X93048669Y-82081439D01*
X100614541Y-72192052D02*
G75*
G03*
X100409640Y-72293300I99759J-459848D01*
G01*
X101553631Y-76500704D02*
G75*
G03*
X101384360Y-76601419I226569J-573396D01*
G01*
X90656161Y-78055252D02*
X90864594Y-77842874D01*
X103519979Y-81712226D02*
G75*
G03*
X103838732Y-81462063I-1220679J1883526D01*
G01*
X91995451Y-77405741D02*
X92992805Y-76411834D01*
X99637860Y-77168025D02*
G75*
G03*
X99594798Y-77483563I2093940J-446475D01*
G01*
X125820392Y-76829464D02*
X126286117Y-76824354D01*
X107222676Y-71921368D02*
G75*
G03*
X106999763Y-72072057I489024J-963632D01*
G01*
X124498826Y-79483063D02*
G75*
G03*
X124880664Y-79383285I-84626J1104363D01*
G01*
X106523120Y-78274941D02*
G75*
G03*
X106412979Y-78319217I191880J-636459D01*
G01*
X119087921Y-80262801D02*
X119336523Y-80258506D01*
X103098228Y-79915608D02*
X103085596Y-80286045D01*
X90631657Y-81893613D02*
X90815064Y-81705787D01*
X95269373Y-78943933D02*
X95269516Y-80347754D01*
X103688152Y-74550511D02*
G75*
G03*
X103937476Y-74543509I45348J2827711D01*
G01*
X108479723Y-74109432D02*
G75*
G03*
X108567517Y-73865308I-700123J389632D01*
G01*
X106074172Y-78921855D02*
G75*
G03*
X106145437Y-79160790I665028J68255D01*
G01*
X100409639Y-72293298D02*
G75*
G03*
X100301575Y-72463341I220361J-259402D01*
G01*
X102538050Y-72621209D02*
G75*
G03*
X102451627Y-72900218I1069250J-484091D01*
G01*
X120221747Y-75984544D02*
G75*
G03*
X120042999Y-76236899I1561553J-1295556D01*
G01*
X106719822Y-78219838D02*
X106950647Y-78165018D01*
X102504034Y-81171651D02*
G75*
G03*
X102675350Y-81076323I-249034J649151D01*
G01*
X101354629Y-82071111D02*
X101849690Y-82104542D01*
X104085474Y-74526424D02*
X103937476Y-74543509D01*
X108057145Y-79923569D02*
X108070096Y-79998501D01*
X100056717Y-79482555D02*
G75*
G03*
X100231371Y-79678407I991583J708455D01*
G01*
X102836538Y-80926212D02*
G75*
G03*
X102964847Y-80742887I-767038J673412D01*
G01*
X108323766Y-74301293D02*
G75*
G03*
X108479733Y-74109437I-465066J537393D01*
G01*
X95269659Y-77888235D02*
X95429518Y-78053167D01*
X98680021Y-71050506D02*
X98471589Y-70838129D01*
X95429518Y-78053167D02*
X95589376Y-78218099D01*
X123660074Y-76368761D02*
G75*
G03*
X123547502Y-76550076I197526J-248239D01*
G01*
X105452362Y-75831359D02*
G75*
G03*
X105231012Y-76048838I737038J-971541D01*
G01*
X122870188Y-77851293D02*
G75*
G03*
X123007152Y-77909056I480812J948793D01*
G01*
X104336754Y-75593009D02*
X103717629Y-75593009D01*
X122491772Y-77566372D02*
G75*
G03*
X122668064Y-77725396I982328J911772D01*
G01*
X118650924Y-77887899D02*
X118652396Y-78788277D01*
X121774373Y-76634364D02*
X121760461Y-76027009D01*
X105120605Y-76214857D02*
G75*
G03*
X105023552Y-76415672I1706995J-948843D01*
G01*
X106999767Y-72072061D02*
G75*
G03*
X106826727Y-72268329I670133J-765239D01*
G01*
X101363607Y-72251714D02*
G75*
G03*
X101170755Y-72182182I-304407J-542086D01*
G01*
X111187572Y-72131815D02*
G75*
G03*
X111196659Y-72025582I-615072J106115D01*
G01*
X123248718Y-77987388D02*
X123531182Y-78069170D01*
X105633168Y-72080054D02*
X105636337Y-72844176D01*
X97055508Y-82081439D02*
X98521640Y-82081439D01*
X99957596Y-81289081D02*
G75*
G03*
X100216382Y-81580317I1257604J856881D01*
G01*
X115262908Y-79330774D02*
G75*
G03*
X115390020Y-79351501I161592J590874D01*
G01*
X107764457Y-76376158D02*
G75*
G03*
X107568004Y-76270206I-426957J-556542D01*
G01*
X89007219Y-74404289D02*
X90447729Y-74404289D01*
X105671053Y-70771322D02*
G75*
G03*
X105648322Y-70798050I26747J-45778D01*
G01*
X101549104Y-75459946D02*
X101372145Y-75468706D01*
X90864594Y-73979534D02*
X90864594Y-72588495D01*
X90864594Y-77842874D02*
X90864594Y-76459784D01*
X92441039Y-77167947D02*
X91945850Y-77682255D01*
X105649299Y-74825294D02*
X105847419Y-74825294D01*
X101938571Y-74602618D02*
G75*
G03*
X102153894Y-74262773I-580471J605918D01*
G01*
X104467827Y-71937495D02*
G75*
G03*
X104149237Y-71823201I-646027J-1299605D01*
G01*
X108277297Y-73048698D02*
G75*
G03*
X108471422Y-72979802I-119197J643798D01*
G01*
X118690511Y-80261076D02*
X118875215Y-80263100D01*
X123322242Y-78706925D02*
X122720124Y-78697779D01*
X102451631Y-72900219D02*
G75*
G03*
X102412157Y-73260225I2685069J-476581D01*
G01*
X93044122Y-70788599D02*
X91628585Y-70788599D01*
X111196660Y-72025582D02*
G75*
G03*
X111191913Y-71926168I-1041660J82D01*
G01*
X118652396Y-78788277D02*
X118656936Y-79549708D01*
X108031564Y-79807912D02*
G75*
G03*
X108025386Y-79803059I-6164J-1488D01*
G01*
X104202192Y-74498078D02*
G75*
G03*
X104302903Y-74454299I-190292J575478D01*
G01*
X97055508Y-74354759D02*
X98521640Y-74354759D01*
X104981244Y-74320927D02*
G75*
G03*
X105108007Y-74082344I-1764044J1090227D01*
G01*
X115154233Y-76419876D02*
G75*
G03*
X114801659Y-76659675I301867J-822924D01*
G01*
X107232872Y-74493712D02*
G75*
G03*
X107413252Y-74543035I242628J532812D01*
G01*
X121077899Y-76608264D02*
G75*
G03*
X120692462Y-76726340I181601J-1280936D01*
G01*
X124815288Y-76310119D02*
G75*
G03*
X124581882Y-76238981I-352588J-738381D01*
G01*
X112013904Y-80222903D02*
X112781619Y-80224064D01*
X107178055Y-72450972D02*
G75*
G03*
X107110380Y-72621410I703345J-377928D01*
G01*
X101072447Y-80731656D02*
X101020696Y-80595539D01*
X90447729Y-74404289D02*
X90656161Y-74191912D01*
X106217395Y-78471529D02*
G75*
G03*
X106098950Y-78681473I443105J-388371D01*
G01*
X110253123Y-72705427D02*
G75*
G03*
X110160159Y-72925970I619677J-391073D01*
G01*
X124070801Y-79455590D02*
G75*
G03*
X124498827Y-79483076I311199J1499690D01*
G01*
X90864594Y-76459784D02*
X90864594Y-75076694D01*
X103517886Y-74525781D02*
G75*
G03*
X103688152Y-74550507I181114J648581D01*
G01*
X93897391Y-75502495D02*
X94304724Y-75074578D01*
X121508607Y-76603128D02*
X121774373Y-76634364D01*
X116642479Y-80162800D02*
G75*
G03*
X117271729Y-79810095I-751279J2078000D01*
G01*
X110478474Y-74775764D02*
X110478474Y-75493949D01*
X90864594Y-71197455D02*
X90642816Y-70993027D01*
X107845162Y-77149703D02*
G75*
G03*
X107957396Y-76959394I-267662J286103D01*
G01*
X126214185Y-76149916D02*
G75*
G03*
X126040674Y-75932121I-1372585J-915484D01*
G01*
X115994680Y-75369151D02*
G75*
G03*
X115616305Y-75353020I-371080J-4258449D01*
G01*
X107960031Y-73439640D02*
X108157013Y-73406986D01*
X87382781Y-78752635D02*
X87199374Y-78940461D01*
X109309333Y-74606078D02*
G75*
G03*
X109292400Y-74558648I-127333J-18722D01*
G01*
X118064141Y-77277991D02*
G75*
G03*
X117940762Y-76799374I-2246541J-323909D01*
G01*
X103717629Y-75593009D02*
X103098504Y-75593009D01*
X101098729Y-71789190D02*
G75*
G03*
X100597239Y-71827539I-142529J-1434310D01*
G01*
X91529790Y-78162874D02*
G75*
G03*
X91576402Y-78190498I49610J30574D01*
G01*
X94874222Y-75652452D02*
X94862576Y-75310589D01*
X112781619Y-79737766D02*
X112781619Y-79251468D01*
X91628585Y-70788599D02*
X91395180Y-71025568D01*
X106675435Y-72655057D02*
G75*
G03*
X106690923Y-72749589I148265J-24243D01*
G01*
X101737653Y-75463076D02*
X101549104Y-75459946D01*
X112806384Y-75914954D02*
X112806384Y-75493949D01*
X98521640Y-74354759D02*
X98705047Y-74166933D01*
X108713291Y-75670342D02*
G75*
G03*
X108447295Y-75529243I-1066491J-1689258D01*
G01*
X95269659Y-81751575D02*
X95429518Y-81916507D01*
X108983840Y-72732193D02*
G75*
G03*
X108945807Y-72405339I-1836940J-48107D01*
G01*
X103469980Y-71825519D02*
G75*
G03*
X103191077Y-71933277I272720J-1120681D01*
G01*
X101755879Y-76453487D02*
G75*
G03*
X101553635Y-76500714I58321J-706413D01*
G01*
X108939154Y-74825478D02*
G75*
G03*
X109113714Y-74840051I133446J545678D01*
G01*
X102964845Y-80742886D02*
G75*
G03*
X103044009Y-80542977I-765045J418586D01*
G01*
X100273781Y-74265767D02*
G75*
G03*
X100443369Y-74425394I454219J312667D01*
G01*
X110087035Y-72412242D02*
X110072252Y-72157633D01*
X124988175Y-76435333D02*
G75*
G03*
X124815291Y-76310113I-428075J-409067D01*
G01*
X118099727Y-78055753D02*
X118104918Y-77846624D01*
X103812243Y-72153176D02*
G75*
G03*
X103379072Y-72261096I-14643J-864524D01*
G01*
X100566159Y-81819248D02*
G75*
G03*
X100992805Y-81995796I1188341J2267948D01*
G01*
X109331244Y-79449354D02*
X109310669Y-78847618D01*
X111132451Y-71854489D02*
G75*
G03*
X111048069Y-71842126I-131651J-604411D01*
G01*
X114967032Y-80269499D02*
G75*
G03*
X115883838Y-80328362I657368J3069499D01*
G01*
X103052333Y-78304669D02*
G75*
G03*
X103090447Y-77631927I-2180233J460969D01*
G01*
X102816564Y-73419569D02*
G75*
G03*
X102872109Y-73776286I1468436J45969D01*
G01*
X109884114Y-71903024D02*
X109710759Y-71903024D01*
X116784948Y-77846624D02*
G75*
G03*
X116749250Y-77322069I-3869948J124D01*
G01*
X113197774Y-77221192D02*
X113175059Y-77418709D01*
X94532545Y-74729535D02*
G75*
G03*
X94452620Y-74685584I-95745J-79465D01*
G01*
X100692822Y-74521366D02*
G75*
G03*
X101019909Y-74552879I327078J1681666D01*
G01*
D11*
X94583714Y-63714380D02*
X94583714Y-64523904D01*
X94631333Y-64619142D01*
X94678952Y-64666761D01*
X94774190Y-64714380D01*
X94964666Y-64714380D01*
X95059904Y-64666761D01*
X95107523Y-64619142D01*
X95155142Y-64523904D01*
X95155142Y-63714380D01*
X95583714Y-64666761D02*
X95726571Y-64714380D01*
X95964666Y-64714380D01*
X96059904Y-64666761D01*
X96107523Y-64619142D01*
X96155142Y-64523904D01*
X96155142Y-64428666D01*
X96107523Y-64333428D01*
X96059904Y-64285809D01*
X95964666Y-64238190D01*
X95774190Y-64190571D01*
X95678952Y-64142952D01*
X95631333Y-64095333D01*
X95583714Y-64000095D01*
X95583714Y-63904857D01*
X95631333Y-63809619D01*
X95678952Y-63762000D01*
X95774190Y-63714380D01*
X96012285Y-63714380D01*
X96155142Y-63762000D01*
X96917047Y-64190571D02*
X97059904Y-64238190D01*
X97107523Y-64285809D01*
X97155142Y-64381047D01*
X97155142Y-64523904D01*
X97107523Y-64619142D01*
X97059904Y-64666761D01*
X96964666Y-64714380D01*
X96583714Y-64714380D01*
X96583714Y-63714380D01*
X96917047Y-63714380D01*
X97012285Y-63762000D01*
X97059904Y-63809619D01*
X97107523Y-63904857D01*
X97107523Y-64000095D01*
X97059904Y-64095333D01*
X97012285Y-64142952D01*
X96917047Y-64190571D01*
X96583714Y-64190571D01*
X98345619Y-64714380D02*
X98345619Y-63714380D01*
X98726571Y-63714380D01*
X98821809Y-63762000D01*
X98869428Y-63809619D01*
X98917047Y-63904857D01*
X98917047Y-64047714D01*
X98869428Y-64142952D01*
X98821809Y-64190571D01*
X98726571Y-64238190D01*
X98345619Y-64238190D01*
X99869428Y-63762000D02*
X99774190Y-63714380D01*
X99631333Y-63714380D01*
X99488476Y-63762000D01*
X99393238Y-63857238D01*
X99345619Y-63952476D01*
X99298000Y-64142952D01*
X99298000Y-64285809D01*
X99345619Y-64476285D01*
X99393238Y-64571523D01*
X99488476Y-64666761D01*
X99631333Y-64714380D01*
X99726571Y-64714380D01*
X99869428Y-64666761D01*
X99917047Y-64619142D01*
X99917047Y-64285809D01*
X99726571Y-64285809D01*
X100917047Y-64714380D02*
X100583714Y-64238190D01*
X100345619Y-64714380D02*
X100345619Y-63714380D01*
X100726571Y-63714380D01*
X100821809Y-63762000D01*
X100869428Y-63809619D01*
X100917047Y-63904857D01*
X100917047Y-64047714D01*
X100869428Y-64142952D01*
X100821809Y-64190571D01*
X100726571Y-64238190D01*
X100345619Y-64238190D01*
X101345619Y-64714380D02*
X101345619Y-63714380D01*
X101678952Y-64428666D01*
X102012285Y-63714380D01*
X102012285Y-64714380D01*
X89812904Y-64714380D02*
X89479571Y-64238190D01*
X89241476Y-64714380D02*
X89241476Y-63714380D01*
X89622428Y-63714380D01*
X89717666Y-63762000D01*
X89765285Y-63809619D01*
X89812904Y-63904857D01*
X89812904Y-64047714D01*
X89765285Y-64142952D01*
X89717666Y-64190571D01*
X89622428Y-64238190D01*
X89241476Y-64238190D01*
X90241476Y-63714380D02*
X90241476Y-64523904D01*
X90289095Y-64619142D01*
X90336714Y-64666761D01*
X90431952Y-64714380D01*
X90622428Y-64714380D01*
X90717666Y-64666761D01*
X90765285Y-64619142D01*
X90812904Y-64523904D01*
X90812904Y-63714380D01*
X91289095Y-64714380D02*
X91289095Y-63714380D01*
X91860523Y-64714380D01*
X91860523Y-63714380D01*
X148906190Y-139402380D02*
X148906190Y-138402380D01*
X149239523Y-139116666D01*
X149572857Y-138402380D01*
X149572857Y-139402380D01*
X150620476Y-139307142D02*
X150572857Y-139354761D01*
X150430000Y-139402380D01*
X150334761Y-139402380D01*
X150191904Y-139354761D01*
X150096666Y-139259523D01*
X150049047Y-139164285D01*
X150001428Y-138973809D01*
X150001428Y-138830952D01*
X150049047Y-138640476D01*
X150096666Y-138545238D01*
X150191904Y-138450000D01*
X150334761Y-138402380D01*
X150430000Y-138402380D01*
X150572857Y-138450000D01*
X150620476Y-138497619D01*
X151810952Y-139402380D02*
X151810952Y-138402380D01*
X152287142Y-138735714D02*
X152287142Y-139402380D01*
X152287142Y-138830952D02*
X152334761Y-138783333D01*
X152430000Y-138735714D01*
X152572857Y-138735714D01*
X152668095Y-138783333D01*
X152715714Y-138878571D01*
X152715714Y-139402380D01*
X153620476Y-139402380D02*
X153620476Y-138402380D01*
X153620476Y-139354761D02*
X153525238Y-139402380D01*
X153334761Y-139402380D01*
X153239523Y-139354761D01*
X153191904Y-139307142D01*
X153144285Y-139211904D01*
X153144285Y-138926190D01*
X153191904Y-138830952D01*
X153239523Y-138783333D01*
X153334761Y-138735714D01*
X153525238Y-138735714D01*
X153620476Y-138783333D01*
X154096666Y-139402380D02*
X154096666Y-138735714D01*
X154096666Y-138402380D02*
X154049047Y-138450000D01*
X154096666Y-138497619D01*
X154144285Y-138450000D01*
X154096666Y-138402380D01*
X154096666Y-138497619D01*
X155001428Y-139354761D02*
X154906190Y-139402380D01*
X154715714Y-139402380D01*
X154620476Y-139354761D01*
X154572857Y-139307142D01*
X154525238Y-139211904D01*
X154525238Y-138926190D01*
X154572857Y-138830952D01*
X154620476Y-138783333D01*
X154715714Y-138735714D01*
X154906190Y-138735714D01*
X155001428Y-138783333D01*
X155858571Y-139402380D02*
X155858571Y-138878571D01*
X155810952Y-138783333D01*
X155715714Y-138735714D01*
X155525238Y-138735714D01*
X155430000Y-138783333D01*
X155858571Y-139354761D02*
X155763333Y-139402380D01*
X155525238Y-139402380D01*
X155430000Y-139354761D01*
X155382380Y-139259523D01*
X155382380Y-139164285D01*
X155430000Y-139069047D01*
X155525238Y-139021428D01*
X155763333Y-139021428D01*
X155858571Y-138973809D01*
X156191904Y-138735714D02*
X156572857Y-138735714D01*
X156334761Y-138402380D02*
X156334761Y-139259523D01*
X156382380Y-139354761D01*
X156477619Y-139402380D01*
X156572857Y-139402380D01*
X157049047Y-139402380D02*
X156953809Y-139354761D01*
X156906190Y-139307142D01*
X156858571Y-139211904D01*
X156858571Y-138926190D01*
X156906190Y-138830952D01*
X156953809Y-138783333D01*
X157049047Y-138735714D01*
X157191904Y-138735714D01*
X157287142Y-138783333D01*
X157334761Y-138830952D01*
X157382380Y-138926190D01*
X157382380Y-139211904D01*
X157334761Y-139307142D01*
X157287142Y-139354761D01*
X157191904Y-139402380D01*
X157049047Y-139402380D01*
X157810952Y-139402380D02*
X157810952Y-138735714D01*
X157810952Y-138926190D02*
X157858571Y-138830952D01*
X157906190Y-138783333D01*
X158001428Y-138735714D01*
X158096666Y-138735714D01*
X173061380Y-78533047D02*
X173775666Y-78533047D01*
X173918523Y-78580666D01*
X174013761Y-78675904D01*
X174061380Y-78818761D01*
X174061380Y-78914000D01*
X174061380Y-77580666D02*
X174061380Y-78056857D01*
X173061380Y-78056857D01*
X173966142Y-76675904D02*
X174013761Y-76723523D01*
X174061380Y-76866380D01*
X174061380Y-76961619D01*
X174013761Y-77104476D01*
X173918523Y-77199714D01*
X173823285Y-77247333D01*
X173632809Y-77294952D01*
X173489952Y-77294952D01*
X173299476Y-77247333D01*
X173204238Y-77199714D01*
X173109000Y-77104476D01*
X173061380Y-76961619D01*
X173061380Y-76866380D01*
X173109000Y-76723523D01*
X173156619Y-76675904D01*
X173061380Y-75961619D02*
X173775666Y-75961619D01*
X173918523Y-76009238D01*
X174013761Y-76104476D01*
X174061380Y-76247333D01*
X174061380Y-76342571D01*
X174061380Y-75009238D02*
X174061380Y-75485428D01*
X173061380Y-75485428D01*
X173966142Y-74104476D02*
X174013761Y-74152095D01*
X174061380Y-74294952D01*
X174061380Y-74390190D01*
X174013761Y-74533047D01*
X173918523Y-74628285D01*
X173823285Y-74675904D01*
X173632809Y-74723523D01*
X173489952Y-74723523D01*
X173299476Y-74675904D01*
X173204238Y-74628285D01*
X173109000Y-74533047D01*
X173061380Y-74390190D01*
X173061380Y-74294952D01*
X173109000Y-74152095D01*
X173156619Y-74104476D01*
X173061380Y-73390190D02*
X173775666Y-73390190D01*
X173918523Y-73437809D01*
X174013761Y-73533047D01*
X174061380Y-73675904D01*
X174061380Y-73771142D01*
X174061380Y-72437809D02*
X174061380Y-72914000D01*
X173061380Y-72914000D01*
X173966142Y-71533047D02*
X174013761Y-71580666D01*
X174061380Y-71723523D01*
X174061380Y-71818761D01*
X174013761Y-71961619D01*
X173918523Y-72056857D01*
X173823285Y-72104476D01*
X173632809Y-72152095D01*
X173489952Y-72152095D01*
X173299476Y-72104476D01*
X173204238Y-72056857D01*
X173109000Y-71961619D01*
X173061380Y-71818761D01*
X173061380Y-71723523D01*
X173109000Y-71580666D01*
X173156619Y-71533047D01*
X173061380Y-70818761D02*
X173775666Y-70818761D01*
X173918523Y-70866380D01*
X174013761Y-70961619D01*
X174061380Y-71104476D01*
X174061380Y-71199714D01*
X174061380Y-69866380D02*
X174061380Y-70342571D01*
X173061380Y-70342571D01*
X173966142Y-68961619D02*
X174013761Y-69009238D01*
X174061380Y-69152095D01*
X174061380Y-69247333D01*
X174013761Y-69390190D01*
X173918523Y-69485428D01*
X173823285Y-69533047D01*
X173632809Y-69580666D01*
X173489952Y-69580666D01*
X173299476Y-69533047D01*
X173204238Y-69485428D01*
X173109000Y-69390190D01*
X173061380Y-69247333D01*
X173061380Y-69152095D01*
X173109000Y-69009238D01*
X173156619Y-68961619D01*
X112411238Y-82891380D02*
X113030285Y-82891380D01*
X112696952Y-83272333D01*
X112839809Y-83272333D01*
X112935047Y-83319952D01*
X112982666Y-83367571D01*
X113030285Y-83462809D01*
X113030285Y-83700904D01*
X112982666Y-83796142D01*
X112935047Y-83843761D01*
X112839809Y-83891380D01*
X112554095Y-83891380D01*
X112458857Y-83843761D01*
X112411238Y-83796142D01*
X113363619Y-83224714D02*
X113601714Y-83891380D01*
X113839809Y-83224714D01*
X114125523Y-82891380D02*
X114744571Y-82891380D01*
X114411238Y-83272333D01*
X114554095Y-83272333D01*
X114649333Y-83319952D01*
X114696952Y-83367571D01*
X114744571Y-83462809D01*
X114744571Y-83700904D01*
X114696952Y-83796142D01*
X114649333Y-83843761D01*
X114554095Y-83891380D01*
X114268380Y-83891380D01*
X114173142Y-83843761D01*
X114125523Y-83796142D01*
X115935047Y-83891380D02*
X115935047Y-82891380D01*
X116316000Y-82891380D01*
X116411238Y-82939000D01*
X116458857Y-82986619D01*
X116506476Y-83081857D01*
X116506476Y-83224714D01*
X116458857Y-83319952D01*
X116411238Y-83367571D01*
X116316000Y-83415190D01*
X115935047Y-83415190D01*
X116839809Y-83224714D02*
X117030285Y-83891380D01*
X117220761Y-83415190D01*
X117411238Y-83891380D01*
X117601714Y-83224714D01*
X117982666Y-83891380D02*
X117982666Y-83224714D01*
X117982666Y-83415190D02*
X118030285Y-83319952D01*
X118077904Y-83272333D01*
X118173142Y-83224714D01*
X118268380Y-83224714D01*
D12*
X121875095Y-118711761D02*
X121875095Y-116711761D01*
X122541761Y-118140333D01*
X123208428Y-116711761D01*
X123208428Y-118711761D01*
X124446523Y-118711761D02*
X124256047Y-118616523D01*
X124160809Y-118521285D01*
X124065571Y-118330809D01*
X124065571Y-117759380D01*
X124160809Y-117568904D01*
X124256047Y-117473666D01*
X124446523Y-117378428D01*
X124732238Y-117378428D01*
X124922714Y-117473666D01*
X125017952Y-117568904D01*
X125113190Y-117759380D01*
X125113190Y-118330809D01*
X125017952Y-118521285D01*
X124922714Y-118616523D01*
X124732238Y-118711761D01*
X124446523Y-118711761D01*
X125684619Y-117378428D02*
X126446523Y-117378428D01*
X125970333Y-116711761D02*
X125970333Y-118426047D01*
X126065571Y-118616523D01*
X126256047Y-118711761D01*
X126446523Y-118711761D01*
X127398904Y-118711761D02*
X127208428Y-118616523D01*
X127113190Y-118521285D01*
X127017952Y-118330809D01*
X127017952Y-117759380D01*
X127113190Y-117568904D01*
X127208428Y-117473666D01*
X127398904Y-117378428D01*
X127684619Y-117378428D01*
X127875095Y-117473666D01*
X127970333Y-117568904D01*
X128065571Y-117759380D01*
X128065571Y-118330809D01*
X127970333Y-118521285D01*
X127875095Y-118616523D01*
X127684619Y-118711761D01*
X127398904Y-118711761D01*
X128922714Y-118711761D02*
X128922714Y-117378428D01*
X128922714Y-117759380D02*
X129017952Y-117568904D01*
X129113190Y-117473666D01*
X129303666Y-117378428D01*
X129494142Y-117378428D01*
X132827476Y-118521285D02*
X132732238Y-118616523D01*
X132446523Y-118711761D01*
X132256047Y-118711761D01*
X131970333Y-118616523D01*
X131779857Y-118426047D01*
X131684619Y-118235571D01*
X131589380Y-117854619D01*
X131589380Y-117568904D01*
X131684619Y-117187952D01*
X131779857Y-116997476D01*
X131970333Y-116807000D01*
X132256047Y-116711761D01*
X132446523Y-116711761D01*
X132732238Y-116807000D01*
X132827476Y-116902238D01*
X133970333Y-118711761D02*
X133779857Y-118616523D01*
X133684619Y-118521285D01*
X133589380Y-118330809D01*
X133589380Y-117759380D01*
X133684619Y-117568904D01*
X133779857Y-117473666D01*
X133970333Y-117378428D01*
X134256047Y-117378428D01*
X134446523Y-117473666D01*
X134541761Y-117568904D01*
X134637000Y-117759380D01*
X134637000Y-118330809D01*
X134541761Y-118521285D01*
X134446523Y-118616523D01*
X134256047Y-118711761D01*
X133970333Y-118711761D01*
X135494142Y-117378428D02*
X135494142Y-118711761D01*
X135494142Y-117568904D02*
X135589380Y-117473666D01*
X135779857Y-117378428D01*
X136065571Y-117378428D01*
X136256047Y-117473666D01*
X136351285Y-117664142D01*
X136351285Y-118711761D01*
X137017952Y-117378428D02*
X137779857Y-117378428D01*
X137303666Y-116711761D02*
X137303666Y-118426047D01*
X137398904Y-118616523D01*
X137589380Y-118711761D01*
X137779857Y-118711761D01*
X138446523Y-118711761D02*
X138446523Y-117378428D01*
X138446523Y-117759380D02*
X138541761Y-117568904D01*
X138637000Y-117473666D01*
X138827476Y-117378428D01*
X139017952Y-117378428D01*
X139970333Y-118711761D02*
X139779857Y-118616523D01*
X139684619Y-118521285D01*
X139589380Y-118330809D01*
X139589380Y-117759380D01*
X139684619Y-117568904D01*
X139779857Y-117473666D01*
X139970333Y-117378428D01*
X140256047Y-117378428D01*
X140446523Y-117473666D01*
X140541761Y-117568904D01*
X140637000Y-117759380D01*
X140637000Y-118330809D01*
X140541761Y-118521285D01*
X140446523Y-118616523D01*
X140256047Y-118711761D01*
X139970333Y-118711761D01*
X141779857Y-118711761D02*
X141589380Y-118616523D01*
X141494142Y-118426047D01*
X141494142Y-116711761D01*
X142827476Y-118711761D02*
X142637000Y-118616523D01*
X142541761Y-118426047D01*
X142541761Y-116711761D01*
X144351285Y-118616523D02*
X144160809Y-118711761D01*
X143779857Y-118711761D01*
X143589380Y-118616523D01*
X143494142Y-118426047D01*
X143494142Y-117664142D01*
X143589380Y-117473666D01*
X143779857Y-117378428D01*
X144160809Y-117378428D01*
X144351285Y-117473666D01*
X144446523Y-117664142D01*
X144446523Y-117854619D01*
X143494142Y-118045095D01*
X145303666Y-118711761D02*
X145303666Y-117378428D01*
X145303666Y-117759380D02*
X145398904Y-117568904D01*
X145494142Y-117473666D01*
X145684619Y-117378428D01*
X145875095Y-117378428D01*
X149684619Y-118711761D02*
X149589380Y-118711761D01*
X149398904Y-118616523D01*
X149113190Y-118330809D01*
X148637000Y-117759380D01*
X148446523Y-117473666D01*
X148351285Y-117187952D01*
X148351285Y-116997476D01*
X148446523Y-116807000D01*
X148637000Y-116711761D01*
X148732238Y-116711761D01*
X148922714Y-116807000D01*
X149017952Y-116997476D01*
X149017952Y-117092714D01*
X148922714Y-117283190D01*
X148827476Y-117378428D01*
X148256047Y-117759380D01*
X148160809Y-117854619D01*
X148065571Y-118045095D01*
X148065571Y-118330809D01*
X148160809Y-118521285D01*
X148256047Y-118616523D01*
X148446523Y-118711761D01*
X148732238Y-118711761D01*
X148922714Y-118616523D01*
X149017952Y-118521285D01*
X149303666Y-118140333D01*
X149398904Y-117854619D01*
X149398904Y-117664142D01*
X151779857Y-116711761D02*
X152922714Y-116711761D01*
X152351285Y-118711761D02*
X152351285Y-116711761D01*
X154351285Y-118616523D02*
X154160809Y-118711761D01*
X153779857Y-118711761D01*
X153589380Y-118616523D01*
X153494142Y-118426047D01*
X153494142Y-117664142D01*
X153589380Y-117473666D01*
X153779857Y-117378428D01*
X154160809Y-117378428D01*
X154351285Y-117473666D01*
X154446523Y-117664142D01*
X154446523Y-117854619D01*
X153494142Y-118045095D01*
X155589380Y-118711761D02*
X155398904Y-118616523D01*
X155303666Y-118426047D01*
X155303666Y-116711761D01*
X157113190Y-118616523D02*
X156922714Y-118711761D01*
X156541761Y-118711761D01*
X156351285Y-118616523D01*
X156256047Y-118426047D01*
X156256047Y-117664142D01*
X156351285Y-117473666D01*
X156541761Y-117378428D01*
X156922714Y-117378428D01*
X157113190Y-117473666D01*
X157208428Y-117664142D01*
X157208428Y-117854619D01*
X156256047Y-118045095D01*
X158065571Y-118711761D02*
X158065571Y-117378428D01*
X158065571Y-117568904D02*
X158160809Y-117473666D01*
X158351285Y-117378428D01*
X158637000Y-117378428D01*
X158827476Y-117473666D01*
X158922714Y-117664142D01*
X158922714Y-118711761D01*
X158922714Y-117664142D02*
X159017952Y-117473666D01*
X159208428Y-117378428D01*
X159494142Y-117378428D01*
X159684619Y-117473666D01*
X159779857Y-117664142D01*
X159779857Y-118711761D01*
X161494142Y-118616523D02*
X161303666Y-118711761D01*
X160922714Y-118711761D01*
X160732238Y-118616523D01*
X160637000Y-118426047D01*
X160637000Y-117664142D01*
X160732238Y-117473666D01*
X160922714Y-117378428D01*
X161303666Y-117378428D01*
X161494142Y-117473666D01*
X161589380Y-117664142D01*
X161589380Y-117854619D01*
X160637000Y-118045095D01*
X162160809Y-117378428D02*
X162922714Y-117378428D01*
X162446523Y-116711761D02*
X162446523Y-118426047D01*
X162541761Y-118616523D01*
X162732238Y-118711761D01*
X162922714Y-118711761D01*
X163589380Y-118711761D02*
X163589380Y-117378428D01*
X163589380Y-117759380D02*
X163684619Y-117568904D01*
X163779857Y-117473666D01*
X163970333Y-117378428D01*
X164160809Y-117378428D01*
X164637000Y-117378428D02*
X165113190Y-118711761D01*
X165589380Y-117378428D02*
X165113190Y-118711761D01*
X164922714Y-119187952D01*
X164827476Y-119283190D01*
X164637000Y-119378428D01*
X137303666Y-119931761D02*
X137303666Y-121360333D01*
X137208428Y-121646047D01*
X137017952Y-121836523D01*
X136732238Y-121931761D01*
X136541761Y-121931761D01*
X138541761Y-121931761D02*
X138351285Y-121836523D01*
X138256047Y-121741285D01*
X138160809Y-121550809D01*
X138160809Y-120979380D01*
X138256047Y-120788904D01*
X138351285Y-120693666D01*
X138541761Y-120598428D01*
X138827476Y-120598428D01*
X139017952Y-120693666D01*
X139113190Y-120788904D01*
X139208428Y-120979380D01*
X139208428Y-121550809D01*
X139113190Y-121741285D01*
X139017952Y-121836523D01*
X138827476Y-121931761D01*
X138541761Y-121931761D01*
X140065571Y-121931761D02*
X140065571Y-119931761D01*
X140922714Y-121931761D02*
X140922714Y-120884142D01*
X140827476Y-120693666D01*
X140637000Y-120598428D01*
X140351285Y-120598428D01*
X140160809Y-120693666D01*
X140065571Y-120788904D01*
X141875095Y-120598428D02*
X141875095Y-121931761D01*
X141875095Y-120788904D02*
X141970333Y-120693666D01*
X142160809Y-120598428D01*
X142446523Y-120598428D01*
X142637000Y-120693666D01*
X142732238Y-120884142D01*
X142732238Y-121931761D01*
X146351285Y-121741285D02*
X146256047Y-121836523D01*
X145970333Y-121931761D01*
X145779857Y-121931761D01*
X145494142Y-121836523D01*
X145303666Y-121646047D01*
X145208428Y-121455571D01*
X145113190Y-121074619D01*
X145113190Y-120788904D01*
X145208428Y-120407952D01*
X145303666Y-120217476D01*
X145494142Y-120027000D01*
X145779857Y-119931761D01*
X145970333Y-119931761D01*
X146256047Y-120027000D01*
X146351285Y-120122238D01*
X148065571Y-121931761D02*
X148065571Y-120884142D01*
X147970333Y-120693666D01*
X147779857Y-120598428D01*
X147398904Y-120598428D01*
X147208428Y-120693666D01*
X148065571Y-121836523D02*
X147875095Y-121931761D01*
X147398904Y-121931761D01*
X147208428Y-121836523D01*
X147113190Y-121646047D01*
X147113190Y-121455571D01*
X147208428Y-121265095D01*
X147398904Y-121169857D01*
X147875095Y-121169857D01*
X148065571Y-121074619D01*
X149017952Y-121931761D02*
X149017952Y-120598428D01*
X149017952Y-120979380D02*
X149113190Y-120788904D01*
X149208428Y-120693666D01*
X149398904Y-120598428D01*
X149589380Y-120598428D01*
X150256047Y-121931761D02*
X150256047Y-120598428D01*
X150256047Y-120979380D02*
X150351285Y-120788904D01*
X150446523Y-120693666D01*
X150637000Y-120598428D01*
X150827476Y-120598428D01*
X131065571Y-125151761D02*
X130398904Y-124199380D01*
X129922714Y-125151761D02*
X129922714Y-123151761D01*
X130684619Y-123151761D01*
X130875095Y-123247000D01*
X130970333Y-123342238D01*
X131065571Y-123532714D01*
X131065571Y-123818428D01*
X130970333Y-124008904D01*
X130875095Y-124104142D01*
X130684619Y-124199380D01*
X129922714Y-124199380D01*
X132779857Y-125151761D02*
X132779857Y-124104142D01*
X132684619Y-123913666D01*
X132494142Y-123818428D01*
X132113190Y-123818428D01*
X131922714Y-123913666D01*
X132779857Y-125056523D02*
X132589380Y-125151761D01*
X132113190Y-125151761D01*
X131922714Y-125056523D01*
X131827476Y-124866047D01*
X131827476Y-124675571D01*
X131922714Y-124485095D01*
X132113190Y-124389857D01*
X132589380Y-124389857D01*
X132779857Y-124294619D01*
X133541761Y-123818428D02*
X134017952Y-125151761D01*
X134494142Y-123818428D02*
X134017952Y-125151761D01*
X133827476Y-125627952D01*
X133732238Y-125723190D01*
X133541761Y-125818428D01*
X135256047Y-125151761D02*
X135256047Y-123818428D01*
X135256047Y-124008904D02*
X135351285Y-123913666D01*
X135541761Y-123818428D01*
X135827476Y-123818428D01*
X136017952Y-123913666D01*
X136113190Y-124104142D01*
X136113190Y-125151761D01*
X136113190Y-124104142D02*
X136208428Y-123913666D01*
X136398904Y-123818428D01*
X136684619Y-123818428D01*
X136875095Y-123913666D01*
X136970333Y-124104142D01*
X136970333Y-125151761D01*
X138208428Y-125151761D02*
X138017952Y-125056523D01*
X137922714Y-124961285D01*
X137827476Y-124770809D01*
X137827476Y-124199380D01*
X137922714Y-124008904D01*
X138017952Y-123913666D01*
X138208428Y-123818428D01*
X138494142Y-123818428D01*
X138684619Y-123913666D01*
X138779857Y-124008904D01*
X138875095Y-124199380D01*
X138875095Y-124770809D01*
X138779857Y-124961285D01*
X138684619Y-125056523D01*
X138494142Y-125151761D01*
X138208428Y-125151761D01*
X139732238Y-123818428D02*
X139732238Y-125151761D01*
X139732238Y-124008904D02*
X139827476Y-123913666D01*
X140017952Y-123818428D01*
X140303666Y-123818428D01*
X140494142Y-123913666D01*
X140589380Y-124104142D01*
X140589380Y-125151761D01*
X142398904Y-125151761D02*
X142398904Y-123151761D01*
X142398904Y-125056523D02*
X142208428Y-125151761D01*
X141827476Y-125151761D01*
X141637000Y-125056523D01*
X141541761Y-124961285D01*
X141446523Y-124770809D01*
X141446523Y-124199380D01*
X141541761Y-124008904D01*
X141637000Y-123913666D01*
X141827476Y-123818428D01*
X142208428Y-123818428D01*
X142398904Y-123913666D01*
X145541761Y-124104142D02*
X145827476Y-124199380D01*
X145922714Y-124294619D01*
X146017952Y-124485095D01*
X146017952Y-124770809D01*
X145922714Y-124961285D01*
X145827476Y-125056523D01*
X145637000Y-125151761D01*
X144875095Y-125151761D01*
X144875095Y-123151761D01*
X145541761Y-123151761D01*
X145732238Y-123247000D01*
X145827476Y-123342238D01*
X145922714Y-123532714D01*
X145922714Y-123723190D01*
X145827476Y-123913666D01*
X145732238Y-124008904D01*
X145541761Y-124104142D01*
X144875095Y-124104142D01*
X147637000Y-125056523D02*
X147446523Y-125151761D01*
X147065571Y-125151761D01*
X146875095Y-125056523D01*
X146779857Y-124866047D01*
X146779857Y-124104142D01*
X146875095Y-123913666D01*
X147065571Y-123818428D01*
X147446523Y-123818428D01*
X147637000Y-123913666D01*
X147732238Y-124104142D01*
X147732238Y-124294619D01*
X146779857Y-124485095D01*
X148589380Y-125151761D02*
X148589380Y-123818428D01*
X148589380Y-124199380D02*
X148684619Y-124008904D01*
X148779857Y-123913666D01*
X148970333Y-123818428D01*
X149160809Y-123818428D01*
X149827476Y-123818428D02*
X149827476Y-125151761D01*
X149827476Y-124008904D02*
X149922714Y-123913666D01*
X150113190Y-123818428D01*
X150398904Y-123818428D01*
X150589380Y-123913666D01*
X150684619Y-124104142D01*
X150684619Y-125151761D01*
X152494142Y-125151761D02*
X152494142Y-124104142D01*
X152398904Y-123913666D01*
X152208428Y-123818428D01*
X151827476Y-123818428D01*
X151637000Y-123913666D01*
X152494142Y-125056523D02*
X152303666Y-125151761D01*
X151827476Y-125151761D01*
X151637000Y-125056523D01*
X151541761Y-124866047D01*
X151541761Y-124675571D01*
X151637000Y-124485095D01*
X151827476Y-124389857D01*
X152303666Y-124389857D01*
X152494142Y-124294619D01*
X153446523Y-125151761D02*
X153446523Y-123818428D01*
X153446523Y-124199380D02*
X153541761Y-124008904D01*
X153637000Y-123913666D01*
X153827476Y-123818428D01*
X154017952Y-123818428D01*
X155541761Y-125151761D02*
X155541761Y-123151761D01*
X155541761Y-125056523D02*
X155351285Y-125151761D01*
X154970333Y-125151761D01*
X154779857Y-125056523D01*
X154684619Y-124961285D01*
X154589380Y-124770809D01*
X154589380Y-124199380D01*
X154684619Y-124008904D01*
X154779857Y-123913666D01*
X154970333Y-123818428D01*
X155351285Y-123818428D01*
X155541761Y-123913666D01*
X156779857Y-125151761D02*
X156589380Y-125056523D01*
X156494142Y-124961285D01*
X156398904Y-124770809D01*
X156398904Y-124199380D01*
X156494142Y-124008904D01*
X156589380Y-123913666D01*
X156779857Y-123818428D01*
X157065571Y-123818428D01*
X157256047Y-123913666D01*
X157351285Y-124008904D01*
X157446523Y-124199380D01*
X157446523Y-124770809D01*
X157351285Y-124961285D01*
X157256047Y-125056523D01*
X157065571Y-125151761D01*
X156779857Y-125151761D01*
X134446523Y-126371761D02*
X135589380Y-126371761D01*
X135017952Y-128371761D02*
X135017952Y-126371761D01*
X137113190Y-128371761D02*
X137113190Y-127324142D01*
X137017952Y-127133666D01*
X136827476Y-127038428D01*
X136446523Y-127038428D01*
X136256047Y-127133666D01*
X137113190Y-128276523D02*
X136922714Y-128371761D01*
X136446523Y-128371761D01*
X136256047Y-128276523D01*
X136160809Y-128086047D01*
X136160809Y-127895571D01*
X136256047Y-127705095D01*
X136446523Y-127609857D01*
X136922714Y-127609857D01*
X137113190Y-127514619D01*
X137875095Y-127038428D02*
X138351285Y-128371761D01*
X138827476Y-127038428D02*
X138351285Y-128371761D01*
X138160809Y-128847952D01*
X138065571Y-128943190D01*
X137875095Y-129038428D01*
X139875095Y-128371761D02*
X139684619Y-128276523D01*
X139589380Y-128086047D01*
X139589380Y-126371761D01*
X140922714Y-128371761D02*
X140732238Y-128276523D01*
X140637000Y-128181285D01*
X140541761Y-127990809D01*
X140541761Y-127419380D01*
X140637000Y-127228904D01*
X140732238Y-127133666D01*
X140922714Y-127038428D01*
X141208428Y-127038428D01*
X141398904Y-127133666D01*
X141494142Y-127228904D01*
X141589380Y-127419380D01*
X141589380Y-127990809D01*
X141494142Y-128181285D01*
X141398904Y-128276523D01*
X141208428Y-128371761D01*
X140922714Y-128371761D01*
X142446523Y-128371761D02*
X142446523Y-127038428D01*
X142446523Y-127419380D02*
X142541761Y-127228904D01*
X142637000Y-127133666D01*
X142827476Y-127038428D01*
X143017952Y-127038428D01*
X146256047Y-126467000D02*
X146065571Y-126371761D01*
X145779857Y-126371761D01*
X145494142Y-126467000D01*
X145303666Y-126657476D01*
X145208428Y-126847952D01*
X145113190Y-127228904D01*
X145113190Y-127514619D01*
X145208428Y-127895571D01*
X145303666Y-128086047D01*
X145494142Y-128276523D01*
X145779857Y-128371761D01*
X145970333Y-128371761D01*
X146256047Y-128276523D01*
X146351285Y-128181285D01*
X146351285Y-127514619D01*
X145970333Y-127514619D01*
X147970333Y-128276523D02*
X147779857Y-128371761D01*
X147398904Y-128371761D01*
X147208428Y-128276523D01*
X147113190Y-128086047D01*
X147113190Y-127324142D01*
X147208428Y-127133666D01*
X147398904Y-127038428D01*
X147779857Y-127038428D01*
X147970333Y-127133666D01*
X148065571Y-127324142D01*
X148065571Y-127514619D01*
X147113190Y-127705095D01*
X148922714Y-128371761D02*
X148922714Y-127038428D01*
X148922714Y-127419380D02*
X149017952Y-127228904D01*
X149113190Y-127133666D01*
X149303666Y-127038428D01*
X149494142Y-127038428D01*
X150160809Y-128371761D02*
X150160809Y-126371761D01*
X150351285Y-127609857D02*
X150922714Y-128371761D01*
X150922714Y-127038428D02*
X150160809Y-127800333D01*
X152541761Y-128276523D02*
X152351285Y-128371761D01*
X151970333Y-128371761D01*
X151779857Y-128276523D01*
X151684619Y-128086047D01*
X151684619Y-127324142D01*
X151779857Y-127133666D01*
X151970333Y-127038428D01*
X152351285Y-127038428D01*
X152541761Y-127133666D01*
X152637000Y-127324142D01*
X152637000Y-127514619D01*
X151684619Y-127705095D01*
X136017952Y-131401285D02*
X135922714Y-131496523D01*
X135637000Y-131591761D01*
X135446523Y-131591761D01*
X135160809Y-131496523D01*
X134970333Y-131306047D01*
X134875095Y-131115571D01*
X134779857Y-130734619D01*
X134779857Y-130448904D01*
X134875095Y-130067952D01*
X134970333Y-129877476D01*
X135160809Y-129687000D01*
X135446523Y-129591761D01*
X135637000Y-129591761D01*
X135922714Y-129687000D01*
X136017952Y-129782238D01*
X137160809Y-131591761D02*
X136970333Y-131496523D01*
X136875095Y-131401285D01*
X136779857Y-131210809D01*
X136779857Y-130639380D01*
X136875095Y-130448904D01*
X136970333Y-130353666D01*
X137160809Y-130258428D01*
X137446523Y-130258428D01*
X137637000Y-130353666D01*
X137732238Y-130448904D01*
X137827476Y-130639380D01*
X137827476Y-131210809D01*
X137732238Y-131401285D01*
X137637000Y-131496523D01*
X137446523Y-131591761D01*
X137160809Y-131591761D01*
X138684619Y-130258428D02*
X138684619Y-131591761D01*
X138684619Y-130448904D02*
X138779857Y-130353666D01*
X138970333Y-130258428D01*
X139256047Y-130258428D01*
X139446523Y-130353666D01*
X139541761Y-130544142D01*
X139541761Y-131591761D01*
X140494142Y-130258428D02*
X140494142Y-131591761D01*
X140494142Y-130448904D02*
X140589380Y-130353666D01*
X140779857Y-130258428D01*
X141065571Y-130258428D01*
X141256047Y-130353666D01*
X141351285Y-130544142D01*
X141351285Y-131591761D01*
X142589380Y-131591761D02*
X142398904Y-131496523D01*
X142303666Y-131401285D01*
X142208428Y-131210809D01*
X142208428Y-130639380D01*
X142303666Y-130448904D01*
X142398904Y-130353666D01*
X142589380Y-130258428D01*
X142875095Y-130258428D01*
X143065571Y-130353666D01*
X143160809Y-130448904D01*
X143256047Y-130639380D01*
X143256047Y-131210809D01*
X143160809Y-131401285D01*
X143065571Y-131496523D01*
X142875095Y-131591761D01*
X142589380Y-131591761D01*
X144113190Y-131591761D02*
X144113190Y-130258428D01*
X144113190Y-130639380D02*
X144208428Y-130448904D01*
X144303666Y-130353666D01*
X144494142Y-130258428D01*
X144684619Y-130258428D01*
X146875095Y-130544142D02*
X147541761Y-130544142D01*
X147827476Y-131591761D02*
X146875095Y-131591761D01*
X146875095Y-129591761D01*
X147827476Y-129591761D01*
X148970333Y-131591761D02*
X148779857Y-131496523D01*
X148684619Y-131306047D01*
X148684619Y-129591761D01*
X150017952Y-131591761D02*
X149827476Y-131496523D01*
X149732238Y-131306047D01*
X149732238Y-129591761D01*
X150779857Y-131591761D02*
X150779857Y-130258428D01*
X150779857Y-129591761D02*
X150684619Y-129687000D01*
X150779857Y-129782238D01*
X150875095Y-129687000D01*
X150779857Y-129591761D01*
X150779857Y-129782238D01*
X151637000Y-131496523D02*
X151827476Y-131591761D01*
X152208428Y-131591761D01*
X152398904Y-131496523D01*
X152494142Y-131306047D01*
X152494142Y-131210809D01*
X152398904Y-131020333D01*
X152208428Y-130925095D01*
X151922714Y-130925095D01*
X151732238Y-130829857D01*
X151637000Y-130639380D01*
X151637000Y-130544142D01*
X151732238Y-130353666D01*
X151922714Y-130258428D01*
X152208428Y-130258428D01*
X152398904Y-130353666D01*
X135922714Y-132811761D02*
X136113190Y-132811761D01*
X136303666Y-132907000D01*
X136398904Y-133002238D01*
X136494142Y-133192714D01*
X136589380Y-133573666D01*
X136589380Y-134049857D01*
X136494142Y-134430809D01*
X136398904Y-134621285D01*
X136303666Y-134716523D01*
X136113190Y-134811761D01*
X135922714Y-134811761D01*
X135732238Y-134716523D01*
X135637000Y-134621285D01*
X135541761Y-134430809D01*
X135446523Y-134049857D01*
X135446523Y-133573666D01*
X135541761Y-133192714D01*
X135637000Y-133002238D01*
X135732238Y-132907000D01*
X135922714Y-132811761D01*
X138398904Y-132811761D02*
X137446523Y-132811761D01*
X137351285Y-133764142D01*
X137446523Y-133668904D01*
X137637000Y-133573666D01*
X138113190Y-133573666D01*
X138303666Y-133668904D01*
X138398904Y-133764142D01*
X138494142Y-133954619D01*
X138494142Y-134430809D01*
X138398904Y-134621285D01*
X138303666Y-134716523D01*
X138113190Y-134811761D01*
X137637000Y-134811761D01*
X137446523Y-134716523D01*
X137351285Y-134621285D01*
X139351285Y-134621285D02*
X139446523Y-134716523D01*
X139351285Y-134811761D01*
X139256047Y-134716523D01*
X139351285Y-134621285D01*
X139351285Y-134811761D01*
X140684619Y-132811761D02*
X140875095Y-132811761D01*
X141065571Y-132907000D01*
X141160809Y-133002238D01*
X141256047Y-133192714D01*
X141351285Y-133573666D01*
X141351285Y-134049857D01*
X141256047Y-134430809D01*
X141160809Y-134621285D01*
X141065571Y-134716523D01*
X140875095Y-134811761D01*
X140684619Y-134811761D01*
X140494142Y-134716523D01*
X140398904Y-134621285D01*
X140303666Y-134430809D01*
X140208428Y-134049857D01*
X140208428Y-133573666D01*
X140303666Y-133192714D01*
X140398904Y-133002238D01*
X140494142Y-132907000D01*
X140684619Y-132811761D01*
X142113190Y-133002238D02*
X142208428Y-132907000D01*
X142398904Y-132811761D01*
X142875095Y-132811761D01*
X143065571Y-132907000D01*
X143160809Y-133002238D01*
X143256047Y-133192714D01*
X143256047Y-133383190D01*
X143160809Y-133668904D01*
X142017952Y-134811761D01*
X143256047Y-134811761D01*
X144113190Y-134621285D02*
X144208428Y-134716523D01*
X144113190Y-134811761D01*
X144017952Y-134716523D01*
X144113190Y-134621285D01*
X144113190Y-134811761D01*
X144970333Y-133002238D02*
X145065571Y-132907000D01*
X145256047Y-132811761D01*
X145732238Y-132811761D01*
X145922714Y-132907000D01*
X146017952Y-133002238D01*
X146113190Y-133192714D01*
X146113190Y-133383190D01*
X146017952Y-133668904D01*
X144875095Y-134811761D01*
X146113190Y-134811761D01*
X147351285Y-132811761D02*
X147541761Y-132811761D01*
X147732238Y-132907000D01*
X147827476Y-133002238D01*
X147922714Y-133192714D01*
X148017952Y-133573666D01*
X148017952Y-134049857D01*
X147922714Y-134430809D01*
X147827476Y-134621285D01*
X147732238Y-134716523D01*
X147541761Y-134811761D01*
X147351285Y-134811761D01*
X147160809Y-134716523D01*
X147065571Y-134621285D01*
X146970333Y-134430809D01*
X146875095Y-134049857D01*
X146875095Y-133573666D01*
X146970333Y-133192714D01*
X147065571Y-133002238D01*
X147160809Y-132907000D01*
X147351285Y-132811761D01*
X148779857Y-133002238D02*
X148875095Y-132907000D01*
X149065571Y-132811761D01*
X149541761Y-132811761D01*
X149732238Y-132907000D01*
X149827476Y-133002238D01*
X149922714Y-133192714D01*
X149922714Y-133383190D01*
X149827476Y-133668904D01*
X148684619Y-134811761D01*
X149922714Y-134811761D01*
X150589380Y-132811761D02*
X151827476Y-132811761D01*
X151160809Y-133573666D01*
X151446523Y-133573666D01*
X151637000Y-133668904D01*
X151732238Y-133764142D01*
X151827476Y-133954619D01*
X151827476Y-134430809D01*
X151732238Y-134621285D01*
X151637000Y-134716523D01*
X151446523Y-134811761D01*
X150875095Y-134811761D01*
X150684619Y-134716523D01*
X150589380Y-134621285D01*
D13*
X138750523Y-85676619D02*
X139778619Y-85676619D01*
X139899571Y-85616142D01*
X139960047Y-85555666D01*
X140020523Y-85434714D01*
X140020523Y-85192809D01*
X139960047Y-85071857D01*
X139899571Y-85011380D01*
X139778619Y-84950904D01*
X138750523Y-84950904D01*
X138750523Y-83741380D02*
X138750523Y-84346142D01*
X139355285Y-84406619D01*
X139294809Y-84346142D01*
X139234333Y-84225190D01*
X139234333Y-83922809D01*
X139294809Y-83801857D01*
X139355285Y-83741380D01*
X139476238Y-83680904D01*
X139778619Y-83680904D01*
X139899571Y-83741380D01*
X139960047Y-83801857D01*
X140020523Y-83922809D01*
X140020523Y-84225190D01*
X139960047Y-84346142D01*
X139899571Y-84406619D01*
X150561523Y-85676619D02*
X151589619Y-85676619D01*
X151710571Y-85616142D01*
X151771047Y-85555666D01*
X151831523Y-85434714D01*
X151831523Y-85192809D01*
X151771047Y-85071857D01*
X151710571Y-85011380D01*
X151589619Y-84950904D01*
X150561523Y-84950904D01*
X150984857Y-83801857D02*
X151831523Y-83801857D01*
X150501047Y-84104238D02*
X151408190Y-84406619D01*
X151408190Y-83620428D01*
D11*
X93253074Y-68009710D02*
X93365560Y-68047205D01*
X93553037Y-68047205D01*
X93628028Y-68009710D01*
X93665523Y-67972215D01*
X93703018Y-67897224D01*
X93703018Y-67822233D01*
X93665523Y-67747243D01*
X93628028Y-67709747D01*
X93553037Y-67672252D01*
X93403056Y-67634757D01*
X93328065Y-67597261D01*
X93290570Y-67559766D01*
X93253074Y-67484775D01*
X93253074Y-67409785D01*
X93290570Y-67334794D01*
X93328065Y-67297299D01*
X93403056Y-67259803D01*
X93590532Y-67259803D01*
X93703018Y-67297299D01*
X94452925Y-68047205D02*
X94002981Y-68047205D01*
X94227953Y-68047205D02*
X94227953Y-67259803D01*
X94152962Y-67372289D01*
X94077972Y-67447280D01*
X94002981Y-67484775D01*
D14*
X146333906Y-97714102D02*
X146202672Y-97526626D01*
X146108934Y-97714102D02*
X146108934Y-97320401D01*
X146258915Y-97320401D01*
X146296411Y-97339149D01*
X146315158Y-97357897D01*
X146333906Y-97395392D01*
X146333906Y-97451635D01*
X146315158Y-97489130D01*
X146296411Y-97507878D01*
X146258915Y-97526626D01*
X146108934Y-97526626D01*
X146483887Y-97357897D02*
X146502635Y-97339149D01*
X146540130Y-97320401D01*
X146633869Y-97320401D01*
X146671364Y-97339149D01*
X146690112Y-97357897D01*
X146708859Y-97395392D01*
X146708859Y-97432887D01*
X146690112Y-97489130D01*
X146465140Y-97714102D01*
X146708859Y-97714102D01*
X146858841Y-97357897D02*
X146877588Y-97339149D01*
X146915084Y-97320401D01*
X147008822Y-97320401D01*
X147046317Y-97339149D01*
X147065065Y-97357897D01*
X147083813Y-97395392D01*
X147083813Y-97432887D01*
X147065065Y-97489130D01*
X146840093Y-97714102D01*
X147083813Y-97714102D01*
X155372102Y-84454093D02*
X155184626Y-84585327D01*
X155372102Y-84679065D02*
X154978401Y-84679065D01*
X154978401Y-84529084D01*
X154997149Y-84491588D01*
X155015897Y-84472841D01*
X155053392Y-84454093D01*
X155109635Y-84454093D01*
X155147130Y-84472841D01*
X155165878Y-84491588D01*
X155184626Y-84529084D01*
X155184626Y-84679065D01*
X155372102Y-84079140D02*
X155372102Y-84304112D01*
X155372102Y-84191626D02*
X154978401Y-84191626D01*
X155034644Y-84229121D01*
X155072140Y-84266616D01*
X155090887Y-84304112D01*
X154978401Y-83947906D02*
X154978401Y-83685439D01*
X155372102Y-83854168D01*
X150974906Y-87173102D02*
X150843672Y-86985626D01*
X150749934Y-87173102D02*
X150749934Y-86779401D01*
X150899915Y-86779401D01*
X150937411Y-86798149D01*
X150956158Y-86816897D01*
X150974906Y-86854392D01*
X150974906Y-86910635D01*
X150956158Y-86948130D01*
X150937411Y-86966878D01*
X150899915Y-86985626D01*
X150749934Y-86985626D01*
X151349859Y-87173102D02*
X151124887Y-87173102D01*
X151237373Y-87173102D02*
X151237373Y-86779401D01*
X151199878Y-86835644D01*
X151162383Y-86873140D01*
X151124887Y-86891887D01*
X151706065Y-86779401D02*
X151518588Y-86779401D01*
X151499841Y-86966878D01*
X151518588Y-86948130D01*
X151556084Y-86929383D01*
X151649822Y-86929383D01*
X151687317Y-86948130D01*
X151706065Y-86966878D01*
X151724813Y-87004373D01*
X151724813Y-87098112D01*
X151706065Y-87135607D01*
X151687317Y-87154355D01*
X151649822Y-87173102D01*
X151556084Y-87173102D01*
X151518588Y-87154355D01*
X151499841Y-87135607D01*
X157531102Y-81504093D02*
X157343626Y-81635327D01*
X157531102Y-81729065D02*
X157137401Y-81729065D01*
X157137401Y-81579084D01*
X157156149Y-81541588D01*
X157174897Y-81522841D01*
X157212392Y-81504093D01*
X157268635Y-81504093D01*
X157306130Y-81522841D01*
X157324878Y-81541588D01*
X157343626Y-81579084D01*
X157343626Y-81729065D01*
X157531102Y-81129140D02*
X157531102Y-81354112D01*
X157531102Y-81241626D02*
X157137401Y-81241626D01*
X157193644Y-81279121D01*
X157231140Y-81316616D01*
X157249887Y-81354112D01*
X157268635Y-80791682D02*
X157531102Y-80791682D01*
X157118654Y-80885420D02*
X157399869Y-80979158D01*
X157399869Y-80735439D01*
X145847102Y-81631093D02*
X145659626Y-81762327D01*
X145847102Y-81856065D02*
X145453401Y-81856065D01*
X145453401Y-81706084D01*
X145472149Y-81668588D01*
X145490897Y-81649841D01*
X145528392Y-81631093D01*
X145584635Y-81631093D01*
X145622130Y-81649841D01*
X145640878Y-81668588D01*
X145659626Y-81706084D01*
X145659626Y-81856065D01*
X145847102Y-81256140D02*
X145847102Y-81481112D01*
X145847102Y-81368626D02*
X145453401Y-81368626D01*
X145509644Y-81406121D01*
X145547140Y-81443616D01*
X145565887Y-81481112D01*
X145453401Y-81124906D02*
X145453401Y-80881186D01*
X145603383Y-81012420D01*
X145603383Y-80956177D01*
X145622130Y-80918682D01*
X145640878Y-80899934D01*
X145678373Y-80881186D01*
X145772112Y-80881186D01*
X145809607Y-80899934D01*
X145828355Y-80918682D01*
X145847102Y-80956177D01*
X145847102Y-81068663D01*
X145828355Y-81106158D01*
X145809607Y-81124906D01*
X143688102Y-84708093D02*
X143500626Y-84839327D01*
X143688102Y-84933065D02*
X143294401Y-84933065D01*
X143294401Y-84783084D01*
X143313149Y-84745588D01*
X143331897Y-84726841D01*
X143369392Y-84708093D01*
X143425635Y-84708093D01*
X143463130Y-84726841D01*
X143481878Y-84745588D01*
X143500626Y-84783084D01*
X143500626Y-84933065D01*
X143688102Y-84333140D02*
X143688102Y-84558112D01*
X143688102Y-84445626D02*
X143294401Y-84445626D01*
X143350644Y-84483121D01*
X143388140Y-84520616D01*
X143406887Y-84558112D01*
X143294401Y-84089420D02*
X143294401Y-84051925D01*
X143313149Y-84014429D01*
X143331897Y-83995682D01*
X143369392Y-83976934D01*
X143444383Y-83958186D01*
X143538121Y-83958186D01*
X143613112Y-83976934D01*
X143650607Y-83995682D01*
X143669355Y-84014429D01*
X143688102Y-84051925D01*
X143688102Y-84089420D01*
X143669355Y-84126915D01*
X143650607Y-84145663D01*
X143613112Y-84164411D01*
X143538121Y-84183158D01*
X143444383Y-84183158D01*
X143369392Y-84164411D01*
X143331897Y-84145663D01*
X143313149Y-84126915D01*
X143294401Y-84089420D01*
X140240383Y-87046102D02*
X140109149Y-86858626D01*
X140015411Y-87046102D02*
X140015411Y-86652401D01*
X140165392Y-86652401D01*
X140202887Y-86671149D01*
X140221635Y-86689897D01*
X140240383Y-86727392D01*
X140240383Y-86783635D01*
X140221635Y-86821130D01*
X140202887Y-86839878D01*
X140165392Y-86858626D01*
X140015411Y-86858626D01*
X140427859Y-87046102D02*
X140502850Y-87046102D01*
X140540345Y-87027355D01*
X140559093Y-87008607D01*
X140596588Y-86952364D01*
X140615336Y-86877373D01*
X140615336Y-86727392D01*
X140596588Y-86689897D01*
X140577841Y-86671149D01*
X140540345Y-86652401D01*
X140465355Y-86652401D01*
X140427859Y-86671149D01*
X140409112Y-86689897D01*
X140390364Y-86727392D01*
X140390364Y-86821130D01*
X140409112Y-86858626D01*
X140427859Y-86877373D01*
X140465355Y-86896121D01*
X140540345Y-86896121D01*
X140577841Y-86877373D01*
X140596588Y-86858626D01*
X140615336Y-86821130D01*
D11*
X159752071Y-89114619D02*
X159656833Y-89067000D01*
X159561595Y-88971761D01*
X159418738Y-88828904D01*
X159323500Y-88781285D01*
X159228261Y-88781285D01*
X159275880Y-89019380D02*
X159180642Y-88971761D01*
X159085404Y-88876523D01*
X159037785Y-88686047D01*
X159037785Y-88352714D01*
X159085404Y-88162238D01*
X159180642Y-88067000D01*
X159275880Y-88019380D01*
X159466357Y-88019380D01*
X159561595Y-88067000D01*
X159656833Y-88162238D01*
X159704452Y-88352714D01*
X159704452Y-88686047D01*
X159656833Y-88876523D01*
X159561595Y-88971761D01*
X159466357Y-89019380D01*
X159275880Y-89019380D01*
X160085404Y-88114619D02*
X160133023Y-88067000D01*
X160228261Y-88019380D01*
X160466357Y-88019380D01*
X160561595Y-88067000D01*
X160609214Y-88114619D01*
X160656833Y-88209857D01*
X160656833Y-88305095D01*
X160609214Y-88447952D01*
X160037785Y-89019380D01*
X160656833Y-89019380D01*
X161275880Y-88019380D02*
X161371119Y-88019380D01*
X161466357Y-88067000D01*
X161513976Y-88114619D01*
X161561595Y-88209857D01*
X161609214Y-88400333D01*
X161609214Y-88638428D01*
X161561595Y-88828904D01*
X161513976Y-88924142D01*
X161466357Y-88971761D01*
X161371119Y-89019380D01*
X161275880Y-89019380D01*
X161180642Y-88971761D01*
X161133023Y-88924142D01*
X161085404Y-88828904D01*
X161037785Y-88638428D01*
X161037785Y-88400333D01*
X161085404Y-88209857D01*
X161133023Y-88114619D01*
X161180642Y-88067000D01*
X161275880Y-88019380D01*
X155058619Y-98449238D02*
X155011000Y-98544476D01*
X154915761Y-98639714D01*
X154772904Y-98782571D01*
X154725285Y-98877809D01*
X154725285Y-98973047D01*
X154963380Y-98925428D02*
X154915761Y-99020666D01*
X154820523Y-99115904D01*
X154630047Y-99163523D01*
X154296714Y-99163523D01*
X154106238Y-99115904D01*
X154011000Y-99020666D01*
X153963380Y-98925428D01*
X153963380Y-98734952D01*
X154011000Y-98639714D01*
X154106238Y-98544476D01*
X154296714Y-98496857D01*
X154630047Y-98496857D01*
X154820523Y-98544476D01*
X154915761Y-98639714D01*
X154963380Y-98734952D01*
X154963380Y-98925428D01*
X153963380Y-98163523D02*
X153963380Y-97544476D01*
X154344333Y-97877809D01*
X154344333Y-97734952D01*
X154391952Y-97639714D01*
X154439571Y-97592095D01*
X154534809Y-97544476D01*
X154772904Y-97544476D01*
X154868142Y-97592095D01*
X154915761Y-97639714D01*
X154963380Y-97734952D01*
X154963380Y-98020666D01*
X154915761Y-98115904D01*
X154868142Y-98163523D01*
X138958333Y-76235523D02*
X138653571Y-76235523D01*
X138653571Y-75595523D01*
X139141190Y-75656476D02*
X139171666Y-75626000D01*
X139232619Y-75595523D01*
X139385000Y-75595523D01*
X139445952Y-75626000D01*
X139476428Y-75656476D01*
X139506904Y-75717428D01*
X139506904Y-75778380D01*
X139476428Y-75869809D01*
X139110714Y-76235523D01*
X139506904Y-76235523D01*
X150642333Y-76235523D02*
X150337571Y-76235523D01*
X150337571Y-75595523D01*
X151190904Y-76235523D02*
X150825190Y-76235523D01*
X151008047Y-76235523D02*
X151008047Y-75595523D01*
X150947095Y-75686952D01*
X150886142Y-75747904D01*
X150825190Y-75778380D01*
X84499880Y-67918333D02*
X85214166Y-67918333D01*
X85357023Y-67965952D01*
X85452261Y-68061190D01*
X85499880Y-68204047D01*
X85499880Y-68299285D01*
X84928452Y-67299285D02*
X84880833Y-67394523D01*
X84833214Y-67442142D01*
X84737976Y-67489761D01*
X84690357Y-67489761D01*
X84595119Y-67442142D01*
X84547500Y-67394523D01*
X84499880Y-67299285D01*
X84499880Y-67108809D01*
X84547500Y-67013571D01*
X84595119Y-66965952D01*
X84690357Y-66918333D01*
X84737976Y-66918333D01*
X84833214Y-66965952D01*
X84880833Y-67013571D01*
X84928452Y-67108809D01*
X84928452Y-67299285D01*
X84976071Y-67394523D01*
X85023690Y-67442142D01*
X85118928Y-67489761D01*
X85309404Y-67489761D01*
X85404642Y-67442142D01*
X85452261Y-67394523D01*
X85499880Y-67299285D01*
X85499880Y-67108809D01*
X85452261Y-67013571D01*
X85404642Y-66965952D01*
X85309404Y-66918333D01*
X85118928Y-66918333D01*
X85023690Y-66965952D01*
X84976071Y-67013571D01*
X84928452Y-67108809D01*
X143917666Y-70043880D02*
X143917666Y-70758166D01*
X143870047Y-70901023D01*
X143774809Y-70996261D01*
X143631952Y-71043880D01*
X143536714Y-71043880D01*
X144822428Y-70377214D02*
X144822428Y-71043880D01*
X144584333Y-69996261D02*
X144346238Y-70710547D01*
X144965285Y-70710547D01*
X165047380Y-105468333D02*
X165761666Y-105468333D01*
X165904523Y-105515952D01*
X165999761Y-105611190D01*
X166047380Y-105754047D01*
X166047380Y-105849285D01*
X165047380Y-105087380D02*
X165047380Y-104468333D01*
X165428333Y-104801666D01*
X165428333Y-104658809D01*
X165475952Y-104563571D01*
X165523571Y-104515952D01*
X165618809Y-104468333D01*
X165856904Y-104468333D01*
X165952142Y-104515952D01*
X165999761Y-104563571D01*
X166047380Y-104658809D01*
X166047380Y-104944523D01*
X165999761Y-105039761D01*
X165952142Y-105087380D01*
X163816619Y-115484423D02*
X163816619Y-114844423D01*
X163969000Y-114844423D01*
X164060428Y-114874900D01*
X164121380Y-114935852D01*
X164151857Y-114996804D01*
X164182333Y-115118709D01*
X164182333Y-115210138D01*
X164151857Y-115332042D01*
X164121380Y-115392995D01*
X164060428Y-115453947D01*
X163969000Y-115484423D01*
X163816619Y-115484423D01*
X164730904Y-115057757D02*
X164730904Y-115484423D01*
X164578523Y-114813947D02*
X164426142Y-115271090D01*
X164822333Y-115271090D01*
X135711809Y-89760895D02*
X135681759Y-89790946D01*
X135591608Y-89820996D01*
X135531507Y-89820996D01*
X135441356Y-89790946D01*
X135381255Y-89730845D01*
X135351205Y-89670744D01*
X135321154Y-89550543D01*
X135321154Y-89460392D01*
X135351205Y-89340190D01*
X135381255Y-89280089D01*
X135441356Y-89219989D01*
X135531507Y-89189938D01*
X135591608Y-89189938D01*
X135681759Y-89219989D01*
X135711809Y-89250039D01*
X135952212Y-89250039D02*
X135982263Y-89219989D01*
X136042364Y-89189938D01*
X136192615Y-89189938D01*
X136252716Y-89219989D01*
X136282767Y-89250039D01*
X136312817Y-89310140D01*
X136312817Y-89370240D01*
X136282767Y-89460392D01*
X135922162Y-89820996D01*
X136312817Y-89820996D01*
X136553220Y-89250039D02*
X136583270Y-89219989D01*
X136643371Y-89189938D01*
X136793623Y-89189938D01*
X136853724Y-89219989D01*
X136883774Y-89250039D01*
X136913825Y-89310140D01*
X136913825Y-89370240D01*
X136883774Y-89460392D01*
X136523170Y-89820996D01*
X136913825Y-89820996D01*
X142465377Y-77367680D02*
X142495428Y-77397730D01*
X142525478Y-77487881D01*
X142525478Y-77547982D01*
X142495428Y-77638133D01*
X142435327Y-77698234D01*
X142375226Y-77728284D01*
X142255025Y-77758335D01*
X142164874Y-77758335D01*
X142044672Y-77728284D01*
X141984571Y-77698234D01*
X141924471Y-77638133D01*
X141894420Y-77547982D01*
X141894420Y-77487881D01*
X141924471Y-77397730D01*
X141954521Y-77367680D01*
X141954521Y-77127277D02*
X141924471Y-77097226D01*
X141894420Y-77037125D01*
X141894420Y-76886874D01*
X141924471Y-76826773D01*
X141954521Y-76796722D01*
X142014622Y-76766672D01*
X142074722Y-76766672D01*
X142164874Y-76796722D01*
X142525478Y-77157327D01*
X142525478Y-76766672D01*
X142525478Y-76165664D02*
X142525478Y-76526269D01*
X142525478Y-76345967D02*
X141894420Y-76345967D01*
X141984571Y-76406067D01*
X142044672Y-76466168D01*
X142074722Y-76526269D01*
X147569313Y-89887895D02*
X147539263Y-89917946D01*
X147449112Y-89947996D01*
X147389011Y-89947996D01*
X147298860Y-89917946D01*
X147238759Y-89857845D01*
X147208709Y-89797744D01*
X147178658Y-89677543D01*
X147178658Y-89587392D01*
X147208709Y-89467190D01*
X147238759Y-89407089D01*
X147298860Y-89346989D01*
X147389011Y-89316938D01*
X147449112Y-89316938D01*
X147539263Y-89346989D01*
X147569313Y-89377039D01*
X147779666Y-89316938D02*
X148200371Y-89316938D01*
X147929918Y-89947996D01*
X154149377Y-77448176D02*
X154179428Y-77478226D01*
X154209478Y-77568377D01*
X154209478Y-77628478D01*
X154179428Y-77718629D01*
X154119327Y-77778730D01*
X154059226Y-77808780D01*
X153939025Y-77838831D01*
X153848874Y-77838831D01*
X153728672Y-77808780D01*
X153668571Y-77778730D01*
X153608471Y-77718629D01*
X153578420Y-77628478D01*
X153578420Y-77568377D01*
X153608471Y-77478226D01*
X153638521Y-77448176D01*
X153578420Y-76907269D02*
X153578420Y-77027471D01*
X153608471Y-77087571D01*
X153638521Y-77117622D01*
X153728672Y-77177722D01*
X153848874Y-77207773D01*
X154089277Y-77207773D01*
X154149377Y-77177722D01*
X154179428Y-77147672D01*
X154209478Y-77087571D01*
X154209478Y-76967370D01*
X154179428Y-76907269D01*
X154149377Y-76877219D01*
X154089277Y-76847168D01*
X153939025Y-76847168D01*
X153878924Y-76877219D01*
X153848874Y-76907269D01*
X153818823Y-76967370D01*
X153818823Y-77087571D01*
X153848874Y-77147672D01*
X153878924Y-77177722D01*
X153939025Y-77207773D01*
X93853333Y-91847142D02*
X93805714Y-91894761D01*
X93662857Y-91942380D01*
X93567619Y-91942380D01*
X93424761Y-91894761D01*
X93329523Y-91799523D01*
X93281904Y-91704285D01*
X93234285Y-91513809D01*
X93234285Y-91370952D01*
X93281904Y-91180476D01*
X93329523Y-91085238D01*
X93424761Y-90990000D01*
X93567619Y-90942380D01*
X93662857Y-90942380D01*
X93805714Y-90990000D01*
X93853333Y-91037619D01*
X94805714Y-91942380D02*
X94234285Y-91942380D01*
X94520000Y-91942380D02*
X94520000Y-90942380D01*
X94424761Y-91085238D01*
X94329523Y-91180476D01*
X94234285Y-91228095D01*
X99447333Y-109457142D02*
X99399714Y-109504761D01*
X99256857Y-109552380D01*
X99161619Y-109552380D01*
X99018761Y-109504761D01*
X98923523Y-109409523D01*
X98875904Y-109314285D01*
X98828285Y-109123809D01*
X98828285Y-108980952D01*
X98875904Y-108790476D01*
X98923523Y-108695238D01*
X99018761Y-108600000D01*
X99161619Y-108552380D01*
X99256857Y-108552380D01*
X99399714Y-108600000D01*
X99447333Y-108647619D01*
X100018761Y-108980952D02*
X99923523Y-108933333D01*
X99875904Y-108885714D01*
X99828285Y-108790476D01*
X99828285Y-108742857D01*
X99875904Y-108647619D01*
X99923523Y-108600000D01*
X100018761Y-108552380D01*
X100209238Y-108552380D01*
X100304476Y-108600000D01*
X100352095Y-108647619D01*
X100399714Y-108742857D01*
X100399714Y-108790476D01*
X100352095Y-108885714D01*
X100304476Y-108933333D01*
X100209238Y-108980952D01*
X100018761Y-108980952D01*
X99923523Y-109028571D01*
X99875904Y-109076190D01*
X99828285Y-109171428D01*
X99828285Y-109361904D01*
X99875904Y-109457142D01*
X99923523Y-109504761D01*
X100018761Y-109552380D01*
X100209238Y-109552380D01*
X100304476Y-109504761D01*
X100352095Y-109457142D01*
X100399714Y-109361904D01*
X100399714Y-109171428D01*
X100352095Y-109076190D01*
X100304476Y-109028571D01*
X100209238Y-108980952D01*
X98944133Y-115698542D02*
X98896514Y-115746161D01*
X98753657Y-115793780D01*
X98658419Y-115793780D01*
X98515561Y-115746161D01*
X98420323Y-115650923D01*
X98372704Y-115555685D01*
X98325085Y-115365209D01*
X98325085Y-115222352D01*
X98372704Y-115031876D01*
X98420323Y-114936638D01*
X98515561Y-114841400D01*
X98658419Y-114793780D01*
X98753657Y-114793780D01*
X98896514Y-114841400D01*
X98944133Y-114889019D01*
X99420323Y-115793780D02*
X99610800Y-115793780D01*
X99706038Y-115746161D01*
X99753657Y-115698542D01*
X99848895Y-115555685D01*
X99896514Y-115365209D01*
X99896514Y-114984257D01*
X99848895Y-114889019D01*
X99801276Y-114841400D01*
X99706038Y-114793780D01*
X99515561Y-114793780D01*
X99420323Y-114841400D01*
X99372704Y-114889019D01*
X99325085Y-114984257D01*
X99325085Y-115222352D01*
X99372704Y-115317590D01*
X99420323Y-115365209D01*
X99515561Y-115412828D01*
X99706038Y-115412828D01*
X99801276Y-115365209D01*
X99848895Y-115317590D01*
X99896514Y-115222352D01*
X111701342Y-124334542D02*
X111653723Y-124382161D01*
X111510866Y-124429780D01*
X111415628Y-124429780D01*
X111272771Y-124382161D01*
X111177533Y-124286923D01*
X111129914Y-124191685D01*
X111082295Y-124001209D01*
X111082295Y-123858352D01*
X111129914Y-123667876D01*
X111177533Y-123572638D01*
X111272771Y-123477400D01*
X111415628Y-123429780D01*
X111510866Y-123429780D01*
X111653723Y-123477400D01*
X111701342Y-123525019D01*
X112653723Y-124429780D02*
X112082295Y-124429780D01*
X112368009Y-124429780D02*
X112368009Y-123429780D01*
X112272771Y-123572638D01*
X112177533Y-123667876D01*
X112082295Y-123715495D01*
X113272771Y-123429780D02*
X113368009Y-123429780D01*
X113463247Y-123477400D01*
X113510866Y-123525019D01*
X113558485Y-123620257D01*
X113606104Y-123810733D01*
X113606104Y-124048828D01*
X113558485Y-124239304D01*
X113510866Y-124334542D01*
X113463247Y-124382161D01*
X113368009Y-124429780D01*
X113272771Y-124429780D01*
X113177533Y-124382161D01*
X113129914Y-124334542D01*
X113082295Y-124239304D01*
X113034676Y-124048828D01*
X113034676Y-123810733D01*
X113082295Y-123620257D01*
X113129914Y-123525019D01*
X113177533Y-123477400D01*
X113272771Y-123429780D01*
X116301142Y-110210542D02*
X116253523Y-110258161D01*
X116110666Y-110305780D01*
X116015428Y-110305780D01*
X115872571Y-110258161D01*
X115777333Y-110162923D01*
X115729714Y-110067685D01*
X115682095Y-109877209D01*
X115682095Y-109734352D01*
X115729714Y-109543876D01*
X115777333Y-109448638D01*
X115872571Y-109353400D01*
X116015428Y-109305780D01*
X116110666Y-109305780D01*
X116253523Y-109353400D01*
X116301142Y-109401019D01*
X117253523Y-110305780D02*
X116682095Y-110305780D01*
X116967809Y-110305780D02*
X116967809Y-109305780D01*
X116872571Y-109448638D01*
X116777333Y-109543876D01*
X116682095Y-109591495D01*
X118205904Y-110305780D02*
X117634476Y-110305780D01*
X117920190Y-110305780D02*
X117920190Y-109305780D01*
X117824952Y-109448638D01*
X117729714Y-109543876D01*
X117634476Y-109591495D01*
X104231342Y-124793342D02*
X104183723Y-124840961D01*
X104040866Y-124888580D01*
X103945628Y-124888580D01*
X103802771Y-124840961D01*
X103707533Y-124745723D01*
X103659914Y-124650485D01*
X103612295Y-124460009D01*
X103612295Y-124317152D01*
X103659914Y-124126676D01*
X103707533Y-124031438D01*
X103802771Y-123936200D01*
X103945628Y-123888580D01*
X104040866Y-123888580D01*
X104183723Y-123936200D01*
X104231342Y-123983819D01*
X105183723Y-124888580D02*
X104612295Y-124888580D01*
X104898009Y-124888580D02*
X104898009Y-123888580D01*
X104802771Y-124031438D01*
X104707533Y-124126676D01*
X104612295Y-124174295D01*
X105517057Y-123888580D02*
X106136104Y-123888580D01*
X105802771Y-124269533D01*
X105945628Y-124269533D01*
X106040866Y-124317152D01*
X106088485Y-124364771D01*
X106136104Y-124460009D01*
X106136104Y-124698104D01*
X106088485Y-124793342D01*
X106040866Y-124840961D01*
X105945628Y-124888580D01*
X105659914Y-124888580D01*
X105564676Y-124840961D01*
X105517057Y-124793342D01*
X103347142Y-96707142D02*
X103299523Y-96754761D01*
X103156666Y-96802380D01*
X103061428Y-96802380D01*
X102918571Y-96754761D01*
X102823333Y-96659523D01*
X102775714Y-96564285D01*
X102728095Y-96373809D01*
X102728095Y-96230952D01*
X102775714Y-96040476D01*
X102823333Y-95945238D01*
X102918571Y-95850000D01*
X103061428Y-95802380D01*
X103156666Y-95802380D01*
X103299523Y-95850000D01*
X103347142Y-95897619D01*
X104299523Y-96802380D02*
X103728095Y-96802380D01*
X104013809Y-96802380D02*
X104013809Y-95802380D01*
X103918571Y-95945238D01*
X103823333Y-96040476D01*
X103728095Y-96088095D01*
X104870952Y-96230952D02*
X104775714Y-96183333D01*
X104728095Y-96135714D01*
X104680476Y-96040476D01*
X104680476Y-95992857D01*
X104728095Y-95897619D01*
X104775714Y-95850000D01*
X104870952Y-95802380D01*
X105061428Y-95802380D01*
X105156666Y-95850000D01*
X105204285Y-95897619D01*
X105251904Y-95992857D01*
X105251904Y-96040476D01*
X105204285Y-96135714D01*
X105156666Y-96183333D01*
X105061428Y-96230952D01*
X104870952Y-96230952D01*
X104775714Y-96278571D01*
X104728095Y-96326190D01*
X104680476Y-96421428D01*
X104680476Y-96611904D01*
X104728095Y-96707142D01*
X104775714Y-96754761D01*
X104870952Y-96802380D01*
X105061428Y-96802380D01*
X105156666Y-96754761D01*
X105204285Y-96707142D01*
X105251904Y-96611904D01*
X105251904Y-96421428D01*
X105204285Y-96326190D01*
X105156666Y-96278571D01*
X105061428Y-96230952D01*
X79238095Y-61252380D02*
X79238095Y-60252380D01*
X79238095Y-60728571D02*
X79809523Y-60728571D01*
X79809523Y-61252380D02*
X79809523Y-60252380D01*
X80809523Y-61252380D02*
X80238095Y-61252380D01*
X80523809Y-61252380D02*
X80523809Y-60252380D01*
X80428571Y-60395238D01*
X80333333Y-60490476D01*
X80238095Y-60538095D01*
X169238095Y-61252380D02*
X169238095Y-60252380D01*
X169238095Y-60728571D02*
X169809523Y-60728571D01*
X169809523Y-61252380D02*
X169809523Y-60252380D01*
X170238095Y-60347619D02*
X170285714Y-60300000D01*
X170380952Y-60252380D01*
X170619047Y-60252380D01*
X170714285Y-60300000D01*
X170761904Y-60347619D01*
X170809523Y-60442857D01*
X170809523Y-60538095D01*
X170761904Y-60680952D01*
X170190476Y-61252380D01*
X170809523Y-61252380D01*
X169238095Y-151252380D02*
X169238095Y-150252380D01*
X169238095Y-150728571D02*
X169809523Y-150728571D01*
X169809523Y-151252380D02*
X169809523Y-150252380D01*
X170714285Y-150585714D02*
X170714285Y-151252380D01*
X170476190Y-150204761D02*
X170238095Y-150919047D01*
X170857142Y-150919047D01*
X127327066Y-110849980D02*
X127327066Y-111564266D01*
X127279447Y-111707123D01*
X127184209Y-111802361D01*
X127041352Y-111849980D01*
X126946114Y-111849980D01*
X128327066Y-111849980D02*
X127755638Y-111849980D01*
X128041352Y-111849980D02*
X128041352Y-110849980D01*
X127946114Y-110992838D01*
X127850876Y-111088076D01*
X127755638Y-111135695D01*
X171966666Y-106427380D02*
X171966666Y-107141666D01*
X171919047Y-107284523D01*
X171823809Y-107379761D01*
X171680952Y-107427380D01*
X171585714Y-107427380D01*
X172395238Y-106522619D02*
X172442857Y-106475000D01*
X172538095Y-106427380D01*
X172776190Y-106427380D01*
X172871428Y-106475000D01*
X172919047Y-106522619D01*
X172966666Y-106617857D01*
X172966666Y-106713095D01*
X172919047Y-106855952D01*
X172347619Y-107427380D01*
X172966666Y-107427380D01*
X122887666Y-82901380D02*
X122887666Y-83615666D01*
X122840047Y-83758523D01*
X122744809Y-83853761D01*
X122601952Y-83901380D01*
X122506714Y-83901380D01*
X123411476Y-83901380D02*
X123601952Y-83901380D01*
X123697190Y-83853761D01*
X123744809Y-83806142D01*
X123840047Y-83663285D01*
X123887666Y-83472809D01*
X123887666Y-83091857D01*
X123840047Y-82996619D01*
X123792428Y-82949000D01*
X123697190Y-82901380D01*
X123506714Y-82901380D01*
X123411476Y-82949000D01*
X123363857Y-82996619D01*
X123316238Y-83091857D01*
X123316238Y-83329952D01*
X123363857Y-83425190D01*
X123411476Y-83472809D01*
X123506714Y-83520428D01*
X123697190Y-83520428D01*
X123792428Y-83472809D01*
X123840047Y-83425190D01*
X123887666Y-83329952D01*
X123504761Y-138647619D02*
X123409523Y-138600000D01*
X123314285Y-138504761D01*
X123171428Y-138361904D01*
X123076190Y-138314285D01*
X122980952Y-138314285D01*
X123028571Y-138552380D02*
X122933333Y-138504761D01*
X122838095Y-138409523D01*
X122790476Y-138219047D01*
X122790476Y-137885714D01*
X122838095Y-137695238D01*
X122933333Y-137600000D01*
X123028571Y-137552380D01*
X123219047Y-137552380D01*
X123314285Y-137600000D01*
X123409523Y-137695238D01*
X123457142Y-137885714D01*
X123457142Y-138219047D01*
X123409523Y-138409523D01*
X123314285Y-138504761D01*
X123219047Y-138552380D01*
X123028571Y-138552380D01*
X124409523Y-138552380D02*
X123838095Y-138552380D01*
X124123809Y-138552380D02*
X124123809Y-137552380D01*
X124028571Y-137695238D01*
X123933333Y-137790476D01*
X123838095Y-137838095D01*
X89407142Y-100177380D02*
X89073809Y-99701190D01*
X88835714Y-100177380D02*
X88835714Y-99177380D01*
X89216666Y-99177380D01*
X89311904Y-99225000D01*
X89359523Y-99272619D01*
X89407142Y-99367857D01*
X89407142Y-99510714D01*
X89359523Y-99605952D01*
X89311904Y-99653571D01*
X89216666Y-99701190D01*
X88835714Y-99701190D01*
X90359523Y-100177380D02*
X89788095Y-100177380D01*
X90073809Y-100177380D02*
X90073809Y-99177380D01*
X89978571Y-99320238D01*
X89883333Y-99415476D01*
X89788095Y-99463095D01*
X91311904Y-100177380D02*
X90740476Y-100177380D01*
X91026190Y-100177380D02*
X91026190Y-99177380D01*
X90930952Y-99320238D01*
X90835714Y-99415476D01*
X90740476Y-99463095D01*
X159511080Y-74046857D02*
X159034890Y-74380190D01*
X159511080Y-74618285D02*
X158511080Y-74618285D01*
X158511080Y-74237333D01*
X158558700Y-74142095D01*
X158606319Y-74094476D01*
X158701557Y-74046857D01*
X158844414Y-74046857D01*
X158939652Y-74094476D01*
X158987271Y-74142095D01*
X159034890Y-74237333D01*
X159034890Y-74618285D01*
X159511080Y-73094476D02*
X159511080Y-73665904D01*
X159511080Y-73380190D02*
X158511080Y-73380190D01*
X158653938Y-73475428D01*
X158749176Y-73570666D01*
X158796795Y-73665904D01*
X158511080Y-72237333D02*
X158511080Y-72427809D01*
X158558700Y-72523047D01*
X158606319Y-72570666D01*
X158749176Y-72665904D01*
X158939652Y-72713523D01*
X159320604Y-72713523D01*
X159415842Y-72665904D01*
X159463461Y-72618285D01*
X159511080Y-72523047D01*
X159511080Y-72332571D01*
X159463461Y-72237333D01*
X159415842Y-72189714D01*
X159320604Y-72142095D01*
X159082509Y-72142095D01*
X158987271Y-72189714D01*
X158939652Y-72237333D01*
X158892033Y-72332571D01*
X158892033Y-72523047D01*
X158939652Y-72618285D01*
X158987271Y-72665904D01*
X159082509Y-72713523D01*
X107344095Y-106824780D02*
X107344095Y-107634304D01*
X107391714Y-107729542D01*
X107439333Y-107777161D01*
X107534571Y-107824780D01*
X107725047Y-107824780D01*
X107820285Y-107777161D01*
X107867904Y-107729542D01*
X107915523Y-107634304D01*
X107915523Y-106824780D01*
X108915523Y-107824780D02*
X108344095Y-107824780D01*
X108629809Y-107824780D02*
X108629809Y-106824780D01*
X108534571Y-106967638D01*
X108439333Y-107062876D01*
X108344095Y-107110495D01*
X96518095Y-92382380D02*
X96518095Y-93191904D01*
X96565714Y-93287142D01*
X96613333Y-93334761D01*
X96708571Y-93382380D01*
X96899047Y-93382380D01*
X96994285Y-93334761D01*
X97041904Y-93287142D01*
X97089523Y-93191904D01*
X97089523Y-92382380D01*
X97470476Y-92382380D02*
X98089523Y-92382380D01*
X97756190Y-92763333D01*
X97899047Y-92763333D01*
X97994285Y-92810952D01*
X98041904Y-92858571D01*
X98089523Y-92953809D01*
X98089523Y-93191904D01*
X98041904Y-93287142D01*
X97994285Y-93334761D01*
X97899047Y-93382380D01*
X97613333Y-93382380D01*
X97518095Y-93334761D01*
X97470476Y-93287142D01*
X137322895Y-136831780D02*
X137322895Y-137641304D01*
X137370514Y-137736542D01*
X137418133Y-137784161D01*
X137513371Y-137831780D01*
X137703847Y-137831780D01*
X137799085Y-137784161D01*
X137846704Y-137736542D01*
X137894323Y-137641304D01*
X137894323Y-136831780D01*
X138513371Y-137260352D02*
X138418133Y-137212733D01*
X138370514Y-137165114D01*
X138322895Y-137069876D01*
X138322895Y-137022257D01*
X138370514Y-136927019D01*
X138418133Y-136879400D01*
X138513371Y-136831780D01*
X138703847Y-136831780D01*
X138799085Y-136879400D01*
X138846704Y-136927019D01*
X138894323Y-137022257D01*
X138894323Y-137069876D01*
X138846704Y-137165114D01*
X138799085Y-137212733D01*
X138703847Y-137260352D01*
X138513371Y-137260352D01*
X138418133Y-137307971D01*
X138370514Y-137355590D01*
X138322895Y-137450828D01*
X138322895Y-137641304D01*
X138370514Y-137736542D01*
X138418133Y-137784161D01*
X138513371Y-137831780D01*
X138703847Y-137831780D01*
X138799085Y-137784161D01*
X138846704Y-137736542D01*
X138894323Y-137641304D01*
X138894323Y-137450828D01*
X138846704Y-137355590D01*
X138799085Y-137307971D01*
X138703847Y-137260352D01*
X84188095Y-140352380D02*
X84188095Y-141161904D01*
X84235714Y-141257142D01*
X84283333Y-141304761D01*
X84378571Y-141352380D01*
X84569047Y-141352380D01*
X84664285Y-141304761D01*
X84711904Y-141257142D01*
X84759523Y-141161904D01*
X84759523Y-140352380D01*
X85283333Y-141352380D02*
X85473809Y-141352380D01*
X85569047Y-141304761D01*
X85616666Y-141257142D01*
X85711904Y-141114285D01*
X85759523Y-140923809D01*
X85759523Y-140542857D01*
X85711904Y-140447619D01*
X85664285Y-140400000D01*
X85569047Y-140352380D01*
X85378571Y-140352380D01*
X85283333Y-140400000D01*
X85235714Y-140447619D01*
X85188095Y-140542857D01*
X85188095Y-140780952D01*
X85235714Y-140876190D01*
X85283333Y-140923809D01*
X85378571Y-140971428D01*
X85569047Y-140971428D01*
X85664285Y-140923809D01*
X85711904Y-140876190D01*
X85759523Y-140780952D01*
X150341080Y-74132095D02*
X149341080Y-74132095D01*
X149341080Y-73894000D01*
X149388700Y-73751142D01*
X149483938Y-73655904D01*
X149579176Y-73608285D01*
X149769652Y-73560666D01*
X149912509Y-73560666D01*
X150102985Y-73608285D01*
X150198223Y-73655904D01*
X150293461Y-73751142D01*
X150341080Y-73894000D01*
X150341080Y-74132095D01*
X149341080Y-73227333D02*
X149341080Y-72608285D01*
X149722033Y-72941619D01*
X149722033Y-72798761D01*
X149769652Y-72703523D01*
X149817271Y-72655904D01*
X149912509Y-72608285D01*
X150150604Y-72608285D01*
X150245842Y-72655904D01*
X150293461Y-72703523D01*
X150341080Y-72798761D01*
X150341080Y-73084476D01*
X150293461Y-73179714D01*
X150245842Y-73227333D01*
X80402033Y-112306380D02*
X80068700Y-111830190D01*
X79830604Y-112306380D02*
X79830604Y-111306380D01*
X80211557Y-111306380D01*
X80306795Y-111354000D01*
X80354414Y-111401619D01*
X80402033Y-111496857D01*
X80402033Y-111639714D01*
X80354414Y-111734952D01*
X80306795Y-111782571D01*
X80211557Y-111830190D01*
X79830604Y-111830190D01*
X81354414Y-112306380D02*
X80782985Y-112306380D01*
X81068700Y-112306380D02*
X81068700Y-111306380D01*
X80973461Y-111449238D01*
X80878223Y-111544476D01*
X80782985Y-111592095D01*
X80148033Y-107353380D02*
X79814700Y-106877190D01*
X79576604Y-107353380D02*
X79576604Y-106353380D01*
X79957557Y-106353380D01*
X80052795Y-106401000D01*
X80100414Y-106448619D01*
X80148033Y-106543857D01*
X80148033Y-106686714D01*
X80100414Y-106781952D01*
X80052795Y-106829571D01*
X79957557Y-106877190D01*
X79576604Y-106877190D01*
X80528985Y-106448619D02*
X80576604Y-106401000D01*
X80671842Y-106353380D01*
X80909938Y-106353380D01*
X81005176Y-106401000D01*
X81052795Y-106448619D01*
X81100414Y-106543857D01*
X81100414Y-106639095D01*
X81052795Y-106781952D01*
X80481366Y-107353380D01*
X81100414Y-107353380D01*
X84274705Y-107368381D02*
X84274705Y-106368381D01*
X84512801Y-106368381D01*
X84655658Y-106416001D01*
X84750896Y-106511239D01*
X84798515Y-106606477D01*
X84846134Y-106796953D01*
X84846134Y-106939810D01*
X84798515Y-107130286D01*
X84750896Y-107225524D01*
X84655658Y-107320762D01*
X84512801Y-107368381D01*
X84274705Y-107368381D01*
X85227086Y-106463620D02*
X85274705Y-106416001D01*
X85369943Y-106368381D01*
X85608039Y-106368381D01*
X85703277Y-106416001D01*
X85750896Y-106463620D01*
X85798515Y-106558858D01*
X85798515Y-106654096D01*
X85750896Y-106796953D01*
X85179467Y-107368381D01*
X85798515Y-107368381D01*
X84227604Y-112086380D02*
X84227604Y-111086380D01*
X84465700Y-111086380D01*
X84608557Y-111134000D01*
X84703795Y-111229238D01*
X84751414Y-111324476D01*
X84799033Y-111514952D01*
X84799033Y-111657809D01*
X84751414Y-111848285D01*
X84703795Y-111943523D01*
X84608557Y-112038761D01*
X84465700Y-112086380D01*
X84227604Y-112086380D01*
X85751414Y-112086380D02*
X85179985Y-112086380D01*
X85465700Y-112086380D02*
X85465700Y-111086380D01*
X85370461Y-111229238D01*
X85275223Y-111324476D01*
X85179985Y-111372095D01*
X140650295Y-136857180D02*
X140650295Y-137666704D01*
X140697914Y-137761942D01*
X140745533Y-137809561D01*
X140840771Y-137857180D01*
X141031247Y-137857180D01*
X141126485Y-137809561D01*
X141174104Y-137761942D01*
X141221723Y-137666704D01*
X141221723Y-136857180D01*
X141602676Y-136857180D02*
X142269342Y-136857180D01*
X141840771Y-137857180D01*
X152675204Y-143275580D02*
X152675204Y-142275580D01*
X152913300Y-142275580D01*
X153056157Y-142323200D01*
X153151395Y-142418438D01*
X153199014Y-142513676D01*
X153246633Y-142704152D01*
X153246633Y-142847009D01*
X153199014Y-143037485D01*
X153151395Y-143132723D01*
X153056157Y-143227961D01*
X152913300Y-143275580D01*
X152675204Y-143275580D01*
X154151395Y-142275580D02*
X153675204Y-142275580D01*
X153627585Y-142751771D01*
X153675204Y-142704152D01*
X153770442Y-142656533D01*
X154008538Y-142656533D01*
X154103776Y-142704152D01*
X154151395Y-142751771D01*
X154199014Y-142847009D01*
X154199014Y-143085104D01*
X154151395Y-143180342D01*
X154103776Y-143227961D01*
X154008538Y-143275580D01*
X153770442Y-143275580D01*
X153675204Y-143227961D01*
X153627585Y-143180342D01*
X157592733Y-143428980D02*
X157259400Y-142952790D01*
X157021304Y-143428980D02*
X157021304Y-142428980D01*
X157402257Y-142428980D01*
X157497495Y-142476600D01*
X157545114Y-142524219D01*
X157592733Y-142619457D01*
X157592733Y-142762314D01*
X157545114Y-142857552D01*
X157497495Y-142905171D01*
X157402257Y-142952790D01*
X157021304Y-142952790D01*
X157926066Y-142428980D02*
X158545114Y-142428980D01*
X158211780Y-142809933D01*
X158354638Y-142809933D01*
X158449876Y-142857552D01*
X158497495Y-142905171D01*
X158545114Y-143000409D01*
X158545114Y-143238504D01*
X158497495Y-143333742D01*
X158449876Y-143381361D01*
X158354638Y-143428980D01*
X158068923Y-143428980D01*
X157973685Y-143381361D01*
X157926066Y-143333742D01*
X127404761Y-138647419D02*
X127309523Y-138599800D01*
X127214285Y-138504561D01*
X127071428Y-138361704D01*
X126976190Y-138314085D01*
X126880952Y-138314085D01*
X126928571Y-138552180D02*
X126833333Y-138504561D01*
X126738095Y-138409323D01*
X126690476Y-138218847D01*
X126690476Y-137885514D01*
X126738095Y-137695038D01*
X126833333Y-137599800D01*
X126928571Y-137552180D01*
X127119047Y-137552180D01*
X127214285Y-137599800D01*
X127309523Y-137695038D01*
X127357142Y-137885514D01*
X127357142Y-138218847D01*
X127309523Y-138409323D01*
X127214285Y-138504561D01*
X127119047Y-138552180D01*
X126928571Y-138552180D01*
X127738095Y-137647419D02*
X127785714Y-137599800D01*
X127880952Y-137552180D01*
X128119047Y-137552180D01*
X128214285Y-137599800D01*
X128261904Y-137647419D01*
X128309523Y-137742657D01*
X128309523Y-137837895D01*
X128261904Y-137980752D01*
X127690476Y-138552180D01*
X128309523Y-138552180D01*
X79238095Y-151252380D02*
X79238095Y-150252380D01*
X79238095Y-150728571D02*
X79809523Y-150728571D01*
X79809523Y-151252380D02*
X79809523Y-150252380D01*
X80190476Y-150252380D02*
X80809523Y-150252380D01*
X80476190Y-150633333D01*
X80619047Y-150633333D01*
X80714285Y-150680952D01*
X80761904Y-150728571D01*
X80809523Y-150823809D01*
X80809523Y-151061904D01*
X80761904Y-151157142D01*
X80714285Y-151204761D01*
X80619047Y-151252380D01*
X80333333Y-151252380D01*
X80238095Y-151204761D01*
X80190476Y-151157142D01*
X100654342Y-107607142D02*
X100606723Y-107654761D01*
X100463866Y-107702380D01*
X100368628Y-107702380D01*
X100225771Y-107654761D01*
X100130533Y-107559523D01*
X100082914Y-107464285D01*
X100035295Y-107273809D01*
X100035295Y-107130952D01*
X100082914Y-106940476D01*
X100130533Y-106845238D01*
X100225771Y-106750000D01*
X100368628Y-106702380D01*
X100463866Y-106702380D01*
X100606723Y-106750000D01*
X100654342Y-106797619D01*
X101606723Y-107702380D02*
X101035295Y-107702380D01*
X101321009Y-107702380D02*
X101321009Y-106702380D01*
X101225771Y-106845238D01*
X101130533Y-106940476D01*
X101035295Y-106988095D01*
X101987676Y-106797619D02*
X102035295Y-106750000D01*
X102130533Y-106702380D01*
X102368628Y-106702380D01*
X102463866Y-106750000D01*
X102511485Y-106797619D01*
X102559104Y-106892857D01*
X102559104Y-106988095D01*
X102511485Y-107130952D01*
X101940057Y-107702380D01*
X102559104Y-107702380D01*
X130446666Y-146152380D02*
X130446666Y-146866666D01*
X130399047Y-147009523D01*
X130303809Y-147104761D01*
X130160952Y-147152380D01*
X130065714Y-147152380D01*
X130827619Y-146152380D02*
X131494285Y-146152380D01*
X131065714Y-147152380D01*
X111607142Y-132297380D02*
X111273809Y-131821190D01*
X111035714Y-132297380D02*
X111035714Y-131297380D01*
X111416666Y-131297380D01*
X111511904Y-131345000D01*
X111559523Y-131392619D01*
X111607142Y-131487857D01*
X111607142Y-131630714D01*
X111559523Y-131725952D01*
X111511904Y-131773571D01*
X111416666Y-131821190D01*
X111035714Y-131821190D01*
X111988095Y-131392619D02*
X112035714Y-131345000D01*
X112130952Y-131297380D01*
X112369047Y-131297380D01*
X112464285Y-131345000D01*
X112511904Y-131392619D01*
X112559523Y-131487857D01*
X112559523Y-131583095D01*
X112511904Y-131725952D01*
X111940476Y-132297380D01*
X112559523Y-132297380D01*
X113178571Y-131297380D02*
X113273809Y-131297380D01*
X113369047Y-131345000D01*
X113416666Y-131392619D01*
X113464285Y-131487857D01*
X113511904Y-131678333D01*
X113511904Y-131916428D01*
X113464285Y-132106904D01*
X113416666Y-132202142D01*
X113369047Y-132249761D01*
X113273809Y-132297380D01*
X113178571Y-132297380D01*
X113083333Y-132249761D01*
X113035714Y-132202142D01*
X112988095Y-132106904D01*
X112940476Y-131916428D01*
X112940476Y-131678333D01*
X112988095Y-131487857D01*
X113035714Y-131392619D01*
X113083333Y-131345000D01*
X113178571Y-131297380D01*
X95781904Y-110782380D02*
X95781904Y-109782380D01*
X96020000Y-109782380D01*
X96162857Y-109830000D01*
X96258095Y-109925238D01*
X96305714Y-110020476D01*
X96353333Y-110210952D01*
X96353333Y-110353809D01*
X96305714Y-110544285D01*
X96258095Y-110639523D01*
X96162857Y-110734761D01*
X96020000Y-110782380D01*
X95781904Y-110782380D01*
X96686666Y-109782380D02*
X97353333Y-109782380D01*
X96924761Y-110782380D01*
X151767964Y-93924256D02*
X151507828Y-93924256D01*
X151507828Y-94333041D02*
X151507828Y-93552633D01*
X151879450Y-93552633D01*
X152585534Y-94333041D02*
X152139586Y-94333041D01*
X152362560Y-94333041D02*
X152362560Y-93552633D01*
X152288236Y-93664120D01*
X152213911Y-93738445D01*
X152139586Y-93775607D01*
X140157142Y-146207142D02*
X140109523Y-146254761D01*
X139966666Y-146302380D01*
X139871428Y-146302380D01*
X139728571Y-146254761D01*
X139633333Y-146159523D01*
X139585714Y-146064285D01*
X139538095Y-145873809D01*
X139538095Y-145730952D01*
X139585714Y-145540476D01*
X139633333Y-145445238D01*
X139728571Y-145350000D01*
X139871428Y-145302380D01*
X139966666Y-145302380D01*
X140109523Y-145350000D01*
X140157142Y-145397619D01*
X141109523Y-146302380D02*
X140538095Y-146302380D01*
X140823809Y-146302380D02*
X140823809Y-145302380D01*
X140728571Y-145445238D01*
X140633333Y-145540476D01*
X140538095Y-145588095D01*
X141585714Y-146302380D02*
X141776190Y-146302380D01*
X141871428Y-146254761D01*
X141919047Y-146207142D01*
X142014285Y-146064285D01*
X142061904Y-145873809D01*
X142061904Y-145492857D01*
X142014285Y-145397619D01*
X141966666Y-145350000D01*
X141871428Y-145302380D01*
X141680952Y-145302380D01*
X141585714Y-145350000D01*
X141538095Y-145397619D01*
X141490476Y-145492857D01*
X141490476Y-145730952D01*
X141538095Y-145826190D01*
X141585714Y-145873809D01*
X141680952Y-145921428D01*
X141871428Y-145921428D01*
X141966666Y-145873809D01*
X142014285Y-145826190D01*
X142061904Y-145730952D01*
X136907142Y-146207142D02*
X136859523Y-146254761D01*
X136716666Y-146302380D01*
X136621428Y-146302380D01*
X136478571Y-146254761D01*
X136383333Y-146159523D01*
X136335714Y-146064285D01*
X136288095Y-145873809D01*
X136288095Y-145730952D01*
X136335714Y-145540476D01*
X136383333Y-145445238D01*
X136478571Y-145350000D01*
X136621428Y-145302380D01*
X136716666Y-145302380D01*
X136859523Y-145350000D01*
X136907142Y-145397619D01*
X137288095Y-145397619D02*
X137335714Y-145350000D01*
X137430952Y-145302380D01*
X137669047Y-145302380D01*
X137764285Y-145350000D01*
X137811904Y-145397619D01*
X137859523Y-145492857D01*
X137859523Y-145588095D01*
X137811904Y-145730952D01*
X137240476Y-146302380D01*
X137859523Y-146302380D01*
X138478571Y-145302380D02*
X138573809Y-145302380D01*
X138669047Y-145350000D01*
X138716666Y-145397619D01*
X138764285Y-145492857D01*
X138811904Y-145683333D01*
X138811904Y-145921428D01*
X138764285Y-146111904D01*
X138716666Y-146207142D01*
X138669047Y-146254761D01*
X138573809Y-146302380D01*
X138478571Y-146302380D01*
X138383333Y-146254761D01*
X138335714Y-146207142D01*
X138288095Y-146111904D01*
X138240476Y-145921428D01*
X138240476Y-145683333D01*
X138288095Y-145492857D01*
X138335714Y-145397619D01*
X138383333Y-145350000D01*
X138478571Y-145302380D01*
X115857142Y-139737142D02*
X115809523Y-139784761D01*
X115666666Y-139832380D01*
X115571428Y-139832380D01*
X115428571Y-139784761D01*
X115333333Y-139689523D01*
X115285714Y-139594285D01*
X115238095Y-139403809D01*
X115238095Y-139260952D01*
X115285714Y-139070476D01*
X115333333Y-138975238D01*
X115428571Y-138880000D01*
X115571428Y-138832380D01*
X115666666Y-138832380D01*
X115809523Y-138880000D01*
X115857142Y-138927619D01*
X116809523Y-139832380D02*
X116238095Y-139832380D01*
X116523809Y-139832380D02*
X116523809Y-138832380D01*
X116428571Y-138975238D01*
X116333333Y-139070476D01*
X116238095Y-139118095D01*
X117666666Y-139165714D02*
X117666666Y-139832380D01*
X117428571Y-138784761D02*
X117190476Y-139499047D01*
X117809523Y-139499047D01*
X90462380Y-114942857D02*
X89986190Y-115276190D01*
X90462380Y-115514285D02*
X89462380Y-115514285D01*
X89462380Y-115133333D01*
X89510000Y-115038095D01*
X89557619Y-114990476D01*
X89652857Y-114942857D01*
X89795714Y-114942857D01*
X89890952Y-114990476D01*
X89938571Y-115038095D01*
X89986190Y-115133333D01*
X89986190Y-115514285D01*
X89557619Y-114561904D02*
X89510000Y-114514285D01*
X89462380Y-114419047D01*
X89462380Y-114180952D01*
X89510000Y-114085714D01*
X89557619Y-114038095D01*
X89652857Y-113990476D01*
X89748095Y-113990476D01*
X89890952Y-114038095D01*
X90462380Y-114609523D01*
X90462380Y-113990476D01*
X90462380Y-113038095D02*
X90462380Y-113609523D01*
X90462380Y-113323809D02*
X89462380Y-113323809D01*
X89605238Y-113419047D01*
X89700476Y-113514285D01*
X89748095Y-113609523D01*
X113982142Y-134672142D02*
X113934523Y-134719761D01*
X113791666Y-134767380D01*
X113696428Y-134767380D01*
X113553571Y-134719761D01*
X113458333Y-134624523D01*
X113410714Y-134529285D01*
X113363095Y-134338809D01*
X113363095Y-134195952D01*
X113410714Y-134005476D01*
X113458333Y-133910238D01*
X113553571Y-133815000D01*
X113696428Y-133767380D01*
X113791666Y-133767380D01*
X113934523Y-133815000D01*
X113982142Y-133862619D01*
X114934523Y-134767380D02*
X114363095Y-134767380D01*
X114648809Y-134767380D02*
X114648809Y-133767380D01*
X114553571Y-133910238D01*
X114458333Y-134005476D01*
X114363095Y-134053095D01*
X115839285Y-133767380D02*
X115363095Y-133767380D01*
X115315476Y-134243571D01*
X115363095Y-134195952D01*
X115458333Y-134148333D01*
X115696428Y-134148333D01*
X115791666Y-134195952D01*
X115839285Y-134243571D01*
X115886904Y-134338809D01*
X115886904Y-134576904D01*
X115839285Y-134672142D01*
X115791666Y-134719761D01*
X115696428Y-134767380D01*
X115458333Y-134767380D01*
X115363095Y-134719761D01*
X115315476Y-134672142D01*
X111438095Y-135352380D02*
X111438095Y-136161904D01*
X111485714Y-136257142D01*
X111533333Y-136304761D01*
X111628571Y-136352380D01*
X111819047Y-136352380D01*
X111914285Y-136304761D01*
X111961904Y-136257142D01*
X112009523Y-136161904D01*
X112009523Y-135352380D01*
X112914285Y-135352380D02*
X112723809Y-135352380D01*
X112628571Y-135400000D01*
X112580952Y-135447619D01*
X112485714Y-135590476D01*
X112438095Y-135780952D01*
X112438095Y-136161904D01*
X112485714Y-136257142D01*
X112533333Y-136304761D01*
X112628571Y-136352380D01*
X112819047Y-136352380D01*
X112914285Y-136304761D01*
X112961904Y-136257142D01*
X113009523Y-136161904D01*
X113009523Y-135923809D01*
X112961904Y-135828571D01*
X112914285Y-135780952D01*
X112819047Y-135733333D01*
X112628571Y-135733333D01*
X112533333Y-135780952D01*
X112485714Y-135828571D01*
X112438095Y-135923809D01*
X108507142Y-132242380D02*
X108173809Y-131766190D01*
X107935714Y-132242380D02*
X107935714Y-131242380D01*
X108316666Y-131242380D01*
X108411904Y-131290000D01*
X108459523Y-131337619D01*
X108507142Y-131432857D01*
X108507142Y-131575714D01*
X108459523Y-131670952D01*
X108411904Y-131718571D01*
X108316666Y-131766190D01*
X107935714Y-131766190D01*
X109459523Y-132242380D02*
X108888095Y-132242380D01*
X109173809Y-132242380D02*
X109173809Y-131242380D01*
X109078571Y-131385238D01*
X108983333Y-131480476D01*
X108888095Y-131528095D01*
X109935714Y-132242380D02*
X110126190Y-132242380D01*
X110221428Y-132194761D01*
X110269047Y-132147142D01*
X110364285Y-132004285D01*
X110411904Y-131813809D01*
X110411904Y-131432857D01*
X110364285Y-131337619D01*
X110316666Y-131290000D01*
X110221428Y-131242380D01*
X110030952Y-131242380D01*
X109935714Y-131290000D01*
X109888095Y-131337619D01*
X109840476Y-131432857D01*
X109840476Y-131670952D01*
X109888095Y-131766190D01*
X109935714Y-131813809D01*
X110030952Y-131861428D01*
X110221428Y-131861428D01*
X110316666Y-131813809D01*
X110364285Y-131766190D01*
X110411904Y-131670952D01*
X173397380Y-134458333D02*
X174111666Y-134458333D01*
X174254523Y-134505952D01*
X174349761Y-134601190D01*
X174397380Y-134744047D01*
X174397380Y-134839285D01*
X173397380Y-133505952D02*
X173397380Y-133982142D01*
X173873571Y-134029761D01*
X173825952Y-133982142D01*
X173778333Y-133886904D01*
X173778333Y-133648809D01*
X173825952Y-133553571D01*
X173873571Y-133505952D01*
X173968809Y-133458333D01*
X174206904Y-133458333D01*
X174302142Y-133505952D01*
X174349761Y-133553571D01*
X174397380Y-133648809D01*
X174397380Y-133886904D01*
X174349761Y-133982142D01*
X174302142Y-134029761D01*
D15*
X138337000Y-84459000D02*
X138337000Y-84959000D01*
X138337000Y-84959000D02*
X136237000Y-84959000D01*
X136237000Y-84959000D02*
X136237000Y-84459000D01*
X136237000Y-84459000D02*
X138337000Y-84459000D01*
X138437000Y-83634000D02*
X138437000Y-84109000D01*
X150021000Y-84459000D02*
X150021000Y-84959000D01*
X150021000Y-84959000D02*
X147921000Y-84959000D01*
X147921000Y-84959000D02*
X147921000Y-84459000D01*
X147921000Y-84459000D02*
X150021000Y-84459000D01*
X150121000Y-83634000D02*
X150121000Y-84109000D01*
D16*
X89553000Y-65541000D02*
X98153000Y-65541000D01*
X98153000Y-65541000D02*
X98153000Y-69841000D01*
X98153000Y-69841000D02*
X89553000Y-69841000D01*
X89553000Y-69841000D02*
X89553000Y-65541000D01*
X146297000Y-96946000D02*
X146057000Y-96946000D01*
X146297000Y-95586000D02*
X146057000Y-95586000D01*
X154604000Y-84081000D02*
X154604000Y-84321000D01*
X153244000Y-84081000D02*
X153244000Y-84321000D01*
X151518000Y-87585000D02*
X151758000Y-87585000D01*
X151518000Y-88945000D02*
X151758000Y-88945000D01*
X156763000Y-81541000D02*
X156763000Y-81781000D01*
X155403000Y-81541000D02*
X155403000Y-81781000D01*
X145079000Y-81668000D02*
X145079000Y-81908000D01*
X143719000Y-81668000D02*
X143719000Y-81908000D01*
X142920000Y-83573000D02*
X142920000Y-83813000D01*
X141560000Y-83573000D02*
X141560000Y-83813000D01*
X140596000Y-87458000D02*
X140836000Y-87458000D01*
X140596000Y-88818000D02*
X140836000Y-88818000D01*
D15*
X156748500Y-90297000D02*
G75*
G03*
X156748500Y-90297000I-100000J0D01*
G01*
D16*
X158648500Y-89683000D02*
X162648500Y-89683000D01*
X158648500Y-94721000D02*
X162648500Y-94721000D01*
D15*
X152881000Y-94679000D02*
G75*
G03*
X152881000Y-94679000I-100000J0D01*
G01*
D16*
X153395000Y-96679000D02*
X153395000Y-100679000D01*
X148357000Y-96679000D02*
X148357000Y-100679000D01*
D15*
X140176000Y-76221000D02*
G75*
G03*
X140176000Y-76221000I-100000J0D01*
G01*
X151860000Y-76221000D02*
G75*
G03*
X151860000Y-76221000I-100000J0D01*
G01*
D16*
X83922500Y-64445000D02*
X73782500Y-64445000D01*
X73782500Y-64445000D02*
X73782500Y-108275000D01*
X73782500Y-108275000D02*
X83922500Y-108275000D01*
D17*
X85712500Y-78610000D02*
G75*
G03*
X85712500Y-78610000I-200000J0D01*
G01*
D16*
X83922500Y-64445000D02*
X83922500Y-79640000D01*
X83922500Y-93080000D02*
X83922500Y-108275000D01*
X147391000Y-69466500D02*
X147391000Y-59326500D01*
X147391000Y-59326500D02*
X103561000Y-59326500D01*
X103561000Y-59326500D02*
X103561000Y-69466500D01*
D17*
X133426000Y-71056500D02*
G75*
G03*
X133426000Y-71056500I-200000J0D01*
G01*
D16*
X147391000Y-69466500D02*
X132196000Y-69466500D01*
X118756000Y-69466500D02*
X103561000Y-69466500D01*
X166720000Y-108275000D02*
X176860000Y-108275000D01*
X176860000Y-108275000D02*
X176860000Y-64445000D01*
X176860000Y-64445000D02*
X166720000Y-64445000D01*
D17*
X165330000Y-94110000D02*
G75*
G03*
X165330000Y-94110000I-200000J0D01*
G01*
D16*
X166720000Y-108275000D02*
X166720000Y-93080000D01*
X166720000Y-79640000D02*
X166720000Y-64445000D01*
X163398500Y-114341000D02*
X165023500Y-114341000D01*
X163398500Y-111211000D02*
X165023500Y-111211000D01*
D15*
X166866000Y-113721000D02*
G75*
G03*
X166866000Y-113721000I-100000J0D01*
G01*
D18*
X94132836Y-92240000D02*
X93917164Y-92240000D01*
X94132836Y-92960000D02*
X93917164Y-92960000D01*
X101857836Y-108740000D02*
X101642164Y-108740000D01*
X101857836Y-109460000D02*
X101642164Y-109460000D01*
X99221036Y-116946000D02*
X99005364Y-116946000D01*
X99221036Y-116226000D02*
X99005364Y-116226000D01*
X112236364Y-122220400D02*
X112452036Y-122220400D01*
X112236364Y-122940400D02*
X112452036Y-122940400D01*
X116836164Y-111383400D02*
X117051836Y-111383400D01*
X116836164Y-110663400D02*
X117051836Y-110663400D01*
X104982036Y-123626200D02*
X104766364Y-123626200D01*
X104982036Y-122906200D02*
X104766364Y-122906200D01*
X102270000Y-96237164D02*
X102270000Y-96452836D01*
X101550000Y-96237164D02*
X101550000Y-96452836D01*
X129425400Y-110397600D02*
X125895400Y-110397600D01*
X125895400Y-103992600D02*
X125895400Y-103927600D01*
X129425400Y-110397600D02*
X129425400Y-110332600D01*
X125895400Y-110397600D02*
X125895400Y-110332600D01*
X130750400Y-110332600D02*
X129425400Y-110332600D01*
X129425400Y-103927600D02*
X125895400Y-103927600D01*
X129425400Y-103992600D02*
X129425400Y-103927600D01*
X170580000Y-108610000D02*
X170580000Y-108990000D01*
X174630000Y-108610000D02*
X174890000Y-108610000D01*
X170580000Y-108610000D02*
X172350000Y-108610000D01*
X174890000Y-116230000D02*
X174630000Y-116230000D01*
X170580000Y-116230000D02*
X170580000Y-115850000D01*
X172350000Y-116230000D02*
X170580000Y-116230000D01*
X119091000Y-84739000D02*
X119091000Y-94959000D01*
X119091000Y-94959000D02*
X121751000Y-94959000D01*
X121751000Y-84739000D02*
X121751000Y-94959000D01*
X120421000Y-82139000D02*
X121751000Y-82139000D01*
X121751000Y-82139000D02*
X121751000Y-83469000D01*
X119091000Y-84739000D02*
X121751000Y-84739000D01*
X123596400Y-142276000D02*
X122946400Y-142276000D01*
X123596400Y-139156000D02*
X121921400Y-139156000D01*
X123596400Y-139156000D02*
X124246400Y-139156000D01*
X123596400Y-142276000D02*
X124246400Y-142276000D01*
X90935000Y-95772936D02*
X90935000Y-97227064D01*
X89115000Y-95772936D02*
X89115000Y-97227064D01*
X156712042Y-73928500D02*
X157186558Y-73928500D01*
X156712042Y-72883500D02*
X157186558Y-72883500D01*
X103946000Y-119882400D02*
X102996000Y-119882400D01*
X113216000Y-119882400D02*
X113216000Y-118932400D01*
X102996000Y-119882400D02*
X102996000Y-118932400D01*
X112266000Y-109662400D02*
X113216000Y-109662400D01*
X113216000Y-109662400D02*
X113216000Y-110612400D01*
X103946000Y-109662400D02*
X102996000Y-109662400D01*
X112266000Y-119882400D02*
X113216000Y-119882400D01*
X102996000Y-109662400D02*
X102996000Y-110612400D01*
X102996000Y-110612400D02*
X101656000Y-110612400D01*
X101216760Y-93789600D02*
X101216760Y-98399600D01*
X100416760Y-99199600D02*
X93316760Y-99199600D01*
X93316760Y-93789600D02*
X101216760Y-93789600D01*
X93316760Y-99199600D02*
X93316760Y-93789600D01*
X101216760Y-98399600D02*
X100416760Y-99199600D01*
X139371800Y-141254400D02*
X139371800Y-139354400D01*
X137051800Y-139854400D02*
X137051800Y-141254400D01*
X33620000Y-146989800D02*
X33620000Y-138989800D01*
X33620000Y-124989800D02*
X33620000Y-116989800D01*
X41320000Y-146989800D02*
X33620000Y-146989800D01*
X41320000Y-116989800D02*
X83820000Y-116989800D01*
X41320000Y-146989800D02*
X41320000Y-116989800D01*
X83820000Y-116989800D02*
X83820000Y-146989800D01*
X83820000Y-146989800D02*
X41320000Y-146989800D01*
X33620000Y-116989800D02*
X41320000Y-116989800D01*
X41320000Y-124989800D02*
X33620000Y-124989800D01*
X33620000Y-138989800D02*
X41320000Y-138989800D01*
G36*
X41320000Y-124989800D02*
G01*
X33620000Y-124989800D01*
X33620000Y-116989800D01*
X41320000Y-116989800D01*
X41320000Y-124989800D01*
G37*
D19*
X41320000Y-124989800D02*
X33620000Y-124989800D01*
X33620000Y-116989800D01*
X41320000Y-116989800D01*
X41320000Y-124989800D01*
G36*
X41320000Y-146989800D02*
G01*
X33620000Y-146989800D01*
X33620000Y-138989800D01*
X41320000Y-138989800D01*
X41320000Y-146989800D01*
G37*
X41320000Y-146989800D02*
X33620000Y-146989800D01*
X33620000Y-138989800D01*
X41320000Y-138989800D01*
X41320000Y-146989800D01*
D18*
X154339000Y-72446000D02*
X151654000Y-72446000D01*
X151654000Y-74366000D02*
X154339000Y-74366000D01*
X154339000Y-74366000D02*
X154339000Y-72446000D01*
X80331442Y-112761500D02*
X80805958Y-112761500D01*
X80331442Y-113806500D02*
X80805958Y-113806500D01*
X80077442Y-108853500D02*
X80551958Y-108853500D01*
X80077442Y-107808500D02*
X80551958Y-107808500D01*
X85812801Y-107611001D02*
X83527801Y-107611001D01*
X83527801Y-109081001D02*
X85812801Y-109081001D01*
X83527801Y-107611001D02*
X83527801Y-109081001D01*
X83280700Y-114244000D02*
X85965700Y-114244000D01*
X83280700Y-112324000D02*
X83280700Y-114244000D01*
X85965700Y-112324000D02*
X83280700Y-112324000D01*
X142597600Y-141254400D02*
X142597600Y-139354400D01*
X140277600Y-139854400D02*
X140277600Y-141254400D01*
X152413300Y-142133200D02*
X155098300Y-142133200D01*
X155098300Y-140213200D02*
X152413300Y-140213200D01*
X155098300Y-142133200D02*
X155098300Y-140213200D01*
X157996758Y-141695700D02*
X157522242Y-141695700D01*
X157996758Y-140650700D02*
X157522242Y-140650700D01*
X129060000Y-140725400D02*
X129060000Y-141375400D01*
X129060000Y-140725400D02*
X129060000Y-140075400D01*
X125940000Y-140725400D02*
X125940000Y-142400400D01*
X125940000Y-140725400D02*
X125940000Y-140075400D01*
X103972836Y-106890000D02*
X103757164Y-106890000D01*
X103972836Y-107610000D02*
X103757164Y-107610000D01*
X105850000Y-147178675D02*
X105600000Y-146745662D01*
X106100000Y-146745662D02*
X105850000Y-147178675D01*
X96020000Y-159980000D02*
X96020000Y-147640000D01*
X165540000Y-147640000D02*
X165540000Y-159980000D01*
X96020000Y-147640000D02*
X165540000Y-147640000D01*
X105600000Y-146745662D02*
X106100000Y-146745662D01*
X112487258Y-133742500D02*
X112012742Y-133742500D01*
X112487258Y-132697500D02*
X112012742Y-132697500D01*
X97320000Y-111025000D02*
X95035000Y-111025000D01*
X95035000Y-112495000D02*
X97320000Y-112495000D01*
X95035000Y-111025000D02*
X95035000Y-112495000D01*
D16*
X150628100Y-89947000D02*
X153428100Y-89947000D01*
X150628100Y-93187000D02*
X153428100Y-93187000D01*
D20*
X148098100Y-91767000D02*
G75*
G03*
X148098100Y-91767000I-150000J0D01*
G01*
D18*
X140440000Y-144072164D02*
X140440000Y-144287836D01*
X141160000Y-144072164D02*
X141160000Y-144287836D01*
X137910000Y-144062164D02*
X137910000Y-144277836D01*
X137190000Y-144062164D02*
X137190000Y-144277836D01*
X114265000Y-139487836D02*
X114265000Y-139272164D01*
X114985000Y-139487836D02*
X114985000Y-139272164D01*
X90917500Y-114537258D02*
X90917500Y-114062742D01*
X91962500Y-114537258D02*
X91962500Y-114062742D01*
X114047164Y-135115000D02*
X114262836Y-135115000D01*
X114047164Y-135835000D02*
X114262836Y-135835000D01*
X113160000Y-136740000D02*
X113810000Y-136740000D01*
X113810000Y-136740000D02*
X113810000Y-136890000D01*
X111240000Y-136740000D02*
X110590000Y-136740000D01*
X111240000Y-139460000D02*
X110590000Y-139460000D01*
X110590000Y-139460000D02*
X110590000Y-139310000D01*
X113160000Y-139460000D02*
X113810000Y-139460000D01*
X113810000Y-139460000D02*
X113810000Y-139310000D01*
X108912742Y-133742500D02*
X109387258Y-133742500D01*
X108912742Y-132697500D02*
X109387258Y-132697500D01*
G36*
X90439945Y-70808601D02*
G01*
X90457222Y-70821953D01*
X90823992Y-71160029D01*
X90860523Y-71220906D01*
X90864594Y-71252675D01*
X90864594Y-73928034D01*
X90844592Y-73996155D01*
X90828521Y-74016290D01*
X90484772Y-74366545D01*
X90422781Y-74401153D01*
X90394845Y-74404289D01*
X87619593Y-74404289D01*
X87551472Y-74384287D01*
X87529666Y-74366545D01*
X87185917Y-74016290D01*
X87152478Y-73953662D01*
X87149844Y-73928034D01*
X87149844Y-71264854D01*
X87169846Y-71196733D01*
X87185917Y-71176598D01*
X87529666Y-70826343D01*
X87591657Y-70791735D01*
X87619593Y-70788599D01*
X90371824Y-70788599D01*
X90439945Y-70808601D01*
G37*
G36*
X94474896Y-70808601D02*
G01*
X94496702Y-70826343D01*
X94840451Y-71176598D01*
X94873890Y-71239226D01*
X94876524Y-71264854D01*
X94876524Y-73928034D01*
X94856522Y-73996155D01*
X94840451Y-74016290D01*
X94496702Y-74366545D01*
X94434711Y-74401153D01*
X94406775Y-74404289D01*
X91631523Y-74404289D01*
X91563402Y-74384287D01*
X91541596Y-74366545D01*
X91197847Y-74016290D01*
X91164408Y-73953662D01*
X91161774Y-73928034D01*
X91161774Y-71314170D01*
X91181776Y-71246049D01*
X91198006Y-71225752D01*
X91591568Y-70826181D01*
X91653621Y-70791685D01*
X91681336Y-70788599D01*
X94406775Y-70788599D01*
X94474896Y-70808601D01*
G37*
G36*
X90462966Y-74671941D02*
G01*
X90484772Y-74689683D01*
X90828521Y-75039938D01*
X90861960Y-75102566D01*
X90864594Y-75128194D01*
X90864594Y-77791374D01*
X90844592Y-77859495D01*
X90828521Y-77879630D01*
X90484772Y-78229885D01*
X90422781Y-78264493D01*
X90394845Y-78267629D01*
X87619593Y-78267629D01*
X87551472Y-78247627D01*
X87529666Y-78229885D01*
X87185917Y-77879630D01*
X87152478Y-77817002D01*
X87149844Y-77791374D01*
X87149844Y-75128194D01*
X87169846Y-75060073D01*
X87185917Y-75039938D01*
X87529666Y-74689683D01*
X87591657Y-74655075D01*
X87619593Y-74651939D01*
X90394845Y-74651939D01*
X90462966Y-74671941D01*
G37*
G36*
X94314207Y-74675335D02*
G01*
X94366079Y-74687004D01*
X94383456Y-74695055D01*
X94436856Y-74741841D01*
X94456485Y-74810070D01*
X94436111Y-74878081D01*
X94419369Y-74898690D01*
X91462506Y-77841411D01*
X91400112Y-77875286D01*
X91329309Y-77870052D01*
X91272575Y-77827369D01*
X91247636Y-77753812D01*
X91212016Y-75129191D01*
X91231091Y-75060805D01*
X91248077Y-75039225D01*
X91590673Y-74690144D01*
X91652664Y-74655536D01*
X91681697Y-74652405D01*
X94314207Y-74675335D01*
G37*
M02*
