G04 #@! TF.GenerationSoftware,KiCad,Pcbnew,(6.0.5)*
G04 #@! TF.CreationDate,2023-05-02T23:05:13-04:00*
G04 #@! TF.ProjectId,MC_Telem,4d435f54-656c-4656-9d2e-6b696361645f,rev?*
G04 #@! TF.SameCoordinates,Original*
G04 #@! TF.FileFunction,Paste,Top*
G04 #@! TF.FilePolarity,Positive*
%FSLAX46Y46*%
G04 Gerber Fmt 4.6, Leading zero omitted, Abs format (unit mm)*
G04 Created by KiCad (PCBNEW (6.0.5)) date 2023-05-02 23:05:13*
%MOMM*%
%LPD*%
G01*
G04 APERTURE LIST*
G04 Aperture macros list*
%AMRoundRect*
0 Rectangle with rounded corners*
0 $1 Rounding radius*
0 $2 $3 $4 $5 $6 $7 $8 $9 X,Y pos of 4 corners*
0 Add a 4 corners polygon primitive as box body*
4,1,4,$2,$3,$4,$5,$6,$7,$8,$9,$2,$3,0*
0 Add four circle primitives for the rounded corners*
1,1,$1+$1,$2,$3*
1,1,$1+$1,$4,$5*
1,1,$1+$1,$6,$7*
1,1,$1+$1,$8,$9*
0 Add four rect primitives between the rounded corners*
20,1,$1+$1,$2,$3,$4,$5,0*
20,1,$1+$1,$4,$5,$6,$7,0*
20,1,$1+$1,$6,$7,$8,$9,0*
20,1,$1+$1,$8,$9,$2,$3,0*%
%AMFreePoly0*
4,1,48,0.036020,0.199191,0.037970,0.199714,0.040958,0.198321,0.057086,0.195477,0.069630,0.184951,0.084467,0.178033,0.290533,-0.028033,0.293203,-0.031847,0.294953,-0.032857,0.296081,-0.035957,0.305473,-0.049370,0.306900,-0.065680,0.312500,-0.081066,0.312500,-0.125000,0.310782,-0.134742,0.311361,-0.138024,0.309695,-0.140910,0.307977,-0.150652,0.295451,-0.165579,0.285709,-0.182453,
0.279350,-0.184767,0.275000,-0.189952,0.255809,-0.193336,0.237500,-0.200000,-0.237500,-0.200000,-0.247242,-0.198282,-0.250524,-0.198861,-0.253410,-0.197195,-0.263152,-0.195477,-0.278079,-0.182951,-0.294953,-0.173209,-0.297267,-0.166850,-0.302452,-0.162500,-0.305836,-0.143309,-0.312500,-0.125000,-0.312500,0.125000,-0.310782,0.134742,-0.311361,0.138024,-0.309695,0.140910,-0.307977,0.150652,
-0.295451,0.165579,-0.285709,0.182453,-0.279350,0.184767,-0.275000,0.189952,-0.255809,0.193336,-0.237500,0.200000,0.031434,0.200000,0.036020,0.199191,0.036020,0.199191,$1*%
%AMFreePoly1*
4,1,48,0.247242,0.198282,0.250524,0.198861,0.253410,0.197195,0.263152,0.195477,0.278079,0.182951,0.294953,0.173209,0.297267,0.166850,0.302452,0.162500,0.305836,0.143309,0.312500,0.125000,0.312500,0.081066,0.311691,0.076480,0.312214,0.074529,0.310820,0.071540,0.307977,0.055414,0.297452,0.042871,0.290533,0.028033,0.084467,-0.178033,0.080653,-0.180703,0.079643,-0.182453,
0.076543,-0.183581,0.063130,-0.192973,0.046819,-0.194400,0.031434,-0.200000,-0.237500,-0.200000,-0.247242,-0.198282,-0.250524,-0.198861,-0.253410,-0.197195,-0.263152,-0.195477,-0.278079,-0.182951,-0.294953,-0.173209,-0.297267,-0.166850,-0.302452,-0.162500,-0.305836,-0.143309,-0.312500,-0.125000,-0.312500,0.125000,-0.310782,0.134742,-0.311361,0.138024,-0.309695,0.140910,-0.307977,0.150652,
-0.295451,0.165579,-0.285709,0.182453,-0.279350,0.184767,-0.275000,0.189952,-0.255809,0.193336,-0.237500,0.200000,0.237500,0.200000,0.247242,0.198282,0.247242,0.198282,$1*%
%AMFreePoly2*
4,1,48,0.134742,0.310782,0.138024,0.311361,0.140910,0.309695,0.150652,0.307977,0.165579,0.295451,0.182453,0.285709,0.184767,0.279350,0.189952,0.275000,0.193336,0.255809,0.200000,0.237500,0.200000,-0.237500,0.198282,-0.247242,0.198861,-0.250524,0.197195,-0.253410,0.195477,-0.263152,0.182951,-0.278079,0.173209,-0.294953,0.166850,-0.297267,0.162500,-0.302452,0.143309,-0.305836,
0.125000,-0.312500,-0.125000,-0.312500,-0.134742,-0.310782,-0.138024,-0.311361,-0.140910,-0.309695,-0.150652,-0.307977,-0.165579,-0.295451,-0.182453,-0.285709,-0.184767,-0.279350,-0.189952,-0.275000,-0.193336,-0.255809,-0.200000,-0.237500,-0.200000,0.031434,-0.199191,0.036020,-0.199714,0.037970,-0.198321,0.040958,-0.195477,0.057086,-0.184951,0.069630,-0.178033,0.084467,0.028033,0.290533,
0.031847,0.293203,0.032857,0.294953,0.035957,0.296081,0.049370,0.305473,0.065680,0.306900,0.081066,0.312500,0.125000,0.312500,0.134742,0.310782,0.134742,0.310782,$1*%
%AMFreePoly3*
4,1,48,-0.076480,0.311691,-0.074530,0.312214,-0.071542,0.310821,-0.055414,0.307977,-0.042870,0.297451,-0.028033,0.290533,0.178033,0.084467,0.180703,0.080653,0.182453,0.079643,0.183581,0.076543,0.192973,0.063130,0.194400,0.046820,0.200000,0.031434,0.200000,-0.237500,0.198282,-0.247242,0.198861,-0.250524,0.197195,-0.253410,0.195477,-0.263152,0.182951,-0.278079,0.173209,-0.294953,
0.166850,-0.297267,0.162500,-0.302452,0.143309,-0.305836,0.125000,-0.312500,-0.125000,-0.312500,-0.134742,-0.310782,-0.138024,-0.311361,-0.140910,-0.309695,-0.150652,-0.307977,-0.165579,-0.295451,-0.182453,-0.285709,-0.184767,-0.279350,-0.189952,-0.275000,-0.193336,-0.255809,-0.200000,-0.237500,-0.200000,0.237500,-0.198282,0.247242,-0.198861,0.250524,-0.197195,0.253410,-0.195477,0.263152,
-0.182951,0.278079,-0.173209,0.294953,-0.166850,0.297267,-0.162500,0.302452,-0.143309,0.305836,-0.125000,0.312500,-0.081066,0.312500,-0.076480,0.311691,-0.076480,0.311691,$1*%
%AMFreePoly4*
4,1,48,0.247242,0.198282,0.250524,0.198861,0.253410,0.197195,0.263152,0.195477,0.278079,0.182951,0.294953,0.173209,0.297267,0.166850,0.302452,0.162500,0.305836,0.143309,0.312500,0.125000,0.312500,-0.125000,0.310782,-0.134742,0.311361,-0.138024,0.309695,-0.140910,0.307977,-0.150652,0.295451,-0.165579,0.285709,-0.182453,0.279350,-0.184767,0.275000,-0.189952,0.255809,-0.193336,
0.237500,-0.200000,-0.031434,-0.200000,-0.036020,-0.199191,-0.037971,-0.199714,-0.040960,-0.198320,-0.057086,-0.195477,-0.069629,-0.184952,-0.084467,-0.178033,-0.290533,0.028033,-0.293203,0.031847,-0.294953,0.032857,-0.296081,0.035957,-0.305473,0.049370,-0.306900,0.065681,-0.312500,0.081066,-0.312500,0.125000,-0.310782,0.134742,-0.311361,0.138024,-0.309695,0.140910,-0.307977,0.150652,
-0.295451,0.165579,-0.285709,0.182453,-0.279350,0.184767,-0.275000,0.189952,-0.255809,0.193336,-0.237500,0.200000,0.237500,0.200000,0.247242,0.198282,0.247242,0.198282,$1*%
%AMFreePoly5*
4,1,48,0.247242,0.198282,0.250524,0.198861,0.253410,0.197195,0.263152,0.195477,0.278079,0.182951,0.294953,0.173209,0.297267,0.166850,0.302452,0.162500,0.305836,0.143309,0.312500,0.125000,0.312500,-0.125000,0.310782,-0.134742,0.311361,-0.138024,0.309695,-0.140910,0.307977,-0.150652,0.295451,-0.165579,0.285709,-0.182453,0.279350,-0.184767,0.275000,-0.189952,0.255809,-0.193336,
0.237500,-0.200000,-0.237500,-0.200000,-0.247242,-0.198282,-0.250524,-0.198861,-0.253410,-0.197195,-0.263152,-0.195477,-0.278079,-0.182951,-0.294953,-0.173209,-0.297267,-0.166850,-0.302452,-0.162500,-0.305836,-0.143309,-0.312500,-0.125000,-0.312500,-0.081066,-0.311691,-0.076480,-0.312214,-0.074530,-0.310821,-0.071542,-0.307977,-0.055414,-0.297451,-0.042870,-0.290533,-0.028033,-0.084467,0.178033,
-0.080653,0.180703,-0.079643,0.182453,-0.076543,0.183581,-0.063130,0.192973,-0.046820,0.194400,-0.031434,0.200000,0.237500,0.200000,0.247242,0.198282,0.247242,0.198282,$1*%
%AMFreePoly6*
4,1,48,0.134742,0.310782,0.138024,0.311361,0.140910,0.309695,0.150652,0.307977,0.165579,0.295451,0.182453,0.285709,0.184767,0.279350,0.189952,0.275000,0.193336,0.255809,0.200000,0.237500,0.200000,-0.031434,0.199191,-0.036020,0.199714,-0.037971,0.198320,-0.040960,0.195477,-0.057086,0.184952,-0.069629,0.178033,-0.084467,-0.028033,-0.290533,-0.031847,-0.293203,-0.032857,-0.294953,
-0.035957,-0.296081,-0.049370,-0.305473,-0.065681,-0.306900,-0.081066,-0.312500,-0.125000,-0.312500,-0.134742,-0.310782,-0.138024,-0.311361,-0.140910,-0.309695,-0.150652,-0.307977,-0.165579,-0.295451,-0.182453,-0.285709,-0.184767,-0.279350,-0.189952,-0.275000,-0.193336,-0.255809,-0.200000,-0.237500,-0.200000,0.237500,-0.198282,0.247242,-0.198861,0.250524,-0.197195,0.253410,-0.195477,0.263152,
-0.182951,0.278079,-0.173209,0.294953,-0.166850,0.297267,-0.162500,0.302452,-0.143309,0.305836,-0.125000,0.312500,0.125000,0.312500,0.134742,0.310782,0.134742,0.310782,$1*%
%AMFreePoly7*
4,1,48,0.134742,0.310782,0.138024,0.311361,0.140910,0.309695,0.150652,0.307977,0.165579,0.295451,0.182453,0.285709,0.184767,0.279350,0.189952,0.275000,0.193336,0.255809,0.200000,0.237500,0.200000,-0.237500,0.198282,-0.247242,0.198861,-0.250524,0.197195,-0.253410,0.195477,-0.263152,0.182951,-0.278079,0.173209,-0.294953,0.166850,-0.297267,0.162500,-0.302452,0.143309,-0.305836,
0.125000,-0.312500,0.081066,-0.312500,0.076480,-0.311691,0.074529,-0.312214,0.071540,-0.310820,0.055414,-0.307977,0.042871,-0.297452,0.028033,-0.290533,-0.178033,-0.084467,-0.180703,-0.080653,-0.182453,-0.079643,-0.183581,-0.076543,-0.192973,-0.063130,-0.194400,-0.046819,-0.200000,-0.031434,-0.200000,0.237500,-0.198282,0.247242,-0.198861,0.250524,-0.197195,0.253410,-0.195477,0.263152,
-0.182951,0.278079,-0.173209,0.294953,-0.166850,0.297267,-0.162500,0.302452,-0.143309,0.305836,-0.125000,0.312500,0.125000,0.312500,0.134742,0.310782,0.134742,0.310782,$1*%
G04 Aperture macros list end*
%ADD10R,0.300000X0.475000*%
%ADD11R,0.970000X1.380000*%
%ADD12R,1.380000X0.970000*%
%ADD13RoundRect,0.042000X-0.943000X-0.258000X0.943000X-0.258000X0.943000X0.258000X-0.943000X0.258000X0*%
%ADD14RoundRect,0.042000X-0.258000X0.943000X-0.258000X-0.943000X0.258000X-0.943000X0.258000X0.943000X0*%
%ADD15R,1.800000X4.500000*%
%ADD16RoundRect,0.041300X0.563700X0.253700X-0.563700X0.253700X-0.563700X-0.253700X0.563700X-0.253700X0*%
%ADD17R,1.200000X1.450000*%
%ADD18R,1.450000X1.200000*%
%ADD19RoundRect,0.140000X0.140000X0.170000X-0.140000X0.170000X-0.140000X-0.170000X0.140000X-0.170000X0*%
%ADD20RoundRect,0.140000X-0.140000X-0.170000X0.140000X-0.170000X0.140000X0.170000X-0.140000X0.170000X0*%
%ADD21RoundRect,0.140000X-0.170000X0.140000X-0.170000X-0.140000X0.170000X-0.140000X0.170000X0.140000X0*%
%ADD22R,2.400000X0.740000*%
%ADD23R,1.380000X0.450000*%
%ADD24R,1.900000X1.000000*%
%ADD25R,1.550000X1.425000*%
%ADD26R,1.900000X1.800000*%
%ADD27R,1.300000X1.650000*%
%ADD28RoundRect,0.150000X-0.587500X-0.150000X0.587500X-0.150000X0.587500X0.150000X-0.587500X0.150000X0*%
%ADD29RoundRect,0.250000X-0.625000X0.400000X-0.625000X-0.400000X0.625000X-0.400000X0.625000X0.400000X0*%
%ADD30RoundRect,0.200000X-0.200000X-0.275000X0.200000X-0.275000X0.200000X0.275000X-0.200000X0.275000X0*%
%ADD31RoundRect,0.075000X-0.700000X-0.075000X0.700000X-0.075000X0.700000X0.075000X-0.700000X0.075000X0*%
%ADD32RoundRect,0.075000X-0.075000X-0.700000X0.075000X-0.700000X0.075000X0.700000X-0.075000X0.700000X0*%
%ADD33R,1.400000X0.600000*%
%ADD34R,0.400000X1.500000*%
%ADD35RoundRect,0.243750X0.243750X0.456250X-0.243750X0.456250X-0.243750X-0.456250X0.243750X-0.456250X0*%
%ADD36RoundRect,0.218750X-0.218750X-0.256250X0.218750X-0.256250X0.218750X0.256250X-0.218750X0.256250X0*%
%ADD37RoundRect,0.243750X-0.243750X-0.456250X0.243750X-0.456250X0.243750X0.456250X-0.243750X0.456250X0*%
%ADD38RoundRect,0.200000X0.200000X0.275000X-0.200000X0.275000X-0.200000X-0.275000X0.200000X-0.275000X0*%
%ADD39RoundRect,0.150000X0.150000X-0.587500X0.150000X0.587500X-0.150000X0.587500X-0.150000X-0.587500X0*%
%ADD40R,1.780000X3.150000*%
%ADD41RoundRect,0.140000X0.170000X-0.140000X0.170000X0.140000X-0.170000X0.140000X-0.170000X-0.140000X0*%
%ADD42RoundRect,0.200000X0.275000X-0.200000X0.275000X0.200000X-0.275000X0.200000X-0.275000X-0.200000X0*%
%ADD43FreePoly0,0.000000*%
%ADD44RoundRect,0.100000X-0.212500X-0.100000X0.212500X-0.100000X0.212500X0.100000X-0.212500X0.100000X0*%
%ADD45FreePoly1,0.000000*%
%ADD46FreePoly2,0.000000*%
%ADD47RoundRect,0.100000X-0.100000X-0.212500X0.100000X-0.212500X0.100000X0.212500X-0.100000X0.212500X0*%
%ADD48FreePoly3,0.000000*%
%ADD49FreePoly4,0.000000*%
%ADD50FreePoly5,0.000000*%
%ADD51FreePoly6,0.000000*%
%ADD52FreePoly7,0.000000*%
G04 APERTURE END LIST*
D10*
X138037000Y-83871000D03*
X137537000Y-83871000D03*
X137037000Y-83871000D03*
X136537000Y-83871000D03*
X136537000Y-85547000D03*
X137037000Y-85547000D03*
X137537000Y-85547000D03*
X138037000Y-85547000D03*
X149721000Y-83871000D03*
X149221000Y-83871000D03*
X148721000Y-83871000D03*
X148221000Y-83871000D03*
X148221000Y-85547000D03*
X148721000Y-85547000D03*
X149221000Y-85547000D03*
X149721000Y-85547000D03*
D11*
X147107000Y-96266000D03*
X145247000Y-96266000D03*
D12*
X153924000Y-83271000D03*
X153924000Y-85131000D03*
D11*
X150708000Y-88265000D03*
X152568000Y-88265000D03*
D12*
X156083000Y-80731000D03*
X156083000Y-82591000D03*
X144399000Y-80858000D03*
X144399000Y-82718000D03*
X142240000Y-82763000D03*
X142240000Y-84623000D03*
D11*
X139786000Y-88138000D03*
X141646000Y-88138000D03*
D13*
X158173500Y-90297000D03*
X158173500Y-91567000D03*
X158173500Y-92837000D03*
X158173500Y-94107000D03*
X163123500Y-94107000D03*
X163123500Y-92837000D03*
X163123500Y-91567000D03*
X163123500Y-90297000D03*
D14*
X152781000Y-96204000D03*
X151511000Y-96204000D03*
X150241000Y-96204000D03*
X148971000Y-96204000D03*
X148971000Y-101154000D03*
X150241000Y-101154000D03*
X151511000Y-101154000D03*
X152781000Y-101154000D03*
D15*
X139826000Y-79121000D03*
X136526000Y-79121000D03*
X151510000Y-79121000D03*
X148210000Y-79121000D03*
D16*
X165466000Y-113726000D03*
X165466000Y-112776000D03*
X165466000Y-111826000D03*
X162956000Y-111826000D03*
X162956000Y-112776000D03*
X162956000Y-113726000D03*
D17*
X137248000Y-88138000D03*
X135548000Y-88138000D03*
D18*
X142240000Y-80733000D03*
X142240000Y-79033000D03*
D17*
X148805000Y-88265000D03*
X147105000Y-88265000D03*
D18*
X153924000Y-79033000D03*
X153924000Y-80733000D03*
D19*
X94505000Y-92600000D03*
X93545000Y-92600000D03*
X102230000Y-109100000D03*
X101270000Y-109100000D03*
X99593200Y-116586000D03*
X98633200Y-116586000D03*
D20*
X111864200Y-122580400D03*
X112824200Y-122580400D03*
X116464000Y-111023400D03*
X117424000Y-111023400D03*
D19*
X105354200Y-123266200D03*
X104394200Y-123266200D03*
D21*
X101910000Y-95865000D03*
X101910000Y-96825000D03*
D22*
X129610400Y-109702600D03*
X125710400Y-109702600D03*
X129610400Y-108432600D03*
X125710400Y-108432600D03*
X129610400Y-107162600D03*
X125710400Y-107162600D03*
X129610400Y-105892600D03*
X125710400Y-105892600D03*
X129610400Y-104622600D03*
X125710400Y-104622600D03*
D23*
X170830000Y-113720000D03*
X170830000Y-113070000D03*
X170830000Y-112420000D03*
X170830000Y-111770000D03*
X170830000Y-111120000D03*
D24*
X173490000Y-110870000D03*
D25*
X170915000Y-109932500D03*
X170915000Y-114907500D03*
D26*
X173490000Y-113570000D03*
D27*
X173490000Y-109045000D03*
X173490000Y-115795000D03*
D28*
X122658900Y-139766000D03*
X122658900Y-141666000D03*
X124533900Y-140716000D03*
D29*
X90025000Y-94950000D03*
X90025000Y-98050000D03*
D30*
X156124300Y-73406000D03*
X157774300Y-73406000D03*
D31*
X102431000Y-111022400D03*
X102431000Y-111522400D03*
X102431000Y-112022400D03*
X102431000Y-112522400D03*
X102431000Y-113022400D03*
X102431000Y-113522400D03*
X102431000Y-114022400D03*
X102431000Y-114522400D03*
X102431000Y-115022400D03*
X102431000Y-115522400D03*
X102431000Y-116022400D03*
X102431000Y-116522400D03*
X102431000Y-117022400D03*
X102431000Y-117522400D03*
X102431000Y-118022400D03*
X102431000Y-118522400D03*
D32*
X104356000Y-120447400D03*
X104856000Y-120447400D03*
X105356000Y-120447400D03*
X105856000Y-120447400D03*
X106356000Y-120447400D03*
X106856000Y-120447400D03*
X107356000Y-120447400D03*
X107856000Y-120447400D03*
X108356000Y-120447400D03*
X108856000Y-120447400D03*
X109356000Y-120447400D03*
X109856000Y-120447400D03*
X110356000Y-120447400D03*
X110856000Y-120447400D03*
X111356000Y-120447400D03*
X111856000Y-120447400D03*
D31*
X113781000Y-118522400D03*
X113781000Y-118022400D03*
X113781000Y-117522400D03*
X113781000Y-117022400D03*
X113781000Y-116522400D03*
X113781000Y-116022400D03*
X113781000Y-115522400D03*
X113781000Y-115022400D03*
X113781000Y-114522400D03*
X113781000Y-114022400D03*
X113781000Y-113522400D03*
X113781000Y-113022400D03*
X113781000Y-112522400D03*
X113781000Y-112022400D03*
X113781000Y-111522400D03*
X113781000Y-111022400D03*
D32*
X111856000Y-109097400D03*
X111356000Y-109097400D03*
X110856000Y-109097400D03*
X110356000Y-109097400D03*
X109856000Y-109097400D03*
X109356000Y-109097400D03*
X108856000Y-109097400D03*
X108356000Y-109097400D03*
X107856000Y-109097400D03*
X107356000Y-109097400D03*
X106856000Y-109097400D03*
X106356000Y-109097400D03*
X105856000Y-109097400D03*
X105356000Y-109097400D03*
X104856000Y-109097400D03*
X104356000Y-109097400D03*
D33*
X100016760Y-98399600D03*
X100016760Y-97129600D03*
X100016760Y-95859600D03*
X100016760Y-94589600D03*
X94516760Y-94589600D03*
X94516760Y-95859600D03*
X94516760Y-97129600D03*
X94516760Y-98399600D03*
D34*
X138861800Y-139224400D03*
X138211800Y-139224400D03*
X137561800Y-139224400D03*
X137561800Y-141884400D03*
X138211800Y-141884400D03*
X138861800Y-141884400D03*
D35*
X153591500Y-73406000D03*
X151716500Y-73406000D03*
D30*
X79743700Y-113284000D03*
X81393700Y-113284000D03*
X79489700Y-108331000D03*
X81139700Y-108331000D03*
D36*
X84225301Y-108346001D03*
X85800301Y-108346001D03*
D37*
X84028200Y-113284000D03*
X85903200Y-113284000D03*
D34*
X142087600Y-139224400D03*
X141437600Y-139224400D03*
X140787600Y-139224400D03*
X140787600Y-141884400D03*
X141437600Y-141884400D03*
X142087600Y-141884400D03*
D35*
X154350800Y-141173200D03*
X152475800Y-141173200D03*
D38*
X158584500Y-141173200D03*
X156934500Y-141173200D03*
D39*
X126550000Y-141662900D03*
X128450000Y-141662900D03*
X127500000Y-139787900D03*
D19*
X104345000Y-107250000D03*
X103385000Y-107250000D03*
D38*
X113075000Y-133220000D03*
X111425000Y-133220000D03*
D36*
X95732500Y-111760000D03*
X97307500Y-111760000D03*
D40*
X149413100Y-91567000D03*
X154643100Y-91567000D03*
D21*
X140800000Y-143700000D03*
X140800000Y-144660000D03*
X137550000Y-143690000D03*
X137550000Y-144650000D03*
D41*
X114625000Y-139860000D03*
X114625000Y-138900000D03*
D42*
X91440000Y-115125000D03*
X91440000Y-113475000D03*
D20*
X113675000Y-135475000D03*
X114635000Y-135475000D03*
D43*
X111037500Y-137350000D03*
D44*
X111037500Y-137850000D03*
X111037500Y-138350000D03*
D45*
X111037500Y-138850000D03*
D46*
X111700000Y-139012500D03*
D47*
X112200000Y-139012500D03*
D48*
X112700000Y-139012500D03*
D49*
X113362500Y-138850000D03*
D44*
X113362500Y-138350000D03*
X113362500Y-137850000D03*
D50*
X113362500Y-137350000D03*
D51*
X112700000Y-137187500D03*
D47*
X112200000Y-137187500D03*
D52*
X111700000Y-137187500D03*
D30*
X108325000Y-133220000D03*
X109975000Y-133220000D03*
M02*
